<svg width="450" height="450" viewBox="0 0 450 450" fill="none" xmlns="http://www.w3.org/2000/svg">
<path d="M55.0809 287.037L57.6177 124.684L174.309 43L315.353 124.684V258.118" stroke="black" stroke-width="25"/>
<path d="M15 279.426H103.279" stroke="black" stroke-width="25"/>
<path d="M271.721 257.103H360" stroke="black" stroke-width="25"/>
<path d="M90.0882 285.515L75.8823 314.434" stroke="black" stroke-width="25"/>
<path d="M346.809 263.191L332.603 292.11" stroke="black" stroke-width="25"/>
<path d="M39.353 285.515L25.1471 314.434" stroke="black" stroke-width="25"/>
<path d="M296.074 263.191L281.868 292.11" stroke="black" stroke-width="25"/>
<path d="M130.081 380.037L132.618 217.684L249.309 136L390.353 217.684V351.118" stroke="black" stroke-width="25"/>
<path d="M90 372.426H178.279" stroke="black" stroke-width="25"/>
<path d="M346.721 350.103H435" stroke="black" stroke-width="25"/>
<path d="M165.088 378.515L150.882 407.434" stroke="black" stroke-width="25"/>
<path d="M421.809 356.191L407.603 385.11" stroke="black" stroke-width="25"/>
<path d="M114.353 378.515L100.147 407.434" stroke="black" stroke-width="25"/>
<path d="M371.074 356.191L356.868 385.11" stroke="black" stroke-width="25"/>
</svg>
