<svg width="240" height="240" viewBox="0 0 240 240" fill="none" xmlns="http://www.w3.org/2000/svg">
<path d="M50.9258 121.076C50.9261 90.292 50.9251 59.6152 50.9369 28.9384C50.9372 28.3422 51.0195 27.726 51.1852 27.1545C51.4393 26.2776 52.0384 25.7593 52.959 25.4762C56.1401 24.4981 59.2662 23.3244 62.48 22.4791C63.6037 22.1836 64.9659 22.451 66.1415 22.7586C70.6032 23.926 74.99 25.413 79.4895 26.3908C82.6079 27.0685 85.8628 27.348 89.0608 27.3782C94.5611 27.4301 99.8075 25.956 104.938 24.0556C105.634 23.7979 105.616 23.3353 105.615 22.7862C105.61 19.3059 105.607 15.8256 105.611 12.3453C105.613 11.01 106.218 10.0529 107.471 9.63529C110.836 8.51358 114.231 7.48119 117.588 6.33619C119.049 5.83783 120.266 6.56037 121.537 6.92468C126.523 8.35411 131.479 9.88814 136.46 11.3383C141.742 12.8766 147.045 14.3468 152.329 15.8787C156.449 17.073 160.55 18.3326 164.668 19.5335C169.203 20.8558 173.754 22.119 178.283 23.4592C180.183 24.0215 181.377 24.6601 181.376 27.411C181.342 93.2495 181.349 159.088 181.348 224.927C181.348 227.293 181.125 227.648 178.813 228.361C175.632 229.343 172.436 230.278 169.232 231.182C168.703 231.332 168.082 231.311 167.533 231.21C161.595 230.122 155.677 228.921 149.725 227.923C146.738 227.423 143.688 227.313 140.675 226.96C136.647 226.489 132.669 226.927 128.729 227.656C126.724 228.027 124.753 228.515 122.832 229.432C120.534 230.528 117.819 230.739 115.49 231.788C111.858 233.423 108.371 232.493 104.803 231.858C99.1432 230.85 93.4722 229.905 87.8109 228.905C82.4635 227.96 77.1252 226.963 71.7781 226.017C66.9958 225.17 62.206 224.365 57.4213 223.532C55.9433 223.274 54.4643 223.015 52.9985 222.697C51.3329 222.336 50.9268 221.793 50.9268 220.102C50.926 187.129 50.926 154.157 50.9258 121.076ZM120.008 226.46C120.1 225.92 120.271 225.379 120.272 224.838C120.287 206.479 120.289 188.119 120.288 169.759C120.285 130.314 120.28 90.8692 120.271 51.4243C120.271 50.747 120.215 50.0697 120.263 49.2065C120.263 47.6869 120.263 46.1674 120.263 44.5003C118.128 45.1648 116.234 45.8124 114.306 46.3298C113.321 46.5939 113.094 47.0814 113.095 48.0611C113.12 107.799 113.117 167.537 113.116 227.275C113.116 227.656 113.116 228.036 113.116 228.573C115.449 227.845 117.625 227.167 120.008 226.46ZM123.941 214.697C123.961 214.827 123.981 214.957 123.949 215.297C123.965 217.566 123.982 219.834 123.946 222.285C123.971 222.979 123.996 223.674 124.035 224.551C124.139 224.595 124.243 224.639 124.522 224.695C124.699 224.664 124.878 224.644 125.051 224.6C133.122 222.545 141.261 222.752 149.395 224.038C154.666 224.872 159.898 225.958 165.149 226.925C165.589 227.006 166.038 227.039 166.654 227.115C166.654 226.341 166.654 225.706 166.654 225.071C166.654 187.725 166.653 150.379 166.653 113.032C166.653 94.0896 166.649 75.1469 166.657 56.2042C166.66 48.9218 166.715 41.6393 166.699 34.357C166.693 31.7149 166.648 31.6467 164.23 31.0125C158.625 29.5424 153.206 27.361 147.401 26.6501C141.834 25.9684 136.273 25.9621 130.874 27.5418C124.038 29.5416 117.283 31.8203 110.498 33.9912C110.043 34.1366 109.622 34.3875 108.885 34.7284C109.585 34.9963 109.96 35.1655 110.351 35.2858C114.114 36.444 117.883 37.5806 121.641 38.753C123.148 39.2232 123.848 40.1694 123.903 41.7651C123.949 43.0911 123.932 44.4194 123.937 45.7467C123.947 48.5419 123.953 51.3372 123.913 54.3282C123.913 66.9867 123.908 79.6453 123.916 92.3038C123.918 94.2372 123.979 96.1706 123.954 98.2703C123.973 98.6776 123.992 99.085 123.959 99.6736C123.942 101.572 123.909 103.471 123.913 105.37C123.921 108.737 123.951 112.104 123.914 115.665C123.924 117.099 123.942 118.532 123.942 119.966C123.943 142.839 123.941 165.712 123.941 188.586C123.941 189.264 123.961 189.941 123.923 190.814C123.951 192.706 123.979 194.598 123.947 196.631C123.965 196.831 123.983 197.032 123.956 197.418C123.972 197.608 123.988 197.797 123.949 198.175C123.968 200.227 123.988 202.279 123.961 204.503C123.972 205.061 123.983 205.619 123.947 206.34C123.968 206.674 123.988 207.009 123.959 207.552C123.974 209.894 123.989 212.235 123.941 214.697ZM54.5981 35.1533C54.5937 41.9137 54.5885 48.6741 54.5883 55.4345C54.5883 55.6453 54.6389 55.8561 54.6088 56.2211C54.6277 56.3818 54.6466 56.5426 54.5993 56.8958C54.6218 58.6288 54.6442 60.3619 54.6118 62.2316C54.6301 62.3263 54.6485 62.421 54.6003 62.7075C54.5946 62.9941 54.5838 63.2808 54.5838 63.5675C54.593 114.996 54.6027 166.424 54.6164 217.852C54.6165 218.171 54.6713 218.489 54.6646 218.927C54.6867 218.962 54.7088 218.997 54.7901 219.206C57.8511 219.763 60.911 220.326 63.9734 220.876C70.0385 221.964 76.1037 223.051 82.1713 224.125C88.3109 225.212 94.4535 226.282 100.595 227.36C103.519 227.874 106.443 228.391 109.518 228.933C109.518 228.154 109.518 227.447 109.518 226.741C109.511 179.967 109.504 133.194 109.498 86.4199C109.496 73.5787 109.49 60.7374 109.509 47.8962C109.51 47.1793 109.373 46.8305 108.593 46.6502C107.028 46.2883 105.499 45.7675 103.954 45.318C93.4745 42.2701 82.9945 39.2236 72.5147 36.1767C66.6766 34.4793 60.8384 32.7822 54.8074 31.058C54.7618 31.2235 54.7163 31.389 54.6092 31.7324C54.6286 32.2907 54.6481 32.849 54.6084 33.5685C54.6264 34.0324 54.6444 34.4963 54.5981 35.1533ZM177.594 92.3369C177.594 71.3718 177.594 50.4068 177.594 29.3104C175.393 30.0198 173.402 30.7096 171.38 31.2908C170.529 31.5353 170.308 31.9442 170.309 32.8045C170.338 51.9638 170.337 71.123 170.336 90.2823C170.335 135.31 170.331 180.338 170.328 225.366C170.328 225.851 170.328 226.336 170.328 226.993C172.499 226.348 174.463 225.683 176.47 225.203C177.43 224.973 177.596 224.529 177.596 223.653C177.582 179.953 177.589 136.253 177.594 92.3369ZM104.933 27.9388C99.6683 29.9676 94.2328 31.0316 88.5735 31.1084C81.5072 31.2042 74.8521 29.2967 68.208 27.2449C66.7431 26.7925 65.2132 25.9723 63.7881 26.1081C61.7831 26.2992 59.848 27.2247 57.6353 27.9133C58.0999 28.1108 58.284 28.2114 58.4806 28.2693C63.215 29.6651 67.9497 31.0595 72.6863 32.4477C84.801 35.9984 96.9159 39.5488 109.034 43.0879C109.749 43.2969 110.562 43.6765 111.212 43.5119C113.314 42.9794 115.36 42.2299 117.557 41.5221C117.302 41.3693 117.169 41.2528 117.015 41.2035C115.178 40.6154 113.31 40.1109 111.505 39.4356C109.711 38.7641 107.854 38.1208 106.256 37.1022C104.638 36.0711 104.503 34.1942 105.862 32.8332C106.787 31.9058 108.012 31.1444 109.243 30.6806C112.25 29.5478 115.327 28.5937 118.397 27.6354C124.056 25.8688 129.57 23.5745 135.541 22.932C141.111 22.3328 146.66 22.4668 152.103 23.7785C156.586 24.8587 160.982 26.2916 165.434 27.5055C166.907 27.9074 168.332 28.7028 169.992 27.9673C171.391 27.3477 172.897 26.9698 174.626 26.3948C174.164 26.2083 174.012 26.1318 173.851 26.0842C169.596 24.8228 165.342 23.5606 161.085 22.3064C155.012 20.5172 148.937 18.7335 142.863 16.949C135.796 14.8729 128.736 12.7726 121.655 10.7461C120.298 10.3579 118.976 9.55971 117.418 10.258C116.184 10.8107 114.843 11.1211 113.556 11.5565C113.074 11.7195 112.609 11.9316 111.923 12.207C113.71 12.7654 115.244 13.2294 116.767 13.7242C118.532 14.2973 120.371 14.7243 122.028 15.5258C124.659 16.7987 124.926 19.9069 122.667 21.6998C122.119 22.1348 121.443 22.4601 120.774 22.6847C115.555 24.4386 110.323 26.1557 104.933 27.9388ZM119.182 18.2168C115.973 17.2038 112.765 16.1909 109.524 15.1678C109.524 17.6923 109.524 20.0639 109.524 22.5993C113.153 21.3726 116.634 20.1958 120.115 19.0191C120.095 18.9097 120.075 18.8002 120.056 18.6907C119.818 18.5512 119.58 18.4117 119.182 18.2168Z" fill="#070707"/>
<path d="M54.638 33.4878C54.7132 33.9036 54.7587 34.3999 54.7333 34.9282C54.6444 34.4962 54.6264 34.0323 54.638 33.4878Z" fill="#CBD1D6"/>
<path d="M54.6376 56.144C54.7045 56.2662 54.743 56.4654 54.7236 56.684C54.6468 56.5426 54.6279 56.3819 54.6376 56.144Z" fill="#CBD1D6"/>
<path d="M54.6391 62.1633C54.6998 62.2249 54.733 62.3549 54.7164 62.5004C54.6483 62.4211 54.63 62.3264 54.6391 62.1633Z" fill="#CBD1D6"/>
<path d="M54.9037 31.0713C54.9353 31.2171 54.8705 31.3494 54.7382 31.518C54.7161 31.3888 54.7617 31.2233 54.9037 31.0713Z" fill="#CBD1D6"/>
</svg>
