<svg width="240" height="240" viewBox="0 0 240 240" fill="none" xmlns="http://www.w3.org/2000/svg">
<path d="M115.555 231.357C110.98 230.734 106.396 230.134 101.833 229.484C94.4836 228.436 87.1494 227.353 79.8063 226.289C72.2956 225.202 64.7852 224.113 57.2663 223.045C56.2964 222.907 55.9803 222.623 56.0009 222.072C56.0504 220.756 56.0101 219.438 56.0101 218.121C56.0097 154.794 56.0095 91.4679 56.0163 28.1415C56.0163 27.7844 56.1146 27.4273 56.357 27.0693C57.5897 27.2373 58.6335 27.4034 59.6745 27.5752C65.8995 28.6027 72.1237 29.6316 78.3483 30.6597C82.6959 31.3777 87.0447 32.0934 91.3914 32.8132C95.9591 33.5696 100.52 34.3392 105.093 35.0849C108.453 35.6328 111.828 36.1514 115.199 36.7742C115.319 38.5695 115.537 40.2738 115.538 41.9782C115.558 74.1449 115.553 106.312 115.553 138.479C115.553 169.438 115.554 200.397 115.555 231.357Z" fill="#C2C8D0"/>
<path d="M173.688 231.464C171.199 231.086 168.715 230.697 166.22 230.332C160.866 229.551 155.558 228.601 150.138 228.055C143.224 227.359 136.275 227.5 129.517 228.854C129.034 228.951 128.522 228.997 127.788 229.012C127.484 228.548 127.354 228.138 127.354 227.729C127.344 174.235 127.344 120.742 127.344 67.2485C127.343 56.4109 110.224 42.0365 110.188 31.1989C110.187 30.8301 126.521 33.6218 126.521 33.6218C122.835 32.9881 120.302 34.2825 116.767 33.6218C115.519 33.3885 113.23 31.1956 112.124 30.7854C110.805 30.2963 110.762 29.5801 112.02 29.0226C113.015 28.5818 114.177 28.2246 115.353 27.9951C120.383 27.0143 125.461 26.1242 130.491 25.1439C135.045 24.2564 139.62 23.5263 144.447 23.3908C150.95 23.2082 157.12 24.1211 163.266 25.2125C166.729 25.8274 170.22 26.3862 173.716 27.0666C173.745 27.4058 173.765 27.6487 173.765 27.8917C173.771 93.7103 173.776 159.529 173.776 225.347C173.776 227.386 173.718 229.425 173.688 231.464ZM142.271 155.45C141.224 154.706 139.751 154.811 138.614 155.096C137.444 155.388 136.593 156.02 136.658 156.989C136.783 158.861 136.692 160.738 136.695 162.613C136.697 163.919 137.966 164.757 139.947 164.767C141.913 164.776 143.255 163.916 143.266 162.608C143.282 160.699 143.32 158.789 143.231 156.881C143.21 156.445 142.709 156.018 142.271 155.45ZM136.694 110.992C136.869 112.147 138.073 112.858 139.849 112.854C141.761 112.851 143.223 112.09 143.255 110.971C143.313 108.893 143.307 106.814 143.256 104.737C143.231 103.706 142.111 103.094 140.395 103.057C138.154 103.008 136.714 103.828 136.7 105.191C136.68 107.061 136.694 108.932 136.694 110.992ZM140.549 189.579C137.799 189.584 136.704 190.239 136.697 191.897C136.69 193.669 136.691 195.441 136.695 197.214C136.697 198.403 137.97 199.347 139.592 199.373C141.801 199.408 143.257 198.557 143.268 197.199C143.283 195.358 143.21 193.515 143.295 191.675C143.347 190.557 142.425 189.95 140.549 189.579ZM136.693 144.622C136.693 144.899 136.682 145.177 136.695 145.453C136.753 146.638 138.025 147.44 139.877 147.464C141.784 147.489 143.24 146.655 143.261 145.46C143.296 143.453 143.29 141.445 143.261 139.437C143.248 138.499 141.853 137.691 140.31 137.667C138.094 137.631 136.712 138.459 136.698 139.851C136.683 141.374 136.693 142.898 136.693 144.622ZM137.722 52.0853C137.379 52.6472 136.783 53.2024 136.741 53.7723C136.612 55.5357 136.688 57.3047 136.695 59.0715C136.701 60.2967 137.987 61.1271 139.892 61.1497C141.808 61.1725 143.242 60.3427 143.263 59.1353C143.296 57.1955 143.266 55.2553 143.272 53.3153C143.274 52.3435 142.262 51.7713 140.967 51.4396C139.839 51.1507 138.702 51.3195 137.722 52.0853ZM143.272 71.8959C143.272 71.4803 143.276 71.0648 143.27 70.6492C143.251 69.4639 142.02 68.6735 140.165 68.6528C138.175 68.6307 136.722 69.4602 136.703 70.684C136.672 72.5884 136.678 74.4933 136.7 76.3978C136.713 77.4708 138.287 78.4628 139.87 78.4375C141.557 78.4105 143.254 77.387 143.268 76.361C143.287 74.9412 143.272 73.5214 143.272 71.8959ZM142.914 180.832C143.033 180.428 143.245 180.025 143.254 179.621C143.291 177.85 143.277 176.079 143.267 174.307C143.259 172.858 142.366 172.275 140.184 172.271C137.955 172.267 136.715 173.009 136.699 174.391C136.68 176.127 136.798 177.867 136.655 179.599C136.568 180.655 137.249 181.432 138.708 181.772C140.224 182.125 141.787 181.925 142.914 180.832ZM140.03 120.569C138.042 120.695 136.811 121.297 136.742 122.435C136.62 124.448 136.633 126.467 136.736 128.48C136.79 129.533 138.444 130.219 140.395 130.162C141.938 130.116 143.254 129.298 143.264 128.328C143.286 126.348 143.293 124.367 143.262 122.387C143.245 121.229 142.225 120.624 140.03 120.569ZM143.27 92.9128C143.271 91.2498 143.281 89.5867 143.268 87.9237C143.26 86.8059 142.009 85.9892 140.289 85.956C138.297 85.9175 136.756 86.6661 136.717 87.8065C136.649 89.7805 136.653 91.7565 136.718 93.7305C136.753 94.8208 138.198 95.5752 139.978 95.5493C142.165 95.5175 143.264 94.703 143.27 92.9128ZM136.729 208.609C136.803 209.952 136.631 211.321 137.018 212.629C137.403 213.931 140.658 214.395 142.097 213.475C143.167 212.791 143.834 208.925 143.009 208.122C142.89 208.006 142.713 207.911 142.551 207.813C140.624 206.649 138.083 206.887 136.729 208.609ZM136.811 42.7079C137.756 43.714 139.028 44.1906 140.604 43.78C141.557 43.5319 142.65 42.85 142.818 42.2721C143.16 41.0936 143.002 39.8509 142.893 38.6398C142.804 37.6601 141.213 36.9455 139.477 36.9791C138.185 37.0041 136.707 37.9444 136.697 38.7888C136.682 40.0378 136.714 41.287 136.811 42.7079Z" fill="#818E8F"/>
<path d="M126.721 40.4106C126.954 40.7496 127.39 41.0883 127.391 41.4275C127.428 51.3942 127.421 61.361 127.421 71.3278C127.422 120.523 127.422 169.718 127.432 218.913C127.432 219.29 127.564 219.666 127.735 220.115C127.701 220.588 127.457 220.988 127.451 221.389C127.417 223.782 127.473 226.174 127.399 228.566C127.389 228.888 126.938 229.404 126.478 229.491C123.234 230.101 119.935 230.625 116.648 231.167C116.377 231.211 116.067 231.187 115.631 231.193C115.486 201.159 115.485 171.127 115.485 141.095C115.484 109.892 115.49 78.6882 115.469 47.485C115.468 45.8317 115.247 44.1784 115.271 42.43C116.532 42.1925 117.661 42.0733 118.765 41.9034C121.09 41.5451 123.408 41.169 125.716 40.7778C126.085 40.7152 126.388 40.5359 126.721 40.4106Z" fill="#CFD3D0"/>
<path d="M173.791 231.331C173.682 229.301 173.74 227.275 173.74 225.249C173.74 159.837 173.735 94.4258 173.729 29.0144C173.729 28.7729 173.709 28.5315 173.815 28.1779C177.317 27.3789 180.703 26.692 184.089 26.0051C184.327 26.3708 184.77 26.7359 184.773 27.1023C184.818 32.4183 184.802 37.7346 184.802 43.0508C184.802 104.463 184.801 165.876 184.8 227.289C184.8 227.972 184.8 228.656 184.8 229.518C181.31 230.102 177.62 230.719 173.791 231.331Z" fill="#CDD0CE"/>
<path d="M184.068 25.7439C180.743 27 177.36 28.1479 173.842 29.3232C170.229 28.3807 166.737 27.4527 163.273 26.4315C157.124 24.6189 150.953 23.1029 144.448 23.4062C139.619 23.6312 135.042 24.8436 130.488 26.3175C125.456 27.9456 120.376 29.4238 115.345 31.0527C114.168 31.4337 113.005 32.027 112.01 32.759C110.751 33.685 110.795 34.8743 112.114 35.6865C113.221 36.3678 114.477 36.8592 115.726 37.2466C119.262 38.3438 122.829 39.3446 126.516 40.397C126.319 40.6369 126.021 40.9605 125.657 41.0736C123.381 41.7801 121.096 42.4593 118.803 43.1063C117.715 43.4131 116.602 43.6284 115.356 43.8977C111.842 42.9788 108.465 42.0702 105.104 41.1104C100.528 39.8042 95.9645 38.4561 91.3943 37.1311C87.0453 35.8702 82.6942 34.6165 78.3443 33.3586C72.1163 31.5577 65.8888 29.7552 59.6605 27.9553C58.619 27.6544 57.5746 27.3634 56.4485 26.9662C60.1431 25.0913 64.1549 23.3329 68.2399 23.7089C72.3857 24.0904 76.415 25.8248 80.4746 27.036C86.1092 28.7172 91.822 28.8723 97.6461 28.389C102.055 28.0231 106.165 26.7506 110.498 25.1664C115.103 23.8314 119.466 22.5849 123.806 21.2632C125.47 20.7565 127.47 20.0937 127.435 18.0989C127.4 16.0722 125.322 15.6119 123.663 15.1257C119.701 13.9639 115.726 12.8429 111.757 11.7054C112.969 11.1159 114.139 10.4005 115.404 9.9655C117.504 9.24401 119.659 8.68108 121.805 8.10314C122.268 7.97864 122.82 7.95979 123.279 8.08553C129.688 9.84487 136.093 11.623 142.491 13.4262C150.599 15.7115 158.704 18.0084 166.802 20.3298C172.092 21.8461 177.369 23.4082 182.645 24.9711C183.124 25.1127 183.556 25.4104 184.068 25.7439Z" fill="#EAEEEF"/>
<path d="M111.61 11.7041C115.726 12.843 119.701 13.964 123.663 15.1258C125.322 15.612 127.4 16.0723 127.435 18.099C127.47 20.0938 125.47 20.7566 123.806 21.2633C119.466 22.585 115.103 23.8315 110.623 25.1184C110.467 21.0125 110.41 16.896 110.452 12.7805C110.456 12.4178 111.111 12.0618 111.61 11.7041Z" fill="#849092"/>
</svg>
