<svg width="361" height="361" viewBox="0 0 361 361" fill="none" xmlns="http://www.w3.org/2000/svg">
<path d="M83.3748 85.6211C84.0937 85.6158 84.0937 85.6158 84.827 85.6105C86.4155 85.5999 88.004 85.5937 89.5925 85.5884C90.1355 85.5862 90.6785 85.584 91.238 85.5818C94.1136 85.5706 96.9892 85.563 99.8648 85.558C102.83 85.5521 105.794 85.5337 108.759 85.5125C111.043 85.4985 113.327 85.494 115.611 85.4921C116.704 85.4895 117.796 85.4833 118.889 85.4734C120.422 85.4603 121.955 85.4609 123.488 85.4646C123.935 85.4577 124.383 85.4509 124.843 85.4438C128.645 85.4771 131.691 86.568 134.64 89.088C137.762 93.0728 138.112 95.7527 138.022 100.822C138.019 101.445 138.017 102.068 138.014 102.711C138.002 104.692 137.976 106.673 137.95 108.654C137.94 110.001 137.93 111.348 137.922 112.695C137.899 115.989 137.865 119.283 137.822 122.577C138.211 122.545 138.6 122.512 139.001 122.479C145.979 121.946 152.97 121.749 159.962 121.509C162.506 121.421 165.051 121.332 167.596 121.242C168.526 121.209 168.526 121.209 169.475 121.176C173.259 121.04 177.041 120.877 180.823 120.689C185.393 120.462 189.961 120.327 194.535 120.233C202.542 120.064 210.541 119.788 218.542 119.439C230.131 118.937 241.721 118.497 253.313 118.08C255.318 118.008 257.323 117.934 259.328 117.859C271.446 117.406 283.537 117.128 295.664 117.235C295.833 121.819 296.003 126.402 296.178 131.125C300.368 131.195 300.368 131.195 304.559 131.236C308.833 131.357 312.01 132.157 315.137 135.299C317.801 138.287 318.44 140.972 318.403 145.016C318.403 145.439 318.403 145.861 318.403 146.296C318.402 147.687 318.394 149.077 318.386 150.468C318.384 151.434 318.383 152.4 318.382 153.367C318.378 155.906 318.368 158.445 318.356 160.984C318.346 163.576 318.341 166.169 318.336 168.762C318.325 173.845 318.307 178.929 318.286 184.013C311.062 184.434 303.841 184.69 296.607 184.868C294.73 184.914 292.853 184.962 290.975 185.01C286.297 185.13 281.619 185.248 276.941 185.365C272.363 185.479 267.785 185.596 263.206 185.714C262.545 185.731 261.884 185.748 261.203 185.765C252.431 185.993 243.661 186.272 234.891 186.6C221.506 187.1 208.121 187.46 194.731 187.771C194.244 187.783 193.757 187.794 193.255 187.806C186.763 187.957 180.271 188.105 173.778 188.251C166.161 188.423 158.544 188.598 150.927 188.774C148.555 188.828 146.182 188.883 143.809 188.936C143.359 188.946 142.909 188.956 142.446 188.966C141.556 188.986 140.666 189.006 139.776 189.026C137.658 189.073 135.54 189.125 133.422 189.186C132.62 189.209 131.819 189.232 131.017 189.255C130.439 189.271 130.439 189.271 129.849 189.288C127.405 189.351 124.969 189.343 122.524 189.298C114.496 189.225 109.349 190.781 102.86 195.766C121.162 195.525 139.458 195.119 157.755 194.614C158.272 194.6 158.789 194.586 159.322 194.571C166.832 194.364 174.342 194.153 181.851 193.942C190.457 193.7 199.063 193.459 207.669 193.222C208.71 193.193 209.751 193.164 210.792 193.135C224.791 192.748 238.789 192.395 252.791 192.175C258.185 192.09 263.571 191.97 268.96 191.726C277.856 191.34 286.762 191.449 295.664 191.492C295.664 196.252 295.664 201.012 295.664 205.916C288.316 206.578 280.966 206.629 273.595 206.746C265.217 206.878 265.217 206.878 256.856 207.395C253.142 207.649 249.418 207.665 245.698 207.726C234.621 207.912 223.548 208.201 212.474 208.52C208.83 208.624 205.187 208.728 201.543 208.832C201.132 208.843 200.721 208.855 200.297 208.867C190.804 209.137 181.311 209.399 171.818 209.651C170.044 209.698 168.27 209.746 166.496 209.795C156.936 210.057 147.386 210.267 137.822 210.19C137.826 210.568 137.831 210.945 137.835 211.334C137.877 214.91 137.908 218.485 137.928 222.061C137.939 223.899 137.953 225.736 137.977 227.574C138.004 229.692 138.013 231.81 138.022 233.928C138.033 234.581 138.044 235.234 138.055 235.906C138.056 240.098 137.722 243.805 134.865 246.985C132.069 249.676 129.596 250.387 125.785 250.427C125.41 250.433 125.035 250.438 124.649 250.444C123.41 250.46 122.172 250.469 120.933 250.478C120.062 250.488 119.192 250.499 118.321 250.51C116.023 250.537 113.725 250.558 111.428 250.578C109.127 250.599 106.826 250.627 104.526 250.654C100.626 250.699 96.7272 250.731 92.8277 250.758C90.5769 250.776 88.3282 250.815 86.0781 250.878C85.6033 250.888 85.1286 250.899 84.6394 250.909C83.8348 250.927 83.0302 250.952 82.2261 250.989C78.8965 251.046 75.896 249.821 73.3789 247.586C73.1078 247.233 72.8368 246.881 72.5575 246.517C72.2771 246.165 71.9968 245.812 71.7079 245.449C70.3837 243.498 69.8262 242.083 69.8238 239.679C69.8208 239.161 69.8178 238.643 69.8147 238.11C69.8176 237.259 69.8176 237.259 69.8206 236.39C69.8186 235.786 69.8167 235.183 69.8146 234.56C69.8093 232.53 69.8114 230.499 69.8134 228.468C69.8117 227.015 69.8085 225.562 69.8054 224.109C69.7989 220.567 69.798 217.025 69.7992 213.484C69.8001 210.605 69.7992 207.726 69.797 204.848C69.7967 204.438 69.7964 204.029 69.7961 203.607C69.7955 202.775 69.7948 201.943 69.7942 201.111C69.7886 193.307 69.7897 185.504 69.7929 177.7C69.7955 170.56 69.7897 163.42 69.78 156.279C69.77 148.949 69.7657 141.62 69.7677 134.29C69.7687 130.174 69.7674 126.058 69.7601 121.942C69.754 118.438 69.7533 114.934 69.7595 111.43C69.7625 109.642 69.7622 107.854 69.7569 106.067C69.7516 104.128 69.7557 102.19 69.7622 100.252C69.7584 99.6873 69.7546 99.1223 69.7507 98.5402C69.7771 94.842 70.2701 92.5051 72.686 89.6556C76.2209 86.4097 78.7519 85.6357 83.3748 85.6211Z" fill="#B7BFBB"/>
<path d="M6.01364 10.1465C21.9514 10.1465 37.8891 10.1465 54.3097 10.1465C54.3097 116.764 54.3097 223.382 54.3097 333.231C38.5416 333.231 22.7734 333.231 6.52743 333.231C5.51645 332.18 5.94981 330.557 5.94633 329.158C5.94768 328.641 5.94903 328.125 5.95042 327.594C5.94983 327.048 5.94923 326.503 5.94862 325.942C5.94725 324.09 5.94958 322.239 5.95185 320.387C5.95163 319.056 5.95118 317.725 5.95052 316.395C5.94961 313.488 5.95031 310.582 5.95239 307.676C5.95549 303.354 5.95565 299.032 5.9552 294.711C5.95452 287.442 5.95624 280.174 5.95932 272.905C5.96235 265.705 5.96433 258.505 5.96489 251.305C5.96493 250.858 5.96496 250.41 5.965 249.95C5.96517 247.679 5.96533 245.409 5.96548 243.138C5.96656 227.041 5.97002 210.945 5.97488 194.848C5.9796 179.207 5.98324 163.566 5.98542 147.925C5.98548 147.444 5.98555 146.962 5.98562 146.465C5.9863 141.627 5.98695 136.788 5.98759 131.949C5.9889 122.092 5.99035 112.234 5.99188 102.377C5.99196 101.923 5.99203 101.47 5.9921 101.003C5.99683 70.7176 6.00509 40.432 6.01364 10.1465Z" fill="#ADB4BB"/>
<path d="M54.3098 10.1465C75.8499 10.1465 97.39 10.1465 119.583 10.1465C119.604 29.0076 119.604 29.0076 119.608 36.8863C119.611 42.3352 119.615 47.7841 119.622 53.233C119.627 57.2007 119.63 61.1684 119.631 65.1361C119.632 67.2383 119.633 69.3404 119.637 71.4426C119.641 73.419 119.642 75.3953 119.641 77.3717C119.641 78.4474 119.644 79.5232 119.647 80.5989C119.646 81.2332 119.645 81.8675 119.645 82.521C119.645 83.0758 119.646 83.6306 119.646 84.2022C119.583 85.4438 119.583 85.4438 119.069 85.9778C117.824 86.0332 116.594 86.0545 115.349 86.0536C114.764 86.0564 114.764 86.0564 114.168 86.0592C113.319 86.0631 112.47 86.066 111.621 86.0679C110.274 86.0717 108.928 86.0801 107.582 86.09C103.753 86.118 99.9243 86.1436 96.0953 86.1519C93.7552 86.1573 91.4154 86.173 89.0754 86.1953C88.1851 86.2019 87.2948 86.2046 86.4045 86.2034C85.1533 86.2022 83.9029 86.2141 82.6518 86.2288C82.2877 86.2253 81.9237 86.2218 81.5485 86.2181C78.0665 86.285 75.5192 87.6259 72.9088 89.9163C70.1612 93.342 70.019 96.2002 70.0399 100.495C70.0368 101.098 70.0336 101.702 70.0304 102.324C70.0218 104.349 70.0243 106.373 70.0268 108.397C70.0238 109.848 70.0186 111.299 70.0136 112.75C70.0028 116.283 70.0004 119.815 70.0013 123.348C70.002 126.22 70.0001 129.092 69.9962 131.964C69.9952 132.791 69.9941 133.619 69.993 134.447C69.9922 135.064 69.9922 135.064 69.9914 135.695C69.9817 143.484 69.9822 151.272 69.9857 159.061C69.9886 166.184 69.9779 173.307 69.9609 180.429C69.9435 187.746 69.9357 195.062 69.9381 202.379C69.9392 206.485 69.9366 210.591 69.9238 214.698C69.913 218.194 69.9111 221.69 69.9208 225.186C69.9255 226.969 69.9247 228.752 69.9155 230.535C69.9062 232.47 69.9127 234.404 69.9232 236.339C69.9168 236.9 69.9103 237.461 69.9037 238.039C69.9502 242.039 70.8972 244.621 73.5539 247.531C76.6686 250.462 79.881 250.612 83.8593 250.578C84.5818 250.579 84.5818 250.579 85.319 250.579C86.9041 250.578 88.4891 250.57 90.0742 250.561C91.1761 250.559 92.2779 250.558 93.3797 250.557C96.2745 250.553 99.1692 250.542 102.064 250.53C105.02 250.52 107.976 250.515 110.932 250.509C116.728 250.498 122.524 250.48 128.32 250.457C128.32 250.633 128.32 250.81 128.32 250.991C125.437 251.167 122.554 251.344 119.583 251.525C119.583 278.312 119.583 305.098 119.583 332.697C98.0427 332.697 76.5026 332.697 54.3098 332.697C54.3098 226.255 54.3098 119.814 54.3098 10.1465Z" fill="#EBEDEE"/>
<path d="M317.253 138.332C318.4 140.607 318.423 142.763 318.4 145.273C318.4 145.695 318.4 146.117 318.4 146.552C318.399 147.941 318.391 149.33 318.383 150.72C318.381 151.685 318.38 152.651 318.379 153.616C318.375 156.153 318.365 158.69 318.353 161.227C318.343 163.818 318.338 166.409 318.333 168.999C318.322 174.079 318.304 179.159 318.283 184.239C311.049 184.659 303.818 184.916 296.575 185.093C294.695 185.139 292.815 185.187 290.935 185.235C286.251 185.355 281.567 185.472 276.882 185.589C272.298 185.704 267.713 185.82 263.128 185.938C262.467 185.955 261.805 185.972 261.123 185.99C252.338 186.217 243.557 186.495 234.775 186.822C214.888 187.56 194.995 188.009 175.1 188.469C170.999 188.564 166.898 188.662 162.798 188.76C158.276 188.868 153.755 188.974 149.234 189.08C147.346 189.124 145.458 189.169 143.57 189.214C141.348 189.267 139.127 189.319 136.905 189.369C136.106 189.387 135.306 189.406 134.507 189.426C127.117 189.606 119.743 189.577 112.347 189.577C112.347 175.132 112.347 160.687 112.347 145.805C118.127 144.606 118.127 144.606 121.033 144.572C121.729 144.56 122.425 144.548 123.121 144.535C123.495 144.53 123.868 144.525 124.253 144.52C126.45 144.49 128.648 144.439 130.845 144.387C131.35 144.375 131.855 144.363 132.376 144.351C139.882 144.161 147.384 143.812 154.886 143.49C167.584 142.945 180.281 142.441 192.983 142.035C202.688 141.724 212.389 141.367 222.089 140.934C231.954 140.496 241.822 140.194 251.692 139.9C261.585 139.604 271.469 139.238 281.353 138.696C287.696 138.35 294.037 138.135 300.387 137.974C304.789 137.861 309.183 137.698 313.573 137.333C316.114 137.15 316.114 137.15 317.253 138.332Z" fill="#C3C9D2"/>
<path d="M291.608 116.951C294.709 117.015 297.809 117.082 300.91 117.15C301.959 117.173 303.009 117.195 304.058 117.217C309.928 117.338 315.788 117.514 321.652 117.825C324.658 117.982 327.662 118.094 330.671 118.169C331.077 118.179 331.482 118.189 331.901 118.2C333.535 118.24 335.17 118.277 336.805 118.314C338.03 118.341 339.256 118.372 340.481 118.403C340.845 118.41 341.209 118.417 341.584 118.425C343.864 118.483 345.939 118.748 348.221 119.087C348.221 123.667 348.221 128.248 348.221 132.967C342.56 133.101 342.56 133.101 340.801 133.126C336.971 133.259 333.975 133.855 331.207 136.742C330.973 137.104 330.739 137.466 330.498 137.839C330.132 138.386 330.132 138.386 329.76 138.944C328.541 140.965 328.581 142.652 328.573 144.981C328.57 145.395 328.566 145.808 328.563 146.234C328.553 147.606 328.547 148.979 328.542 150.351C328.539 150.821 328.537 151.29 328.535 151.774C328.524 154.262 328.517 156.75 328.512 159.238C328.507 161.799 328.489 164.36 328.468 166.921C328.455 168.896 328.451 170.872 328.449 172.848C328.446 173.792 328.44 174.735 328.431 175.678C328.216 183.877 328.216 183.877 331.913 190.858C335.631 193.101 338.52 193.56 342.785 193.661C344.579 193.716 346.373 193.771 348.221 193.828C348.221 198.408 348.221 202.989 348.221 207.708C339.971 207.759 331.731 207.766 323.485 207.475C322.869 207.454 322.252 207.433 321.616 207.411C317.27 207.243 317.27 207.243 315.097 206.908C313.076 206.62 311.08 206.522 309.045 206.472C308.47 206.455 308.47 206.455 307.883 206.438C306.672 206.404 305.461 206.372 304.25 206.34C303.423 206.317 302.597 206.294 301.77 206.271C299.755 206.213 297.741 206.16 295.726 206.107C295.726 201.35 295.726 196.593 295.726 191.692C293.571 191.763 291.416 191.834 289.196 191.907C287.378 191.966 285.56 192.024 283.742 192.082C281.878 192.142 280.014 192.202 278.15 192.264C268.912 192.57 259.675 192.796 250.434 192.95C236.701 193.181 222.973 193.531 209.244 193.911C208.198 193.94 207.152 193.969 206.105 193.998C197.482 194.236 188.859 194.478 180.236 194.72C172.75 194.931 165.264 195.14 157.778 195.346C157.262 195.36 156.747 195.375 156.216 195.389C138.045 195.889 119.874 196.269 101.698 196.497C107.158 191.95 111.352 189.233 118.499 189.176C119.095 189.162 119.692 189.149 120.307 189.134C121.979 189.097 123.651 189.068 125.324 189.042C127.194 189.009 129.063 188.958 130.933 188.909C135.655 188.785 140.378 188.678 145.101 188.573C147.508 188.519 149.914 188.463 152.32 188.408C159.959 188.232 167.599 188.058 175.238 187.885C181.722 187.739 188.207 187.591 194.691 187.44C195.18 187.429 195.668 187.418 196.172 187.406C209.679 187.091 223.181 186.708 236.683 186.205C249.46 185.73 262.239 185.386 275.019 185.055C278.363 184.968 281.707 184.879 285.051 184.789C287.69 184.719 290.329 184.65 292.968 184.581C294.202 184.548 295.436 184.516 296.67 184.482C303.906 184.288 311.133 184.174 318.371 184.218C318.351 178.654 318.321 173.089 318.276 167.525C318.256 164.941 318.239 162.357 318.231 159.773C318.224 157.277 318.206 154.781 318.181 152.286C318.174 151.335 318.17 150.385 318.169 149.435C318.168 148.1 318.154 146.765 318.137 145.43C318.14 145.041 318.142 144.652 318.145 144.251C318.084 141.083 317.187 138.273 315.089 135.905C311.211 132.376 307.729 132.178 302.77 132.1C301.55 132.073 300.329 132.043 299.109 132.012C298.302 131.998 298.302 131.998 297.478 131.984C296.24 131.899 296.24 131.899 295.726 131.366C295.681 130.337 295.671 129.307 295.675 128.277C295.677 127.653 295.679 127.028 295.68 126.385C295.685 125.727 295.689 125.069 295.694 124.392C295.696 123.732 295.698 123.073 295.701 122.393C295.707 120.757 295.715 119.121 295.726 117.485C294.367 117.485 293.008 117.485 291.608 117.485C291.608 117.309 291.608 117.133 291.608 116.951Z" fill="#EBEDEF"/>
<path d="M295.509 191.762C295.509 196.505 295.509 201.248 295.509 206.135C288.162 206.794 280.813 206.844 273.443 206.961C265.066 207.092 265.066 207.092 256.705 207.608C252.992 207.861 249.269 207.877 245.549 207.938C234.075 208.129 222.605 208.433 211.134 208.763C207.889 208.856 204.644 208.949 201.399 209.041C200.987 209.053 200.576 209.065 200.152 209.077C193.435 209.268 186.718 209.445 180 209.615C179.067 209.639 178.134 209.663 177.2 209.687C173.585 209.778 169.97 209.87 166.355 209.959C158.193 210.16 150.034 210.363 141.878 210.74C136.829 210.972 131.78 211.108 126.727 211.225C126.257 211.236 125.787 211.247 125.303 211.259C117.431 211.446 109.572 211.505 101.698 211.458C101.698 206.539 101.698 201.62 101.698 196.553C108.637 195.954 108.637 195.954 111.242 195.896C112.15 195.874 112.15 195.874 113.076 195.852C113.731 195.838 114.385 195.825 115.06 195.81C115.796 195.793 116.531 195.776 117.267 195.759C118.893 195.72 120.52 195.683 122.146 195.647C126.887 195.541 131.629 195.427 136.371 195.313C136.907 195.301 137.444 195.288 137.997 195.275C148.545 195.023 159.092 194.747 169.639 194.467C171.417 194.42 173.194 194.373 174.972 194.326C182.597 194.123 190.222 193.921 197.847 193.716C202.97 193.578 208.092 193.442 213.215 193.307C213.626 193.296 214.038 193.285 214.462 193.274C227.031 192.942 239.599 192.661 252.171 192.457C257.72 192.366 263.263 192.246 268.809 191.995C277.704 191.61 286.608 191.719 295.509 191.762Z" fill="#C3C9D2"/>
<path d="M295.527 117.508C295.697 122.261 295.867 127.014 296.041 131.911C293.896 131.95 293.896 131.95 291.707 131.99C282.838 132.163 273.979 132.336 265.126 132.945C247.672 134.133 230.153 134.538 212.668 134.93C208.736 135.02 204.811 135.165 200.883 135.362C196.218 135.594 191.552 135.757 186.884 135.893C186.538 135.903 186.191 135.914 185.835 135.924C184.036 135.977 182.236 136.029 180.437 136.08C169.949 136.384 159.464 136.699 148.984 137.246C140.01 137.713 131.034 138.063 122.054 138.379C121.393 138.403 120.732 138.427 120.051 138.451C118.155 138.519 116.258 138.585 114.361 138.65C113.803 138.67 113.244 138.69 112.668 138.711C108.827 138.839 105.013 138.846 101.165 138.846C101.165 133.917 101.165 128.988 101.165 123.909C102.913 123.85 104.661 123.791 106.462 123.73C112.342 123.532 118.222 123.331 124.101 123.13C127.654 123.009 131.207 122.887 134.76 122.768C149.347 122.276 163.932 121.78 178.51 121.054C184.468 120.76 190.423 120.572 196.386 120.442C197.372 120.419 198.357 120.397 199.343 120.374C199.734 120.365 200.124 120.356 200.527 120.347C206.488 120.211 212.443 119.968 218.399 119.708C229.989 119.208 241.581 118.768 253.174 118.352C255.179 118.28 257.184 118.206 259.189 118.131C271.308 117.679 283.4 117.401 295.527 117.508Z" fill="#C3C9D2"/>
<path d="M82.1494 86.5361C82.5985 86.5457 83.0476 86.5553 83.5103 86.5652C84.6106 86.5902 85.7107 86.6284 86.8107 86.6693C86.4228 86.9827 86.035 87.296 85.6354 87.6188C84.5039 88.5894 83.5701 89.5079 82.6283 90.6672C82.3787 90.9695 82.1291 91.2719 81.872 91.5834C80.5391 93.4434 80.0423 94.8745 80.0371 97.2018C80.0335 97.7134 80.0298 98.225 80.0261 98.752C80.028 99.5928 80.028 99.5928 80.0299 100.451C80.0272 101.047 80.0245 101.644 80.0218 102.259C80.0141 104.265 80.0137 106.272 80.0134 108.279C80.0095 109.715 80.0052 111.15 80.0005 112.586C79.9888 116.493 79.9848 120.399 79.9822 124.306C79.9805 126.746 79.9772 129.186 79.9735 131.626C79.9635 138.385 79.9551 145.143 79.9537 151.902C79.9536 152.334 79.9535 152.767 79.9534 153.213C79.9532 154.089 79.953 154.966 79.9528 155.843C79.9527 156.278 79.9526 156.713 79.9525 157.162C79.9524 157.598 79.9523 158.034 79.9523 158.482C79.9504 165.54 79.9366 172.597 79.9175 179.655C79.8981 186.903 79.8882 194.152 79.888 201.401C79.8877 205.469 79.8834 209.538 79.8686 213.607C79.8561 217.072 79.8524 220.537 79.8601 224.003C79.8637 225.77 79.8619 227.536 79.8517 229.303C79.8412 231.223 79.8466 233.141 79.8559 235.061C79.8491 235.614 79.8424 236.167 79.8355 236.738C79.8772 240.537 80.7168 243.391 82.7241 246.583C83.9001 247.802 83.9001 247.802 85.1824 248.482C85.8974 248.911 86.6111 249.343 87.3215 249.781C87.3215 249.957 87.3215 250.133 87.3215 250.314C85.7675 250.357 84.2145 250.389 82.6602 250.414C82.0043 250.434 82.0043 250.434 81.3352 250.455C78.1252 250.493 75.9412 250.063 73.5052 247.701C73.2181 247.343 72.931 246.985 72.6352 246.616C72.3428 246.26 72.0504 245.903 71.7492 245.535C70.3696 243.602 69.8257 242.181 69.8233 239.759C69.8203 239.242 69.8174 238.726 69.8143 238.194C69.8172 237.344 69.8172 237.344 69.8201 236.478C69.8182 235.876 69.8162 235.273 69.8142 234.652C69.8089 232.626 69.811 230.599 69.813 228.573C69.8113 227.123 69.8082 225.673 69.8051 224.224C69.7986 220.69 69.7977 217.156 69.7989 213.622C69.7998 210.75 69.7989 207.877 69.7967 205.005C69.7964 204.597 69.7961 204.188 69.7958 203.767C69.7952 202.937 69.7945 202.107 69.7939 201.277C69.7884 193.49 69.7895 185.704 69.7926 177.917C69.7952 170.793 69.7895 163.669 69.7798 156.544C69.7699 149.23 69.7657 141.917 69.7676 134.603C69.7685 130.496 69.7673 126.39 69.7601 122.283C69.754 118.786 69.7532 115.29 69.7594 111.794C69.7624 110.01 69.7622 108.226 69.7569 106.442C69.7516 104.508 69.7556 102.575 69.7621 100.641C69.7584 100.077 69.7546 99.5133 69.7507 98.9325C69.7769 95.2425 70.2667 92.9108 72.6671 90.0675C75.9167 87.0709 77.9066 86.3627 82.1494 86.5361Z" fill="#74807E"/>
<path d="M290.02 131.466C292.021 131.463 294.021 131.442 296.022 131.417C297.596 131.4 299.169 131.396 300.743 131.396C301.482 131.394 302.221 131.387 302.959 131.375C308.196 131.299 311.536 132.006 315.535 135.663C316.274 136.663 316.274 136.663 316.274 137.765C311.034 138.118 305.796 138.349 300.546 138.493C299.764 138.515 298.982 138.536 298.2 138.558C297.834 138.568 297.468 138.578 297.091 138.588C291.442 138.746 285.802 138.995 280.159 139.315C271.856 139.781 263.553 140.134 255.243 140.401C254.728 140.418 254.212 140.435 253.681 140.452C249.985 140.57 246.29 140.684 242.594 140.798C238.384 140.927 234.175 141.059 229.965 141.194C229.185 141.219 229.185 141.219 228.389 141.244C220.284 141.506 212.185 141.853 204.085 142.245C196.671 142.604 189.256 142.914 181.838 143.178C181.35 143.195 180.862 143.212 180.36 143.23C177.423 143.334 174.487 143.436 171.551 143.538C167.572 143.675 163.592 143.814 159.613 143.955C158.259 144.002 156.905 144.049 155.551 144.095C149.602 144.302 143.661 144.597 137.718 144.933C133.873 145.148 130.029 145.34 126.181 145.483C125.035 145.53 123.888 145.587 122.743 145.653C115.018 146.094 109.482 145.718 103.241 140.522C102.721 139.977 102.204 139.428 101.698 138.868C105.737 138.471 109.76 138.206 113.814 138.08C114.986 138.04 116.157 138 117.329 137.96C117.945 137.94 118.561 137.919 119.196 137.898C122.566 137.786 125.936 137.668 129.306 137.548C129.661 137.535 130.017 137.522 130.383 137.509C139.001 137.199 147.616 136.804 156.231 136.408C178.197 135.397 178.197 135.397 188.774 135.169C192.52 135.086 196.257 134.947 199.999 134.754C206.702 134.412 213.408 134.194 220.114 133.976C222.312 133.905 224.509 133.831 226.707 133.758C233.248 133.541 239.79 133.325 246.332 133.147C247.069 133.124 247.807 133.102 248.544 133.079C249.088 133.063 249.631 133.046 250.191 133.029C254.133 132.9 258.06 132.68 261.995 132.399C271.337 131.734 280.658 131.477 290.02 131.466Z" fill="#A8B0B6"/>
<path d="M125.763 100.494C127.867 101.927 129.205 103.154 129.81 105.712C130.067 107.787 129.897 108.677 128.925 110.539C127.323 112.558 126.553 112.927 124.055 113.213C121.842 112.977 120.864 112.425 119.186 110.93C117.724 108.79 117.425 107.136 117.846 104.615C118.395 102.959 119.396 102.075 120.704 101.016C122.552 100.38 123.819 100.29 125.763 100.494Z" fill="#798483"/>
<path d="M93.8318 100.525C95.5024 101.637 97.0207 102.888 97.9185 104.74C98.1483 107.881 97.6513 109.517 95.7035 111.896C94.1389 113.271 92.2483 113.282 90.2559 113.17C88.3012 112.237 87.4179 111.402 86.2012 109.581C85.5295 107.502 85.6118 106.321 86.1692 104.213C88.1693 101.012 90.1362 100.008 93.8318 100.525Z" fill="#768381"/>
<path d="M126.736 223.707C128.356 224.791 129.12 225.575 129.702 227.452C130.091 229.701 130.015 230.801 128.963 232.876C127.738 234.277 126.874 235.168 125.005 235.47C121.347 235.565 121.347 235.565 119.37 234.027C117.627 231.657 117.466 229.762 117.831 226.862C120.02 223.174 122.797 222.643 126.736 223.707Z" fill="#798483"/>
<path d="M96.6862 164.472C98.098 166.734 98.2058 168.656 97.6798 171.264C96.8072 172.883 95.7429 174.065 94.0899 174.903C90.646 175.317 90.646 175.317 88.9374 174.243C87.0442 172.613 85.9697 171.644 85.7241 169.054C85.9145 166.738 86.4501 165.735 87.9358 163.985C90.6764 162.159 94.0485 162.78 96.6862 164.472Z" fill="#758180"/>
<path d="M94.3208 223.997C95.836 225.256 95.836 225.256 96.7946 226.579C96.9579 226.749 97.1212 226.92 97.2894 227.095C97.5924 229.558 97.4962 231.326 96.3926 233.55C95.2138 234.956 94.5497 235.271 92.7939 235.481C90.7969 235.548 89.6731 235.544 87.9197 234.454C86.5123 232.851 85.9942 231.903 85.7241 229.742C85.9598 227.692 86.6669 226.633 87.8887 225.03C89.9776 223.576 91.8668 223.58 94.3208 223.997Z" fill="#788381"/>
</svg>
