<svg width="362" height="362" viewBox="0 0 362 362" fill="none" xmlns="http://www.w3.org/2000/svg">
<path d="M123.869 90.0277C123.869 68.7684 123.869 47.509 123.869 26.2497C123.869 26.0761 123.872 25.9025 123.868 25.729C123.77 20.7927 122.587 20.2835 118.402 20.2891C100.962 20.3123 83.5221 20.4713 66.0819 20.4869C63.2576 20.4895 60.417 19.9556 57.7645 21.3271C57.3309 21.5513 57.1326 21.5513 56.699 21.3273C54.1325 20.001 51.3868 20.4613 48.6416 20.4828C36.7553 20.5758 24.8677 20.5457 12.9808 20.5116C8.04742 20.4974 7.51989 21.8319 7.51847 25.9893C7.51028 50.0254 7.38663 74.0626 7.59711 98.0969C7.65561 104.776 7.84458 111.473 7.68925 118.14C7.42031 129.684 7.42726 141.228 7.59339 152.763C7.71588 161.268 7.64638 169.772 7.75542 178.276C7.84887 185.564 7.79965 192.854 7.76981 200.142C7.69839 217.584 7.57588 235.025 7.52998 252.467C7.51628 257.673 7.77279 262.88 7.75832 268.086C7.7202 281.796 7.58847 295.506 7.52005 309.216C7.48757 315.724 7.5072 322.232 7.51717 328.74C7.5232 332.675 8.49576 333.674 12.4602 333.679C25.8222 333.697 39.1843 333.673 52.5463 333.702C54.341 333.706 55.9243 332.545 57.4919 332.547C59.0602 332.549 60.6457 333.703 62.4378 333.7C81.1794 333.677 99.921 333.695 118.663 333.679C122.635 333.676 123.859 332.452 123.862 328.48C123.875 304.27 123.872 280.06 123.858 255.851C123.857 254.896 123.695 253.942 123.608 252.987" stroke="black" stroke-width="9.0767" stroke-linecap="round" stroke-linejoin="round"/>
<path d="M57.1298 21.8906C57.1298 123.732 57.1274 225.574 57.152 327.416C57.1524 328.977 57.4857 330.539 57.6637 332.1" stroke="black" stroke-width="9.0767" stroke-linecap="round" stroke-linejoin="round"/>
<path d="M299.982 208.957C302.363 210.292 305.04 209.867 307.536 209.922C319.512 210.182 331.493 210.166 343.473 210.27C344.949 210.283 346.423 210.471 347.9 210.514C351.672 210.624 353.054 209.521 353.333 205.825C353.522 203.319 353.471 200.781 353.341 198.268C353.207 195.714 351.71 194.467 348.942 194.361C346.944 194.284 344.953 194.338 342.948 194.131C338.356 193.657 335.407 190.507 335.403 185.751C335.393 172.453 335.393 159.155 335.403 145.857C335.407 141.16 338.763 137.71 343.473 137.513C345.47 137.429 347.466 137.331 349.463 137.255C351.658 137.172 352.983 136.132 353.099 133.863C353.228 131.344 353.377 128.821 353.345 126.302C353.305 123.082 352.034 121.97 348.682 121.865C343.646 121.707 338.612 121.497 333.577 121.353C323.855 121.074 314.125 120.506 304.412 120.693C299.114 120.795 293.822 120.393 288.52 120.78C283.24 121.165 277.933 121.193 272.637 121.343C262.655 121.627 252.677 122.01 242.689 122.18C229.143 122.412 215.604 122.996 202.062 123.435C196.94 123.601 191.819 123.811 186.697 123.949C176.193 124.23 165.685 124.381 155.187 124.793C151.885 124.923 148.584 125.055 145.29 124.963C140.848 124.838 140.874 124.322 140.676 120.301C140.386 114.405 140.528 108.483 140.621 102.575C140.724 96.0732 135.725 91.4476 129.158 90.9144C124.22 90.5135 119.421 91.0547 114.559 91.0727C107.528 91.0987 100.496 90.9134 93.4643 90.8546C92.2498 90.8444 91.0255 90.953 89.8201 91.114C86.9652 91.4953 84.2495 92.2246 81.2044 91.7522C77.1037 91.116 73.7324 95.4529 72.6705 99.196C72.1983 100.861 72.0752 102.621 72.0798 104.399C72.1281 122.825 72.0767 141.251 72.1238 159.677C72.1462 168.455 72.3899 177.243 72.2703 186.01C72.021 204.264 72.243 222.515 72.1249 240.767C72.0987 244.817 73.9948 247.913 77.32 250.151C79.6052 251.689 82.1592 251.878 84.571 250.845C85.6715 250.373 86.5912 250.438 87.4594 250.722C89.7775 251.481 92.1294 251.467 94.5061 251.462C101.798 251.449 109.09 251.452 116.382 251.461C118.604 251.464 120.874 251.193 122.899 252.49C123.022 252.569 123.266 252.558 123.409 252.492C126.965 250.847 131.048 252.131 134.647 250.22C138.785 248.022 140.54 244.672 140.583 240.245C140.652 233.119 140.559 225.991 140.616 218.865C140.656 213.846 141.836 213.723 145.81 213.645C158.484 213.398 171.161 213.218 183.831 212.834C191.383 212.606 198.938 212.528 206.488 212.302C220.463 211.884 234.435 211.439 248.417 211.274C256.753 211.175 265.085 210.788 273.418 210.519C281.231 210.267 289.045 210.014 296.856 209.72C297.816 209.684 298.767 209.391 299.721 209.217" stroke="black" stroke-width="9.0767" stroke-linecap="round" stroke-linejoin="round"/>
<path d="M141.159 214.637C139.345 213.4 137.336 213.062 135.161 213.041C125.853 212.953 116.558 213.354 107.257 213.573C103.004 213.673 102.516 213.145 102.582 208.883C102.619 206.443 102.288 203.989 102.816 201.558C103.139 200.069 103.861 199.095 105.424 198.655C108.177 197.88 110.836 196.8 113.54 198.913C114.784 199.885 116.424 199.883 117.948 199.712C122.203 199.236 126.468 199.54 130.728 199.476C140.812 199.324 150.903 199.12 160.973 198.783C168.194 198.542 175.427 198.899 182.619 198.358C190.534 197.763 198.472 198.395 206.346 197.785C213.58 197.224 220.8 197.828 227.996 197.324C236.43 196.734 244.889 197.318 253.287 196.736C261.302 196.181 269.308 196.816 277.282 196.253C283.201 195.834 289.106 195.878 295.02 195.802C296.439 195.784 297.861 195.75 299.184 196.348C299.539 196.508 299.813 196.774 300.237 196.592C304.379 194.813 308.747 195.803 313.014 195.542C315.397 195.396 318.134 195.133 319.16 192.877C320.739 189.405 323.675 186.648 323.554 182.203C323.234 170.442 323.395 158.666 323.486 146.897C323.505 144.444 322.67 142.583 320.817 141.17C319.96 140.515 319.409 139.8 318.976 138.805C317.916 136.366 316.022 135.075 313.275 135.117C310.146 135.164 306.976 135.446 303.895 135.058C298.285 134.35 292.752 135.19 287.2 135.45C281.804 135.703 276.407 135.365 271.03 135.684C259.389 136.377 247.734 136.429 236.086 136.775C223.829 137.14 211.569 137.443 199.319 137.889C193.665 138.094 188.007 137.97 182.363 138.279C170.375 138.937 158.373 139.063 146.378 139.432C140.641 139.609 134.883 139.471 129.169 139.915C124.727 140.261 120.302 140.33 115.863 140.356C114.623 140.363 113.38 140.689 112.505 141.442C109.798 143.772 107.055 142.418 104.407 141.607C102.702 141.084 102.661 139.237 102.592 137.742C102.484 135.393 102.526 133.034 102.573 130.681C102.628 127.936 103.477 127.076 106.214 127.028C112.56 126.915 118.906 126.875 125.251 126.747C128.992 126.671 132.706 126.084 136.466 126.201C138.126 126.252 139.518 125.251 140.898 124.404" stroke="black" stroke-width="6.941" stroke-linecap="round" stroke-linejoin="round"/>
<path d="M84.6261 92.9026C84.5963 94.7362 84.0999 96.4439 83.3096 98.1075C82.4554 99.9057 82.224 101.844 82.2242 103.818C82.2292 148.692 82.2288 193.567 82.226 238.441C82.2258 240.654 82.5863 242.701 83.751 244.72C84.6347 246.252 85.4781 247.972 85.4254 249.876" stroke="black" stroke-width="7.47493" stroke-linecap="round" stroke-linejoin="round"/>
</svg>
