<svg width="405" height="405" viewBox="0 0 405 405" fill="none" xmlns="http://www.w3.org/2000/svg">
<path d="M29.6447 85.4641L4 94.8275H193.376L213.103 83L29.6447 85.4641Z" fill="#ECF0F1"/>
<path d="M382.26 323L4 94.8276L45.4261 107.148L342.806 287.518L382.26 323Z" fill="#7F8C8D"/>
<path d="M84.1194 107.641H45.426L188.938 194.376V171.214L84.1194 107.641Z" fill="#ECF0F1"/>
<path d="M216.555 190.433L198.308 200.29V112.569L216.555 134.745V190.433Z" fill="#ECF0F1"/>
<path d="M4 94.8276H193.87L382.753 323L341.82 288.01L198.308 112.569V200.29L188.938 194.376L188.445 107.641H43.4534L4 94.8276Z" fill="#7F8C8D"/>
<path d="M216.555 190.433L198.308 200.29L340.834 286.532L301.38 238.236L216.555 190.433Z" fill="#ECF0F1"/>
<path d="M213.103 83L193.87 94.8275L382.26 322.507L401 304.766L213.103 83Z" fill="#ECF0F1"/>
</svg>
