<svg width="405" height="405" viewBox="0 0 405 405" fill="none" xmlns="http://www.w3.org/2000/svg">
<g clip-path="url(#clip0_1806_1029)">
<path d="M44.0538 107.378L188.37 194.532ZM197.827 200.239V113.085ZM197.827 200.239L342.148 287.393ZM4 94.605L382.202 323ZM193.099 94.605H4ZM193.099 94.605L382.202 323ZM213.074 83L29.5812 85.4573ZM213.074 83L401 309.072ZM215.534 190.138L216.026 136.569ZM303.592 242.233L215.534 190.138ZM188.37 171.463L82.2193 107.378ZM193.099 94.605L213.074 83ZM29.5812 85.4573L4 94.605ZM382.202 323L401 309.072ZM197.827 200.239L215.042 190.63ZM44.0538 107.378H82.2193ZM82.2193 107.378L188.37 107.378ZM188.37 194.532V171.463ZM188.37 171.463L188.37 107.378ZM323.242 264.559L342.148 287.393ZM323.242 264.559L207.284 124.505ZM207.284 124.505L197.827 113.085Z" fill="#D9D9D9"/>
<path d="M197.827 200.239V113.085L207.284 124.505L323.242 264.559L342.148 287.393L197.827 200.239ZM197.827 200.239L215.042 190.63M4 94.605L382.202 323M4 94.605H193.099M4 94.605L29.5812 85.4573L213.074 83M382.202 323L193.099 94.605M382.202 323L401 309.072L213.074 83M193.099 94.605L213.074 83M216.026 136.569L215.534 190.138L303.592 242.233M188.37 171.463L82.2193 107.378M188.37 171.463V194.532L44.0538 107.378H82.2193M188.37 171.463L188.37 107.378L82.2193 107.378" stroke="#161616" stroke-width="7" stroke-miterlimit="10"/>
</g>
<defs>
<clipPath id="clip0_1806_1029">
<rect width="405" height="405" fill="white"/>
</clipPath>
</defs>
</svg>
