<svg width="24" height="22" viewBox="0 0 24 22" fill="none" xmlns="http://www.w3.org/2000/svg">
<path d="M2.97906 21.5C2.28054 21.5 1.68255 21.2715 1.18512 20.8146C0.687683 20.3576 0.438965 19.8083 0.438965 19.1667V2.83333C0.438965 2.19167 0.687683 1.64236 1.18512 1.18542C1.68255 0.728472 2.28054 0.5 2.97906 0.5H20.7598C21.4583 0.5 22.0563 0.728472 22.5537 1.18542C23.0511 1.64236 23.2999 2.19167 23.2999 2.83333V19.1667C23.2999 19.8083 23.0511 20.3576 22.5537 20.8146C22.0563 21.2715 21.4583 21.5 20.7598 21.5H2.97906ZM6.78921 19.1667V2.83333H2.97906V19.1667H6.78921ZM9.32931 19.1667H20.7598V2.83333H9.32931V19.1667Z" fill="black"/>
</svg>
