<svg width="95" height="95" viewBox="0 0 95 95" fill="none" xmlns="http://www.w3.org/2000/svg">
<rect width="95" height="95" rx="20" fill="white"/>
<path d="M75.8901 68.2464C75.9142 68.4895 75.955 68.7344 75.9587 68.9774C75.9773 70.5026 75.9754 70.5342 77.5433 70.4952C78.3894 70.4748 79.5157 70.909 80.0018 70.2985C80.4156 69.7809 80.1409 68.7028 80.1465 67.8716C80.1706 64.3184 80.1818 60.7651 80.2059 57.2119C80.2059 56.8798 80.1224 56.5272 80.3321 56.2192C80.3321 60.6334 80.3321 65.0494 80.295 69.4636C80.295 70.2633 80.4211 70.6585 81.3192 70.5435C81.9033 70.4928 82.4909 70.4959 83.0744 70.5527C84.017 70.6047 84.7444 71.0537 85.0802 71.9425C85.4161 72.8312 85.3159 73.6811 84.5867 74.323C84.171 74.6941 84.2657 74.9465 84.5032 75.3269C85.3183 76.6343 86.1174 77.9523 86.9004 79.2809C87.0229 79.4868 87.4033 79.7707 87.086 79.9729C86.6908 80.2216 86.624 79.7058 86.4867 79.4905C85.7445 78.3179 84.9652 77.1619 84.338 75.928C83.8779 75.0207 83.2841 74.7646 82.2822 75.0689C83.1357 76.4791 83.9818 77.8651 84.8093 79.2642C84.9355 79.4757 85.3066 79.7651 84.9949 79.9655C84.5941 80.2272 84.5347 79.7095 84.3974 79.4905C83.6923 78.368 82.9464 77.264 82.3415 76.0876C81.8888 75.2062 81.3266 74.7647 80.3284 74.9502C80.0357 74.9736 79.7416 74.9736 79.4489 74.9502C80.2486 76.2769 80.9889 77.507 81.7311 78.7354L82.2543 79.6074C82.3378 79.7484 82.3916 79.8987 82.2154 80.0045C82.0391 80.1103 81.9352 79.9822 81.8443 79.8523C81.7534 79.7225 81.6439 79.5406 81.5493 79.3829C80.9091 78.329 80.1855 77.3141 79.6548 76.2082C79.0982 75.0393 78.2929 74.67 76.9904 75.043C77.7907 76.3579 78.5861 77.6672 79.3765 78.971C79.5045 79.1825 79.6326 79.394 79.7476 79.6074C79.8329 79.7559 79.8441 79.9247 79.6864 80.0119C79.5286 80.0991 79.3988 79.96 79.3153 79.8264C78.9108 79.1695 78.5156 78.509 78.1148 77.8503C77.7956 77.3233 77.4753 76.7964 77.1536 76.2694C76.2259 74.7591 76.2259 74.7591 74.2758 74.9836C75.0403 76.2509 75.7806 77.4848 76.5228 78.7168C76.6441 78.8958 76.755 79.0817 76.8549 79.2734C76.957 79.4979 77.341 79.7559 77.0182 79.9711C76.6953 80.1863 76.5914 79.7484 76.4616 79.5443C75.699 78.3142 74.9401 77.0784 74.2109 75.8334C73.8695 75.2508 73.5243 74.8686 72.7432 74.811C71.5223 74.7238 70.7987 73.707 70.8729 72.4861C70.9434 71.3487 71.8136 70.5138 73.003 70.4767C73.6831 70.4433 74.3646 70.4501 75.044 70.4971C75.6823 70.5546 75.8381 70.2911 75.8066 69.7103C75.8069 69.2212 75.8348 68.7324 75.8901 68.2464Z" fill="#4B4B4B"/>
<path d="M15.3554 56.1914C15.5149 57.236 15.4148 58.2862 15.4148 59.3327C15.4148 62.7635 15.4148 66.1979 15.3609 69.6231C15.3609 70.3078 15.5242 70.5509 16.2312 70.5212C17.3704 70.4655 18.5134 70.5063 19.6545 70.5063C20.4561 70.5175 21.2576 70.5156 22.0666 70.5472C23.1521 70.5898 23.9926 71.191 24.2616 72.0835C24.5492 73.0409 24.2746 73.9501 23.3654 74.5958C22.9647 74.8797 23.024 75.0522 23.2318 75.3862C24.0612 76.7203 24.8739 78.0674 25.6811 79.4163C25.7794 79.5796 26.041 79.7874 25.7942 79.9729C25.4621 80.2253 25.3786 79.8375 25.2729 79.6649C24.5065 78.4348 23.7607 77.1935 23.0092 75.954C22.3709 74.9057 22.3709 74.9057 20.9478 75.0355L23.3024 78.9228L23.6363 79.4794C23.731 79.639 23.8627 79.8505 23.6883 79.9785C23.4192 80.1863 23.3172 79.8839 23.2189 79.7262C22.5527 78.6519 21.7846 77.6202 21.278 76.4735C20.6527 75.0615 19.6842 74.6737 18.1961 75.0541C18.9185 76.2515 19.6434 77.4507 20.3707 78.6519C20.5303 78.9153 20.6936 79.1769 20.8476 79.4441C20.9533 79.6297 21.1444 79.8561 20.9014 80.0008C20.6583 80.1455 20.5303 79.8579 20.4338 79.6946C19.7065 78.5127 18.8808 77.3753 18.3037 76.1228C17.7471 74.9057 16.8991 74.7795 15.6727 75.0096L17.6432 78.2882C17.8367 78.5669 18.0103 78.859 18.1627 79.1621C18.2759 79.433 18.7936 79.7559 18.3668 79.9915C17.9957 80.1937 17.9011 79.6204 17.7397 79.3644C17.094 78.3513 16.374 77.3642 15.8842 76.2769C15.2867 74.9483 14.3404 74.696 13.0565 74.978C13.1158 75.4178 13.4275 75.7351 13.6391 76.0913C14.2328 77.1007 14.8618 78.0915 15.4482 79.1046C15.604 79.3699 16.0586 79.7299 15.7116 79.96C15.3294 80.2123 15.2255 79.6315 15.0715 79.3866C14.3126 78.1898 13.5649 76.9745 12.8635 75.7499C12.5555 75.21 12.2085 74.8834 11.5647 74.7498C10.4922 74.529 9.89473 73.4936 10.0153 72.347C10.0722 71.8537 10.3022 71.3965 10.6643 71.0568C11.0265 70.7171 11.4974 70.5168 11.9933 70.4915C12.7968 70.4463 13.6024 70.4506 14.4054 70.5045C15.0455 70.5509 15.2348 70.369 15.2329 69.7048C15.2329 65.5652 15.2663 61.4275 15.2979 57.288C15.2793 56.9243 15.3275 56.5569 15.3554 56.1914Z" fill="#4B4B4B"/>
<path d="M45.7165 59.9006C45.8779 62.8694 45.7351 65.827 45.7573 68.7902C45.7685 70.5046 45.7573 70.5065 47.4384 70.5084H50.036C50.8376 70.5232 51.6392 70.5195 52.4481 70.5529C53.4853 70.5974 54.3036 71.1726 54.5968 72.0373C54.7648 72.4919 54.7743 72.99 54.6238 73.4507C54.4732 73.9115 54.1715 74.3078 53.7674 74.5755C53.3406 74.8724 53.3647 75.058 53.6004 75.4328C54.4168 76.7409 55.2091 78.0657 56.0014 79.3868C56.1164 79.5723 56.4021 79.8321 56.096 80.0121C55.7898 80.192 55.6804 79.795 55.5728 79.6094C54.8417 78.4293 54.0772 77.266 53.4241 76.0451C52.9602 75.1786 52.4203 74.6702 51.307 75.0672C52.27 76.6685 53.2441 78.2902 54.2962 80.0436C53.5911 80.0325 53.5225 79.6725 53.3685 79.4294C52.6522 78.2753 51.9026 77.1398 51.2755 75.9374C50.8617 75.1415 50.3477 74.7963 49.4627 74.9429C49.1316 74.9672 48.7992 74.9672 48.4682 74.9429C49.3068 76.3327 50.1103 77.6259 50.8803 78.9433C51.0658 79.2587 51.6113 79.7003 51.218 79.9471C50.8246 80.1939 50.6873 79.5074 50.4925 79.2049C49.8579 78.2197 49.1825 77.2474 48.6834 76.1935C48.1268 75.0134 47.3085 74.6665 46.0227 75.0283L48.0637 78.4089C48.2715 78.7522 48.4904 79.0899 48.6834 79.4406C48.7743 79.6076 49.0304 79.8117 48.7428 79.9879C48.4552 80.1642 48.3847 79.8655 48.2808 79.6985C47.6035 78.5852 46.8409 77.5294 46.2861 76.3586C45.672 75.0598 44.8018 74.5644 43.3378 75.0079L45.0652 77.8857C45.3677 78.3885 45.6738 78.8876 45.9763 79.3905C46.0876 79.576 46.2861 79.8154 46.0635 79.9601C45.7536 80.1624 45.6627 79.7968 45.5495 79.6131C44.7071 78.2475 43.8629 76.8837 43.0539 75.4996C42.9571 75.3119 42.8177 75.1494 42.647 75.025C42.4763 74.9007 42.2789 74.8179 42.0705 74.7833C40.857 74.5236 40.215 73.5495 40.3542 72.323C40.4804 71.245 41.3543 70.4861 42.5251 70.4583C43.2053 70.4242 43.8869 70.4323 44.5661 70.4824C45.3398 70.5603 45.6182 70.3766 45.6052 69.5083C45.5606 66.6044 45.6219 63.6988 45.6497 60.7875C45.6423 60.5111 45.6887 60.2068 45.7165 59.9006Z" fill="#4B4B4B"/>
<path d="M47.8092 14C48.0429 15.0222 48.5942 15.0855 49.1822 14.9854C49.9003 14.8647 50.0269 15.1708 50.025 15.8369C50.0027 24.333 50.0252 32.8291 49.9918 41.3252C49.9918 42.1563 50.2048 42.3221 51.0006 42.3203C59.9754 42.3018 68.9486 42.3204 77.9234 42.3408C79.8865 42.3408 80.7961 43.4537 80.4547 45.376C80.3434 46.005 80.3803 46.6658 80.3766 47.3115C80.3555 50.2801 80.3406 53.2456 80.3307 56.208C80.1971 56.8797 80.273 57.5609 80.2711 58.2363C80.2618 62.0622 80.2448 65.888 80.2838 69.7139C80.2838 70.4894 80.0075 70.7843 79.2858 70.7881C78.3933 70.7881 77.5005 70.8197 76.608 70.7715C76.0516 70.7399 75.7581 70.499 75.8229 69.8926C75.8822 69.3545 75.7641 68.7953 75.8902 68.2461C75.9107 61.4145 75.914 54.5847 75.9752 47.7549C75.9752 46.9182 75.7603 46.758 74.9664 46.7598C66.9769 46.7796 58.9858 46.7701 50.9938 46.7305C50.387 46.7305 50.1587 46.8195 50.1568 47.5078C50.1364 55.1728 50.0772 62.838 50.0289 70.5029C48.7301 71.0744 47.3846 70.7998 46.0543 70.6885C45.726 70.6625 45.6512 70.3675 45.6549 70.0596C45.6939 66.6716 45.5791 63.2834 45.7164 59.8955C45.7257 55.7856 45.7169 51.6753 45.7633 47.5654C45.7633 46.9364 45.6441 46.7433 44.9742 46.7451C36.8301 46.7711 28.6865 46.7711 20.5436 46.7451C19.9388 46.7451 19.7866 46.9011 19.7828 47.5039C19.7568 55.167 19.7143 62.8315 19.6549 70.4971C18.3561 71.0537 17.0088 70.8148 15.6822 70.6738C15.1814 70.62 15.3002 70.1172 15.2984 69.7646C15.2984 66.7755 15.2855 63.786 15.2984 60.7969C15.2984 59.2588 15.2224 57.7188 15.3541 56.1826C15.3615 43.2365 15.3689 30.2913 15.3775 17.3477C15.3775 16.6055 15.1276 15.6234 15.5006 15.2041C15.9405 14.7091 16.9479 15.0518 17.7066 15.0518C27.2981 15.0382 36.8889 15.0382 46.4791 15.0518C47.0747 15.0518 47.5661 15.0037 47.8092 14ZM44.7984 19.4922C40.7907 19.5145 36.7808 19.5049 32.7731 19.5049C28.7022 19.5049 24.631 19.5183 20.5602 19.4941C19.9571 19.4904 19.818 19.6632 19.818 20.2588C19.8402 27.3627 19.8402 34.4679 19.818 41.5742C19.818 42.1679 19.946 42.3369 20.5602 42.3369C28.6054 42.3184 36.6521 42.3184 44.6998 42.3369C45.3102 42.3388 45.5406 42.2344 45.5406 41.5498C45.5258 34.4447 45.5382 27.3395 45.5777 20.2344C45.5815 19.5814 45.3548 19.4922 44.7984 19.4922Z" fill="black"/>
</svg>
