<svg width="95" height="95" viewBox="0 0 95 95" fill="none" xmlns="http://www.w3.org/2000/svg">
<rect width="95" height="95" rx="20" fill="white"/>
<path d="M37.0567 72.5324C38.3015 72.5324 39.5482 72.4743 40.791 72.5324C41.5325 72.5653 41.6912 72.2943 41.697 71.6012C41.697 70.5558 41.5499 69.495 41.8732 68.4651C41.8732 69.5589 41.8848 70.6546 41.8306 71.7464C41.8016 72.3117 41.968 72.4763 42.5294 72.4375C43.4974 72.3717 44.4653 72.3717 45.4236 72.3678C46.709 72.3678 47.6015 72.9815 47.9229 74.0734C48.2442 75.1652 47.9016 76.108 46.8058 76.7836C46.3586 77.0585 46.438 77.2289 46.6432 77.5754C47.7222 79.4055 48.7876 81.2426 49.8394 83.0869C49.9788 83.3289 50.3698 83.6541 49.9381 83.8922C49.5819 84.0858 49.4929 83.627 49.3573 83.4044C48.4242 81.8266 47.4079 80.2857 46.6161 78.6382C45.9812 77.3179 45.1565 76.7778 43.66 77.2831C44.7054 79.0854 45.7624 80.9109 46.8213 82.7346L47.2085 83.4024C47.315 83.5844 47.3711 83.7896 47.1562 83.9058C46.9414 84.0219 46.8039 83.8612 46.6994 83.6831C46.3412 83.0733 45.9792 82.4635 45.623 81.8518C44.8796 80.5722 44.0937 79.3158 43.418 78.0013C43.0657 77.3179 42.6301 77.0837 41.9003 77.1727C41.3305 77.2075 40.7592 77.2113 40.189 77.1843L42.8605 81.784C43.1044 82.2022 43.3619 82.6107 43.5826 83.0385C43.72 83.3018 44.0995 83.6522 43.7413 83.8767C43.3541 84.1207 43.2438 83.6018 43.1005 83.3598C42.0668 81.6175 41.0117 79.8752 40.0573 78.0942C39.6566 77.3431 39.1726 77.1437 38.3789 77.2095C37.7323 77.2637 37.7846 77.4592 38.044 77.9006C39.0584 79.6184 40.0605 81.3433 41.0504 83.0753C41.1917 83.3211 41.5809 83.6715 41.1724 83.8903C40.7639 84.109 40.6845 83.5864 40.5374 83.3347C39.5404 81.6447 38.5125 79.9682 37.5929 78.2375C37.1825 77.4631 36.7043 77.1456 35.8506 77.2986C35.4518 77.3702 35.0298 77.3102 34.4181 77.3102C35.4925 79.157 36.4914 80.8316 37.4361 82.5371C37.6626 82.9494 38.3479 83.5767 37.8969 83.8187C37.3161 84.1323 37.1883 83.203 36.9386 82.7965C35.959 81.2071 35.0395 79.5829 34.1199 77.9568C34.0347 77.7712 33.8985 77.6136 33.7271 77.5026C33.5557 77.3915 33.3562 77.3315 33.152 77.3295C32.5494 77.2953 31.9832 77.0305 31.5705 76.5901C31.1578 76.1497 30.9304 75.5674 30.9354 74.9639C30.9354 73.7036 31.9033 72.695 33.2836 72.6156C34.5439 72.5459 35.8022 72.5459 37.0567 72.5324Z" fill="#4A4A4A"/>
<path d="M10.5833 68.6257C10.7401 69.7466 10.6162 70.8714 10.5833 71.9923C10.5698 72.544 10.7498 72.7511 11.2957 72.7163C12.3837 72.6466 13.4717 72.5982 14.5596 72.5614C14.9468 72.5479 15.0204 72.3388 15.0494 72.0058C15.094 71.4696 14.9352 70.9101 15.214 70.399C15.4076 71.1037 14.8578 72.0987 15.4463 72.4782C15.969 72.815 16.8808 72.5459 17.6203 72.544C17.9746 72.544 18.3288 72.5246 18.6831 72.544C19.2015 72.544 19.7055 72.7149 20.1171 73.0302C20.5286 73.3455 20.8248 73.7876 20.9597 74.2882C21.1057 74.7724 21.082 75.2919 20.8926 75.7608C20.7032 76.2297 20.3595 76.6199 19.9182 76.8668C19.2852 77.2056 19.4187 77.4689 19.6936 77.9296C20.7138 79.6448 21.7108 81.3717 22.702 83.1043C22.8317 83.3269 23.1879 83.6328 22.8472 83.8515C22.4213 84.1264 22.3361 83.6115 22.1967 83.3753C21.2598 81.7976 20.346 80.2062 19.4245 78.6208C18.5456 77.1127 18.5456 77.1127 16.5865 77.3992C17.6455 79.2325 18.6986 81.0251 19.7149 82.8391C19.8892 83.1507 20.4661 83.5766 19.9317 83.869C19.5446 84.0819 19.411 83.4218 19.229 83.1178C18.2727 81.5149 17.3067 79.9159 16.4258 78.2781C16.0387 77.5599 15.6089 77.2056 14.7765 77.3373C14.306 77.4128 13.8085 77.3508 13.1581 77.3508C13.6924 78.2858 14.1589 79.1067 14.6313 79.9255C15.2759 81.0387 15.9303 82.148 16.5672 83.2669C16.6678 83.445 16.8847 83.6734 16.6214 83.8612C16.2826 84.1013 16.1742 83.7567 16.058 83.5573C15.1133 81.9466 14.1802 80.3301 13.2432 78.7175C12.434 77.3198 12.4321 77.3218 10.6511 77.4457C11.379 78.7117 12.0759 79.9275 12.7806 81.1432C13.1832 81.8401 13.5956 82.5313 13.9944 83.2282C14.1163 83.4411 14.3428 83.718 14.0273 83.8941C13.7117 84.0703 13.6072 83.716 13.4852 83.5069C12.4308 81.7001 11.3777 79.8933 10.3258 78.0864C10.0045 77.5366 8.1712 77.132 7.66399 77.5057C7.32327 77.7573 7.66399 77.9761 7.76466 78.1561C8.65323 79.7242 9.56504 81.2787 10.4749 82.8371C10.5872 83.0307 10.7111 83.2243 10.8118 83.4179C10.9124 83.6115 10.9434 83.8051 10.7169 83.9115C10.5233 84.0025 10.413 83.8651 10.3297 83.7296C10.2078 83.536 10.1032 83.3424 9.989 83.1488C9.02105 81.4801 8.03955 79.8152 7.08516 78.1387C6.99938 77.9544 6.86618 77.7961 6.69917 77.6801C6.53216 77.5641 6.33734 77.4946 6.13463 77.4786C4.72724 77.285 3.92772 76.288 4.00515 74.9619C4.08259 73.6842 5.05247 72.8015 6.47342 72.755C7.43441 72.693 8.39823 72.6879 9.35983 72.7395C10.291 72.8208 10.4691 72.4375 10.4459 71.607C10.411 70.61 10.3723 69.6111 10.5833 68.6257Z" fill="#4A4A4A"/>
<path d="M80.3103 55.4695C80.4652 56.2013 80.3742 56.9408 80.3394 57.6706C80.3103 58.2804 80.533 58.4449 81.1137 58.4237C81.8785 58.3627 82.6469 58.3627 83.4116 58.4237C84.3486 58.5204 84.9371 58.2978 84.9468 57.2466C84.8171 58.2417 85.2914 58.4759 86.2051 58.3636C87.1022 58.2819 88.0031 58.2496 88.9038 58.2668C90.2589 58.2552 91.2423 58.9734 91.5017 60.1176C91.7611 61.2617 91.2423 62.2935 90.0169 62.8278C89.4148 63.0911 89.7072 63.3253 89.8717 63.6022C90.8532 65.2999 91.8483 66.9919 92.8239 68.6936C92.9711 68.9472 93.3428 69.3053 92.9517 69.5202C92.5607 69.7351 92.4658 69.2201 92.3187 68.9704C91.4495 67.503 90.5144 66.0666 89.773 64.5372C89.1438 63.2402 88.3346 62.6381 86.8188 63.1821C87.5467 64.4404 88.294 65.7355 89.0431 67.0287C89.4148 67.6695 89.7962 68.3045 90.1602 68.9472C90.2686 69.1408 90.4138 69.3847 90.1389 69.5279C89.864 69.6712 89.7517 69.3944 89.6413 69.2163C88.6637 67.5514 87.6299 65.9156 86.7549 64.1984C86.2709 63.2479 85.6805 62.8704 84.6564 63.0504C84.2905 63.1143 83.9053 63.0601 83.3419 63.0601C84.3989 64.8857 85.392 66.5602 86.3348 68.2657C86.54 68.6394 87.2002 69.1698 86.722 69.4582C86.2438 69.7467 86.0909 68.9201 85.8702 68.56C85.0087 67.1642 84.2092 65.7317 83.3845 64.3126C82.6102 62.9846 82.6102 62.9846 80.893 63.2343C81.4738 64.2333 82.0197 65.1857 82.5715 66.1382C83.1038 67.0577 83.6439 67.9715 84.1705 68.893C84.2905 69.104 84.5112 69.3731 84.1473 69.5376C83.8608 69.6693 83.7601 69.3615 83.6652 69.1872C82.7205 67.5785 81.7293 65.9891 80.8737 64.3359C80.411 63.4512 79.8689 63.0079 78.8584 63.1937C78.4964 63.2595 78.1131 63.2034 77.5865 63.2034C78.2079 64.2817 78.7481 65.2206 79.2901 66.1576C79.7412 66.9319 80.2174 67.7063 80.6356 68.5C80.7962 68.8039 81.3267 69.2027 80.8969 69.4679C80.4671 69.7331 80.3413 69.1001 80.1729 68.8194C79.2282 67.2475 78.3106 65.66 77.4065 64.0648C77.1277 63.5731 76.8257 63.2498 76.2159 63.1066C75.0215 62.8278 74.3962 61.7805 74.5239 60.5415C74.5774 60.0079 74.8201 59.5111 75.2083 59.141C75.5965 58.771 76.1043 58.5522 76.6399 58.5243C77.5366 58.4366 78.4381 58.4088 79.3385 58.4411C80.0393 58.474 80.2058 58.2165 80.1864 57.5641C80.1574 56.8807 80.1206 56.1645 80.3103 55.4695Z" fill="#4A4A4A"/>
<path d="M67.1772 72.7241C68.5091 72.668 69.841 72.5905 71.1748 72.5673C71.6859 72.5673 71.8078 72.3582 71.8253 71.8839C71.8582 71.065 71.7052 70.2307 72.0014 69.4312C72.0014 70.1707 72.0769 70.9199 71.9898 71.6477C71.893 72.4686 72.2221 72.637 72.9442 72.5654C73.5884 72.5183 74.2348 72.5092 74.8801 72.5383C75.4001 72.5345 75.9066 72.7035 76.3201 73.0189C76.7336 73.3343 77.0306 73.7781 77.1645 74.2806C77.3173 74.7796 77.2911 75.3163 77.0903 75.7981C76.8896 76.2799 76.5269 76.6764 76.0649 76.9192C75.5015 77.2193 75.5131 77.4167 75.8093 77.9046C76.8121 79.5539 77.7762 81.2266 78.7132 82.9108C78.8719 83.1954 79.4101 83.6058 78.9184 83.8787C78.477 84.1149 78.3783 83.4625 78.204 83.1702C77.1645 81.4279 76.1578 79.672 75.1356 77.922C74.8182 77.3761 73.4456 77.014 72.9539 77.3586C72.6054 77.6045 72.9539 77.8213 73.0526 77.9955C73.9915 79.6469 74.9653 81.2769 75.8945 82.9301C76.0552 83.2147 76.5856 83.6058 76.0997 83.8981C75.7009 84.1304 75.5886 83.5303 75.428 83.2592C74.4407 81.6021 73.4398 79.9489 72.5241 78.2472C72.1524 77.5522 71.7246 77.2541 70.9464 77.3586C70.4488 77.4264 69.9358 77.3722 69.2718 77.3722C70.2591 79.0777 71.169 80.6632 72.0827 82.2313C72.2434 82.5081 72.4254 82.7772 72.5667 83.0637C72.708 83.3502 73.0759 83.6871 72.7061 83.902C72.3363 84.1168 72.2124 83.6077 72.0653 83.3599C71.1322 81.7802 70.2185 80.1908 69.297 78.6053C68.5226 77.2638 68.5226 77.2638 66.8055 77.5213C67.8005 79.2403 68.7801 80.9304 69.7577 82.6223C69.8874 82.845 70.0094 83.0715 70.1449 83.2902C70.2804 83.509 70.4276 83.7316 70.1952 83.8903C69.8739 84.1072 69.7558 83.7684 69.6338 83.5612C68.7549 82.0629 67.8915 80.5606 67.0126 79.0584C65.9247 77.1883 65.8705 77.1631 63.5706 77.6161L66.5132 82.7017C66.6255 82.8953 66.7339 83.0889 66.85 83.2825C66.9662 83.4761 67.1443 83.7142 66.9081 83.8807C66.5848 84.111 66.4648 83.7703 66.3447 83.5651C65.3226 81.8228 64.3004 80.065 63.2938 78.3053C63.0305 77.8407 62.7556 77.5309 62.1497 77.4516C60.872 77.2696 60.1247 76.2494 60.1925 74.9968C60.2137 74.4098 60.4596 73.8533 60.8793 73.4423C61.299 73.0312 61.8604 72.797 62.4478 72.788C64.0236 72.7067 65.6014 72.7396 67.1772 72.7241Z" fill="#4A4A4A"/>
<path d="M48.2538 58.4138C49.5838 58.3577 50.9157 58.2803 52.2475 58.2551C52.7509 58.2551 52.8903 58.0615 52.9077 57.5775C52.9329 56.8883 52.7877 56.1779 53.0761 55.5081C53.0761 56.0888 53.1671 56.6696 53.0761 57.2407C52.9309 58.1602 53.3181 58.3132 54.1273 58.257C55.2482 58.1777 56.3768 58.2048 57.5035 58.2048C58.6302 58.2048 59.5071 58.7855 59.8401 59.7283C60.0314 60.2144 60.0488 60.7517 59.8893 61.2491C59.7299 61.7466 59.4033 62.1736 58.9651 62.4579C58.4482 62.8044 58.4695 63.0387 58.7522 63.5091C59.7646 65.1895 60.7461 66.8892 61.7179 68.5928C61.8767 68.8715 62.3181 69.2819 61.9309 69.5026C61.4643 69.7698 61.3772 69.1329 61.2069 68.8502C60.3105 67.3635 59.3561 65.8999 58.6031 64.3396C57.9836 63.0542 57.1647 62.5663 55.6992 63.0619C56.2587 64.0299 56.824 65.0288 57.3951 66.018C57.8945 66.8814 58.4172 67.7313 58.8915 68.6083C59.0387 68.8812 59.5246 69.2355 59.1045 69.5026C58.6844 69.7698 58.5779 69.1871 58.423 68.9219C57.4667 67.3209 56.4872 65.7315 55.6237 64.0821C55.1746 63.2168 54.6558 62.8102 53.6743 62.9922C53.2716 63.0658 52.8438 63.0038 52.2514 63.0038L54.9055 67.5997C55.1301 67.9868 55.3701 68.374 55.585 68.7612C55.7147 69.0012 56.0187 69.3149 55.6876 69.5201C55.3566 69.7253 55.2211 69.2974 55.0914 69.0767C54.1447 67.4699 53.2155 65.8515 52.2785 64.237C51.5042 62.8974 51.5042 62.8974 49.7851 63.1548C50.7647 64.8449 51.721 66.5059 52.6889 68.1649C52.8186 68.3876 52.96 68.6044 53.0761 68.8347C53.1923 69.0651 53.4633 69.3129 53.1535 69.5065C52.7664 69.7466 52.7025 69.2897 52.5476 69.0922C52.404 68.8797 52.2747 68.6579 52.1604 68.4282C51.3203 66.9821 50.4336 65.5592 49.6573 64.0802C49.2469 63.3058 48.761 62.9187 47.8647 63.0638C47.4678 63.1316 47.0477 63.0755 46.4534 63.0755C47.5104 64.9029 48.5035 66.5775 49.4444 68.283C49.6496 68.6547 50.3175 69.1793 49.8219 69.4755C49.3263 69.7717 49.1927 68.9277 48.972 68.5657C48.0157 67.0015 47.0981 65.4121 46.1979 63.8169C45.9385 63.3562 45.6674 63.1239 45.0905 63.0948C44.4894 63.0672 43.9231 62.8046 43.5136 62.3636C43.1042 61.9226 42.8842 61.3385 42.9011 60.7369C42.91 60.1332 43.15 59.5559 43.5717 59.1237C43.9934 58.6916 44.5647 58.4375 45.168 58.4138C46.194 58.3771 47.2258 58.4138 48.2538 58.4138Z" fill="#4A4A4A"/>
<path d="M22.4001 58.414C23.6778 58.414 24.9574 58.3966 26.237 58.4314C26.8178 58.4488 27.0114 58.2765 27.0114 57.6783C27.0288 56.6969 26.8817 55.696 27.1895 54.73C27.1895 55.7599 27.2011 56.7898 27.1585 57.8177C27.1391 58.2901 27.2805 58.4392 27.7393 58.4198C28.833 58.3772 29.9268 58.3733 31.0303 58.3637C32.397 58.352 33.3321 58.9773 33.605 60.075C33.8993 61.2559 33.485 62.2258 32.2596 62.8511C31.7117 63.1318 31.9556 63.3505 32.1279 63.6486L34.9408 68.4884C35.0531 68.682 35.175 68.8756 35.2757 69.0691C35.3764 69.2627 35.388 69.4563 35.1634 69.557C34.9795 69.6402 34.8634 69.4912 34.7762 69.3634C34.6214 69.1195 34.4839 68.8639 34.3387 68.6142C33.365 66.9319 32.397 65.267 31.4291 63.6022C31.1716 63.1608 29.6635 62.8104 29.2822 63.1163C28.9782 63.3583 29.2822 63.5789 29.3925 63.7667C30.285 65.3309 31.1948 66.8855 32.1028 68.4439C32.2151 68.6374 32.3312 68.831 32.4396 69.0246C32.548 69.2182 32.5906 69.4118 32.3893 69.5376C32.188 69.6635 32.0331 69.4757 31.9382 69.3169C31.4755 68.5426 31.0264 67.7682 30.5734 66.9939C29.9752 65.964 29.3344 64.9573 28.7963 63.8964C28.4672 63.244 28.0393 63.0234 27.3443 63.1221C26.841 63.1937 26.3241 63.1802 25.6582 63.2111C26.7094 65.0231 27.716 66.7248 28.6801 68.4516C28.8563 68.7671 29.4545 69.2066 28.9666 69.4931C28.4788 69.7796 28.3859 69.0537 28.1923 68.7439C27.325 67.3152 26.5003 65.8594 25.6601 64.4114C24.8858 63.0756 24.8858 63.0756 23.1725 63.337L25.8827 68.016C26.023 68.2326 26.1523 68.4562 26.2699 68.6858C26.388 68.9511 26.812 69.2666 26.4287 69.5105C26.0454 69.7545 25.935 69.2434 25.7937 69.0053C24.9071 67.5127 23.9662 66.0433 23.1938 64.4908C22.6885 63.4783 22.0535 63.0388 20.9462 63.2518C20.6442 63.3099 20.3229 63.2615 19.8466 63.2615L21.6373 66.3686C22.1039 67.1758 22.5782 67.9792 23.0389 68.7904C23.1706 69.0227 23.4842 69.3266 23.1222 69.5299C22.7601 69.7332 22.6672 69.2918 22.5414 69.0691C21.5438 67.3785 20.5571 65.6826 19.5814 63.9816C19.3472 63.5712 19.1091 63.3118 18.5747 63.2363C17.9968 63.1444 17.4753 62.8364 17.1159 62.3745C16.7564 61.9127 16.5859 61.3315 16.6389 60.7487C16.7434 59.5542 17.7094 58.6618 18.9619 58.5902C20.0983 58.5185 21.2598 58.6715 22.4001 58.414Z" fill="#4A4A4A"/>
<path d="M24.4301 9.00051C33.3449 9.05278 42.2604 9.08718 51.1733 9.16848C53.014 9.18411 54.0068 10.6688 53.4301 12.4341C53.3243 12.8017 53.281 13.185 53.3022 13.5669C53.3719 19.63 53.4628 25.6913 53.5073 31.7525C53.5073 32.4784 53.7148 32.6549 54.4272 32.6704C63.7195 32.8537 73.0172 33.0572 82.3198 33.2818C84.4588 33.3302 85.5292 34.5059 85.4692 36.6431C85.2821 43.5103 85.1067 50.3762 84.9428 57.2407C84.869 57.4202 84.8473 57.6168 84.8794 57.8081C84.949 58.3888 84.6849 58.656 84.1313 58.6831C83.0754 58.746 82.0164 58.746 80.9604 58.6831C80.4746 58.6502 80.202 58.4155 80.2407 57.8755C80.2968 57.0761 80.1668 56.2707 80.31 55.4732V41.7652C79.9112 42.2065 79.3618 42.8107 78.8198 43.4204C76.8839 45.6118 74.9478 47.8148 72.9887 49.9868C72.618 50.3851 72.4172 50.9126 72.4292 51.4566C72.2995 57.4461 72.1466 63.4338 72.0014 69.4234C71.8601 70.2808 71.9583 71.1441 71.9409 72.0054C71.9409 72.3576 71.8852 72.7046 71.4907 72.73C70.1588 72.8152 68.84 73.1828 67.4926 72.9234C67.3679 72.8901 67.2574 72.8175 67.1772 72.7163C67.3488 66.2131 67.5235 59.7105 67.7016 53.2085C67.7132 52.7439 67.6026 52.5943 67.1206 52.5962C62.6528 52.604 58.185 52.5983 53.7172 52.5777C53.2604 52.5777 53.0953 52.705 53.1069 53.1734C53.1262 53.9477 53.0833 54.7223 53.0678 55.4966C52.9246 56.2245 53.0199 56.9602 53.0063 57.6939C53.0063 58.0462 52.9481 58.3942 52.5551 58.4136C51.2234 58.4814 49.9053 58.8381 48.562 58.6079C48.4366 58.5773 48.3244 58.5041 48.2456 58.4019C48.3056 56.7004 48.3354 54.995 48.4399 53.2954C48.4805 52.6548 48.2461 52.5583 47.6831 52.5699C46.177 52.5989 44.6666 52.6104 43.1606 52.5542C42.4734 52.5291 42.2503 52.6703 42.2368 53.4214C42.1477 58.4353 41.9954 63.4495 41.8657 68.4615C41.7186 69.6073 41.8302 70.757 41.8012 71.9029C41.7915 72.2649 41.8206 72.699 41.3618 72.7281C39.9273 72.8171 38.4673 73.1367 37.0561 72.5327C37.209 66.1579 37.3526 59.7826 37.5327 53.4097C37.5501 52.7592 37.4395 52.5289 36.7309 52.5366C33.8388 52.5676 30.9463 52.5564 28.0542 52.5034C27.3519 52.4919 27.1603 52.7225 27.2202 53.3726C27.238 53.8244 27.2294 54.2772 27.1948 54.7281C27.0477 55.754 27.1623 56.7841 27.1294 57.812C27.1294 58.1372 27.1655 58.5497 26.7417 58.5865C25.2879 58.7142 23.8206 59.002 22.394 58.4116C22.4385 56.6695 22.4621 54.939 22.5395 53.2046C22.5627 52.6568 22.4115 52.4762 21.8559 52.482C20.0575 52.5052 18.2589 52.5137 16.4624 52.4556C15.7558 52.4324 15.6361 52.6898 15.6225 53.3306C15.5064 59.0201 15.3556 64.7115 15.2124 70.4029C15.0749 70.941 15.1538 71.4908 15.1557 72.0347C15.1557 72.4587 15.0123 72.7237 14.5883 72.7798C13.5082 72.9269 12.43 73.1071 11.3286 73.0181C10.7479 72.9697 10.4706 72.7261 10.5073 72.0972C10.575 70.9357 10.446 69.7735 10.5776 68.6294C10.7066 63.3098 10.8353 57.9914 10.9643 52.6743C10.9779 52.0936 10.9958 51.5434 10.7016 50.9917C10.5609 50.7335 10.4843 50.4449 10.4799 50.1509C10.4756 49.8568 10.5433 49.5656 10.6762 49.3032C11.0071 48.6897 10.9955 48.0758 10.9877 47.437C10.9039 41.3714 10.821 35.3101 10.7397 29.2534C10.7397 28.8336 10.8059 28.3904 10.6958 28.0015C10.1344 26.0018 11.1016 24.5821 12.2631 23.1089C15.6819 18.7957 19.0118 14.4089 22.3706 10.0454C22.6016 9.71544 22.9107 9.44749 23.27 9.26516C23.6291 9.08293 24.0275 8.99228 24.4301 9.00051ZM54.394 37.3345C53.6569 37.3133 53.4849 37.5122 53.4848 38.2261C53.4597 41.157 53.3862 44.0901 53.2797 47.0191C53.2565 47.6928 53.4284 47.8706 54.1079 47.8706C58.6746 47.8571 63.2433 47.8846 67.81 47.9234C68.0461 47.9367 68.2823 47.8926 68.4975 47.7945C68.7126 47.6963 68.9007 47.5469 69.0454 47.3599C70.1352 46.09 71.2604 44.8506 72.3696 43.5982C74.0034 41.7534 75.6391 39.9066 77.3813 37.9282C69.5661 37.7327 61.9788 37.5533 54.394 37.3345ZM44.1596 47.8267L48.1606 47.8345C48.3754 47.8345 48.5481 47.7627 48.5483 47.521V42.1529L44.1596 47.8267ZM28.3393 36.7163C27.6985 36.7008 27.6002 36.9332 27.6118 37.4907C27.6427 39.0685 27.6206 40.6484 27.6206 42.2281L27.3911 42.23C27.3911 43.8697 27.4104 45.5171 27.3911 47.1607C27.3853 47.5807 27.4202 47.7915 27.9409 47.7915C30.9659 47.7773 33.9904 47.7826 37.0141 47.8072C37.4998 47.811 37.6048 47.631 37.5952 47.1841C37.5332 43.9576 37.4891 40.7309 37.4633 37.5044C37.4614 37.0069 37.2555 36.9234 36.8315 36.9234C33.9995 36.873 31.1675 36.8189 28.3393 36.7163ZM17.8969 47.7622C19.4185 47.7622 20.7368 47.741 22.0512 47.774C22.5138 47.7894 22.6556 47.6621 22.6557 47.1939C22.6422 45.3646 22.6557 43.5369 22.6557 41.6109L17.8969 47.7622ZM16.0346 28.7095C15.4326 28.694 15.4536 28.9886 15.4536 29.4068C15.4942 31.7974 15.5348 34.1841 15.5542 36.5689C15.5658 38.6189 15.5542 40.6712 15.5542 42.7212L15.7944 42.774C17.5367 40.5244 19.2796 38.2802 21.0219 36.0249C21.5407 35.3514 22.1912 34.7473 22.1215 33.7544C22.0964 33.3866 22.3438 33.0127 22.6284 32.7398C22.7455 32.6318 22.8366 32.4987 22.894 32.3501C22.9514 32.2014 22.9737 32.0411 22.9594 31.8824C22.9188 31.0422 22.9029 30.202 22.9184 29.3657C22.9261 28.9071 22.7716 28.7564 22.309 28.7564C20.2163 28.7641 18.1235 28.7618 16.0346 28.7095ZM46.4868 37.0923C45.0523 37.0923 43.8669 37.1175 42.686 37.0923C42.2544 37.0846 42.1479 37.2415 42.1479 37.6538C42.1614 39.1945 42.1479 40.7294 42.1479 42.2779L42.434 42.3462L46.4868 37.0923ZM42.3432 26.9243C42.1393 27.1748 42.0317 27.4902 42.0395 27.813C42.0589 29.1313 42.0766 30.4518 42.0766 31.772C42.0766 32.1476 42.1305 32.353 42.5874 32.3531C44.4825 32.3743 46.3758 32.4307 48.271 32.4907C48.6465 32.5043 48.8403 32.4378 48.8403 31.979V19.0669L48.4877 19.0122C46.4435 21.6515 44.3952 24.289 42.3432 26.9243ZM30.0737 28.7945C27.4893 28.7945 27.5063 28.7948 27.6108 31.354C27.6321 31.8533 27.7719 32.0277 28.271 32.0279C29.6861 32.0143 31.1039 32.0279 32.519 32.0279L32.5229 32.1421C33.2622 32.1421 34.0034 32.1595 34.7426 32.1421C35.5963 32.1208 36.7603 32.6086 37.2192 32.0396C37.6431 31.5189 37.2794 30.3844 37.3393 29.523C37.3838 28.8686 37.0816 28.8062 36.5415 28.8062C34.3868 28.8255 32.2302 28.7945 30.0737 28.7945ZM28.0336 13.7085C27.389 13.7047 27.4077 14.0027 27.4077 14.4654C27.4599 17.3982 27.52 20.3333 27.52 23.2681C27.522 23.9009 27.7102 24.0786 28.3393 24.0786C30.9469 24.0632 33.5626 23.972 36.1567 24.1656C37.9219 24.2932 39.0214 23.7324 40.0395 22.2886C42.0393 19.4564 44.2372 16.7788 46.3667 14.0357L46.2749 13.7241C40.1945 13.7241 34.1141 13.7337 28.0336 13.7085ZM17.5678 24.0171C19.3197 24.0171 20.851 24.0016 22.3803 24.0171C22.7404 24.021 22.8002 23.862 22.8002 23.5523V17.6011L22.5551 17.5669L17.5678 24.0171Z" fill="black"/>
</svg>
