<svg width="95" height="95" viewBox="0 0 95 95" fill="none" xmlns="http://www.w3.org/2000/svg">
<rect width="95" height="95" rx="20" fill="white"/>
<path d="M27.1019 83.7204V81.5617C27.0741 59.7302 27.0401 37.8954 27 16.0572C27 15.4089 27.2038 15.0765 27.7485 14.7573C31.334 12.6533 34.9039 10.5225 38.4582 8.36495C39.1265 7.96062 39.6277 7.87374 40.3562 8.19787C41.8983 8.90294 41.91 8.86618 41.8114 10.5453C41.7413 11.765 41.7129 12.988 41.631 14.2077C41.6026 14.6187 41.6878 14.9127 42.0804 15.0798C42.1053 15.0927 42.1293 15.1072 42.1523 15.1232C42.9342 15.5961 43.7111 16.4248 44.5031 16.4381C45.2466 16.4515 46.0068 15.6028 46.7586 15.1349C47.0313 14.9956 47.2884 14.8276 47.5255 14.6337C48.6449 13.5377 49.9715 13.7064 51.3349 13.9253C51.9514 14.0239 51.8044 14.4265 51.8044 14.7924C51.7943 20.3762 51.7815 25.9599 51.7659 31.5436C51.7659 33.6555 51.8027 35.7674 51.7308 37.8776C51.7058 38.6027 52.0249 39.017 52.5245 39.3813C53.2863 39.9276 54.2955 40.1699 54.618 41.2442C54.6781 41.4447 55.0507 41.5616 55.2863 41.702C63.4876 46.5617 71.6905 51.4209 79.8951 56.2795C80.1558 56.4332 80.4097 56.5986 80.7305 56.8025C79.3672 57.7013 78.0706 58.5818 76.7441 59.4156C76.1459 59.7931 75.9087 60.2342 75.9204 60.9727C76.0022 64.4981 76.0256 68.0267 76.0473 71.5554C76.0378 71.7595 76.0785 71.9628 76.1659 72.1475C76.2533 72.3322 76.3847 72.4926 76.5486 72.6147C77.683 73.5537 78.7824 74.5327 79.9118 75.4767C80.261 75.7675 80.3914 75.9245 79.8834 76.2135C76.9184 77.8966 73.9667 79.6002 71.0283 81.3245C70.5806 81.5884 70.3082 81.3746 69.9824 81.1908L52.5462 71.3265C52.3106 71.1929 52.0717 71.0642 51.8244 70.9289C51.6289 71.1795 51.7191 71.4301 51.7275 71.6623C51.8144 74.5762 51.6707 77.4934 52.0182 80.4022C52.1068 81.1474 51.9196 81.8357 50.989 82.2718C46.5531 84.3536 42.1673 86.544 37.7631 88.6926C37.4958 88.8229 37.2201 88.9348 37.0698 89C37.0698 86.7127 37.0464 84.4137 37.0865 82.1181C37.0982 81.5216 36.9712 81.1557 36.4182 80.8683C35.5828 80.4339 34.8092 79.5401 33.9989 79.5317C33.2287 79.5183 32.4451 80.3855 31.6698 80.8683C30.2012 81.7822 28.7326 82.7012 27.1019 83.7204Z" fill="black"/>
<path d="M73.436 61.1933V75.5821C73.0868 75.6639 72.8746 75.3999 72.629 75.2596C64.6093 70.6861 56.5895 66.1104 48.5698 61.5325C48.0452 61.2334 47.5673 60.8107 46.9391 60.7422C46.5398 60.6988 46.6284 60.4081 46.6317 60.1842C46.6768 56.3832 46.7236 52.5805 46.8205 48.741C46.8205 48.6842 47.3217 48.9398 47.5673 49.0752C54.9188 53.368 62.2657 57.6691 69.6082 61.9786C70.2515 62.3579 70.7778 62.4364 71.4327 62.0755C72.0309 61.748 72.6858 61.5191 73.436 61.1933Z" fill="#979797"/>
<path d="M77.2083 56.8476C75.2602 58.4516 73.0514 59.3538 70.8677 60.2978C70.5703 60.4281 70.3916 60.2794 70.1844 60.1575C62.7383 55.8045 55.2916 51.4527 47.8444 47.102C47.3632 46.8213 47.3014 46.6709 47.806 46.3418C49.4768 45.2524 51.1475 44.1464 52.7816 43.0002C53.2544 42.6661 53.5635 42.8198 53.9678 43.0604C61.3582 47.4512 68.7536 51.837 76.1541 56.2178L77.2083 56.8476Z" fill="#979797"/>
<path d="M73.3541 77.8341C72.4886 78.3354 71.6833 78.7748 70.9148 79.2543C70.609 79.4448 70.3985 79.3128 70.1579 79.1741C63.6235 75.4182 57.0206 71.7809 50.5029 67.9933C48.2557 66.6867 45.9701 65.4386 43.5608 64.1321C44.3711 63.4638 45.1297 62.8506 45.8848 62.2308C46.0703 62.0787 46.1622 62.2307 46.3059 62.3176C55.0574 67.3378 63.8128 72.3551 72.5722 77.3697C72.8044 77.505 73.0366 77.647 73.3541 77.8341Z" fill="#979797"/>
<path d="M42.3995 43.563C42.1054 43.3726 42.2006 43.0618 42.1906 42.8045C42.092 40.2566 42.0135 37.7086 41.8999 35.1607C41.8782 34.6778 42.0135 34.4105 42.463 34.1983C44.4924 33.2404 46.5118 32.2608 48.5212 31.2594C49.0842 30.9787 49.2279 31.1174 49.2279 31.7189C49.2279 33.7405 49.2558 35.7633 49.3115 37.7872C49.3295 37.9912 49.29 38.1961 49.1976 38.3789C49.1052 38.5617 48.9635 38.7149 48.7885 38.8214C48.0885 39.3143 47.4252 39.8573 46.7452 40.3802C45.6608 41.4746 44.3576 42.2899 43.1363 43.2105C42.9091 43.3809 42.6317 43.4177 42.3995 43.563Z" fill="#B2B2B2"/>
<path d="M49.4016 68.8907L42.1471 73.3166C41.9315 72.7686 41.9967 72.2941 41.99 71.8313C41.9566 69.6593 41.9566 67.5023 41.9031 65.3403C41.8848 64.6469 42.0619 64.6052 42.6299 64.9126C44.827 66.0988 47.0441 67.2517 49.2529 68.4095C49.4083 68.5398 49.6355 68.6468 49.4016 68.8907Z" fill="#B2B2B2"/>
<path d="M46.7787 40.9166C47.5088 40.4153 48.254 39.9325 48.9624 39.4012C49.32 39.1339 49.5923 39.067 49.9966 39.331C50.8838 39.9007 51.8027 40.4187 52.72 40.94C53.1093 41.1622 53.1143 41.3242 52.7384 41.5732C50.4962 43.0624 48.259 44.5611 46.0269 46.0693C45.6927 46.2948 45.4421 46.2647 45.1246 46.0592C44.3795 45.5747 43.6326 45.0902 42.8557 44.6625C42.3211 44.3701 42.3211 44.1195 42.7789 43.7836C43.4472 42.9482 44.4146 42.4971 45.2366 41.8572C45.7094 41.4896 46.1739 41.0887 46.7787 40.9166Z" fill="#B2B2B2"/>
<path d="M75.3172 74.135C75.7098 74.2169 75.8719 74.4558 76.0741 74.6362C77.3288 75.7206 77.3205 75.7139 75.8101 76.4424C75.4625 76.6094 75.3088 76.6094 75.3088 76.1784C75.3222 75.5167 75.3172 74.8601 75.3172 74.135Z" fill="#8E8E8E"/>
<path d="M46.7785 40.9166C45.5088 41.958 44.1727 42.9157 42.7787 43.7837C42.7417 43.7157 42.6868 43.6593 42.6199 43.6204C42.553 43.5815 42.4768 43.5617 42.3994 43.5631C43.8079 42.4471 45.2397 41.351 46.7434 40.3887C46.857 40.5524 46.1737 40.7746 46.7785 40.9166Z" fill="#121212"/>
<path d="M49.4019 68.8903C49.4654 68.6932 49.3367 68.5562 49.2532 68.4041C49.4553 68.3857 49.6341 68.4359 49.6608 68.6597C49.6826 68.8135 49.5489 68.8903 49.4019 68.8903Z" fill="#3A3A3A"/>
</svg>
