<svg width="95" height="95" viewBox="0 0 95 95" fill="none" xmlns="http://www.w3.org/2000/svg">
<rect width="95" height="95" rx="20" fill="white"/>
<path d="M84.3081 56.5796C84.2092 55.9607 83.727 56.3008 83.4608 56.299C76.5399 56.2558 69.6172 56.245 62.6945 56.2234C46.4552 56.1766 30.2141 56.131 13.9712 56.0867C13.6348 56.0867 13.2516 55.932 12.9547 56.2306C13.0483 56.3817 12.9547 56.4483 12.8306 56.4968C12.5985 56.522 12.3737 56.2108 12.1344 56.4825C12.0084 56.4375 11.9365 56.3673 12.0192 56.2288C11.7836 55.9391 11.4615 56.0885 11.1845 56.0867C9.44662 56.0705 7.70875 56.0453 5.96728 56.0867C5.24767 56.1065 4.97961 55.9338 5.0012 55.1548C5.08395 52.2283 5.12173 49.2989 5.11454 46.3665C5.11454 45.6289 5.30883 45.4472 6.05364 45.4436C18.9347 45.4028 31.8152 45.3398 44.6951 45.2547C59.7927 45.1683 74.8902 45.0706 89.9877 44.9614C90.8008 44.9614 91.0383 45.1413 90.9951 45.9707C90.8332 49.1946 90.7397 52.422 90.6461 55.6495C90.6317 56.1209 90.5508 56.3313 90.0111 56.3115C88.5449 56.2612 87.0768 56.272 85.6088 56.2576C85.4883 56.3511 85.4127 56.5094 85.2346 56.5184C84.8748 56.4591 84.6625 56.9286 84.2793 56.7955C84.2671 56.7597 84.2634 56.7216 84.2684 56.6842C84.2734 56.6467 84.287 56.6109 84.3081 56.5796Z" fill="black"/>
<path d="M41.6958 32.3303C42.7446 32.3303 43.6442 32.2871 44.5383 32.3464C45.1769 32.386 45.3424 32.1791 45.3371 31.5549C45.3047 26.6849 45.3227 21.8131 45.2831 16.9431C45.2831 16.2235 45.4198 15.9734 46.1988 16.0022C48.3792 16.0778 48.381 16.0382 48.381 18.2006C48.381 22.5921 48.399 26.9853 48.363 31.3768C48.363 32.0964 48.5699 32.2763 49.2625 32.2457C50.4247 32.1845 51.6013 32.2277 52.8948 32.2277L47.6146 42.1854C45.6069 38.8392 43.6711 35.6189 41.6958 32.3303Z" fill="#90AF14"/>
<path d="M12.1774 56.4103C12.3879 55.9984 12.593 56.0973 12.7962 56.4103C12.9347 56.6223 13.0585 56.8435 13.1668 57.0724C13.2394 57.2333 13.3399 57.3801 13.4637 57.506C13.4876 57.5211 13.5046 57.5451 13.511 57.5727C13.5174 57.6003 13.5127 57.6293 13.4979 57.6535C13.5267 58.0403 13.5428 58.4307 13.7551 58.7761C14.034 58.7203 14.0052 58.9326 14.034 59.0945C14.007 59.3949 14.0556 59.6648 14.347 59.8285C14.4911 60.0494 14.5622 60.3099 14.5503 60.5733C14.7302 60.773 14.5395 61.1382 14.8759 61.2587C15.3203 62.3993 15.8474 63.5093 16.1586 64.6985C15.8852 64.945 15.5434 64.846 15.2285 64.8784C14.5989 65.0781 13.9188 64.6499 13.3018 65.0277H12.0101C11.3678 64.8208 10.686 65.1033 10.0473 64.8694H9.54539C9.36599 64.943 9.1733 64.9785 8.97946 64.9739C8.78563 64.9692 8.59486 64.9245 8.41919 64.8424C8.52533 64.5492 8.37062 64.1822 8.67285 63.9429C8.86535 63.7198 8.90133 63.3924 9.15859 63.2143L9.18018 62.8761C9.45184 62.6512 9.3331 62.1924 9.69651 62.0233C9.61375 61.7301 9.86202 61.525 9.8944 61.2641C10.0941 61.0087 10.0905 60.6741 10.2272 60.3952L10.4323 60.0102C10.6094 59.7037 10.7593 59.3822 10.8803 59.0495C11.0332 58.6303 11.2869 58.2561 11.42 57.828C11.5075 57.5526 11.6578 57.3013 11.8589 57.094L11.8266 57.0562C11.8342 56.9294 11.8695 56.8059 11.9302 56.6943C11.9908 56.5827 12.0752 56.4857 12.1774 56.4103Z" fill="#919191"/>
<path d="M84.3459 56.862C84.6482 56.7144 84.6679 55.9624 85.2598 56.4302C85.4541 56.5435 85.4829 56.754 85.5567 56.9375C85.6574 57.1966 85.7114 57.4772 85.9291 57.6805L86.136 58.2472C86.1702 58.5674 86.2151 58.8841 86.4724 59.1197L86.6811 59.69C86.6863 59.9254 86.737 60.1576 86.8304 60.3737C86.9797 60.604 86.9923 60.9044 87.2046 61.0933C87.264 61.239 87.3251 61.3829 87.3845 61.5269C87.4619 61.8759 87.4763 62.2465 87.7443 62.5307L87.9242 62.9625C87.9828 63.3605 88.096 63.7486 88.2606 64.1157C88.4549 64.5942 88.3218 64.8533 87.7785 64.8587C87.1578 64.8587 86.5354 64.8587 85.9147 64.8587C85.6646 64.8587 85.4235 64.999 85.1681 64.9001C83.9088 64.8155 82.6494 64.8515 81.3901 64.8803C81.158 64.9504 81.0303 64.8605 80.9907 64.6266C81.0483 64.3226 81.2606 64.0743 81.3092 63.7667C81.4708 63.4334 81.6096 63.0896 81.7247 62.7376C81.8309 62.4767 81.9712 62.2321 82.0845 61.973C82.2267 61.6024 82.4443 61.266 82.5631 60.8936C82.6656 60.7281 82.716 60.5338 82.8059 60.3647C82.9471 60.1366 83.0516 59.8876 83.1154 59.6271C83.2089 59.4598 83.2575 59.2673 83.3475 59.1036C83.4882 58.8731 83.5931 58.6225 83.6587 58.3606C83.7558 58.1807 83.8062 58.0007 83.898 57.8208C84.0905 57.5294 84.0689 57.1246 84.3459 56.862Z" fill="#919191"/>
<path d="M81.2212 64.83C82.5615 64.731 83.9018 64.5134 85.2384 64.8624C85.0891 65.0315 84.8516 64.8876 84.6987 65.0135H84.159C83.1785 64.8048 82.1873 65.1502 81.2212 64.83Z" fill="#171717"/>
<path d="M81.2206 64.8298C82.1885 64.9989 83.187 64.6679 84.1423 65.0097H80.5442C80.6827 64.7632 80.8033 64.5437 80.9238 64.3261C81.0857 64.3063 81.1954 64.3261 81.1037 64.5329L81.2206 64.8298Z" fill="#0F0F0F"/>
<path d="M13.3074 65.0243C13.4747 64.4468 13.9478 64.7239 14.2789 64.7203C14.5595 64.7203 14.8402 64.8876 15.128 64.7203C15.45 64.8876 15.826 64.6681 16.1427 64.8642C15.2126 65.1898 14.2555 65.0207 13.3074 65.0243Z" fill="#686868"/>
<path d="M85.7852 64.7292C86.377 64.713 86.9743 64.6501 87.5626 64.6914C88.1509 64.7328 88.2966 64.5223 88.0681 64.0024C88.0034 63.8225 88.0879 63.7703 88.248 63.8027C88.4082 64.1499 88.5809 64.4935 88.4963 64.8965C87.6562 65.0333 86.8124 64.9325 85.9777 64.9505C85.8481 64.9541 85.7852 64.8677 85.7852 64.7292Z" fill="black"/>
<path d="M85.7851 64.729C86.6846 65.0528 87.6075 64.6912 88.5052 64.8963C87.2459 65.0942 85.9596 65.0384 84.6841 65.0204C84.8298 64.8405 85.0439 64.8783 85.2238 64.8693L85.7851 64.729Z" fill="#232323"/>
<path d="M82.687 60.9171C82.5984 61.3175 82.4282 61.6954 82.1869 62.0271C82.0717 62.0091 82.0591 61.9101 82.0286 61.8274C82.0466 61.3956 82.3272 61.0844 82.5269 60.7354C82.5651 60.7524 82.5991 60.7774 82.6267 60.8088C82.6544 60.8401 82.6749 60.8771 82.687 60.9171Z" fill="#121212"/>
<path d="M10.0457 64.8712C10.6969 64.9558 11.3769 64.6913 12.0084 65.0295C11.3625 64.9558 10.6789 65.2796 10.0457 64.8712Z" fill="#181818"/>
<path d="M81.8775 62.7376C81.7335 63.0878 81.5884 63.4386 81.4421 63.79C81.273 63.8206 81.1704 63.79 81.2622 63.5867C81.317 63.2718 81.4452 62.9741 81.6364 62.7178C81.6532 62.7026 81.6729 62.6909 81.6944 62.6836C81.7159 62.6763 81.7386 62.6735 81.7612 62.6754C81.7838 62.6772 81.8058 62.6837 81.8258 62.6944C81.8458 62.7051 81.8634 62.7198 81.8775 62.7376Z" fill="black"/>
<path d="M11.3734 57.8748C11.4399 58.3804 11.2222 58.7744 10.8678 59.1036L10.8013 59.1324C10.808 58.8944 10.8626 58.6603 10.9618 58.4439C11.0611 58.2276 11.2029 58.0334 11.3788 57.873L11.3734 57.8748Z" fill="#202020"/>
<path d="M84.3458 56.862C84.3692 57.2578 84.1893 57.5816 83.986 57.8965C83.8691 57.8821 83.8547 57.7813 83.8169 57.7004C83.9428 57.31 83.9968 56.8872 84.3062 56.5796L84.3458 56.862Z" fill="#222222"/>
<path d="M13.7606 58.7759C13.4385 58.4557 13.2209 58.1121 13.5033 57.6533C13.7012 57.9933 13.9225 58.3531 13.7606 58.7759Z" fill="#2F2F2F"/>
<path d="M87.2062 61.1023C86.7169 61.0879 86.8212 60.6453 86.6809 60.3827C86.7511 60.3053 86.7637 60.1776 86.8842 60.1416C87.0915 60.4191 87.2044 60.7559 87.2062 61.1023Z" fill="#303030"/>
<path d="M87.7461 62.5395C87.0949 62.3938 87.2928 61.9476 87.3863 61.5356C87.6186 61.8187 87.7457 62.1734 87.7461 62.5395Z" fill="#303030"/>
<path d="M81.8773 62.7377L81.6309 62.7179C81.6309 62.3581 81.9151 62.1332 82.0284 61.8274L82.1868 62.0271C82.0842 62.2646 81.9799 62.5002 81.8773 62.7377Z" fill="black"/>
<path d="M10.8009 59.1325L10.8674 59.1038C10.9178 59.5013 10.8279 59.8234 10.4321 60.0159C10.4085 59.8491 10.4303 59.679 10.4952 59.5236C10.5601 59.3681 10.6657 59.233 10.8009 59.1325Z" fill="#3C3C3C"/>
<path d="M13.1038 57.1729C12.9365 56.9462 12.7296 56.7357 12.7926 56.4155C12.8447 56.3525 12.8987 56.2914 12.9509 56.2356C13.1632 56.4407 13.1902 56.7231 13.2711 56.984C13.2333 57.0542 13.2189 57.1549 13.1038 57.1729Z" fill="#2E2E2E"/>
<path d="M85.9308 57.6805C85.4522 57.6535 85.571 57.2254 85.436 56.9609C85.4918 56.8943 85.5008 56.781 85.6159 56.7666C85.824 57.0253 85.9354 57.3485 85.9308 57.6805Z" fill="#2B2B2B"/>
<path d="M81.257 63.5867L81.4369 63.79C81.4084 64.0699 81.2933 64.3341 81.1076 64.5456L80.9277 64.3387C81.0303 64.0832 80.9979 63.7738 81.257 63.5867Z" fill="#212121"/>
<path d="M86.4741 59.1196C85.9218 58.9973 85.9776 58.6411 86.1377 58.2471C86.2506 58.3617 86.3387 58.4983 86.3966 58.6484C86.4545 58.7985 86.4809 58.9589 86.4741 59.1196Z" fill="#2A2A2A"/>
<path d="M83.2377 59.6613C83.2151 59.9394 83.0983 60.2015 82.9067 60.4043C82.7916 60.3917 82.7772 60.2892 82.7268 60.2118C82.8114 59.9509 82.7934 59.6469 83.047 59.458C83.1676 59.4778 83.1838 59.5857 83.2377 59.6613Z" fill="#242424"/>
<path d="M83.7809 58.407C83.7567 58.6859 83.6388 58.9484 83.4463 59.1518C83.3312 59.1374 83.3168 59.0348 83.2754 58.9557C83.3107 58.6852 83.426 58.4315 83.6064 58.2271C83.6857 58.2621 83.7483 58.3266 83.7809 58.407Z" fill="#252525"/>
<path d="M88.2623 63.8026L88.0824 64.0023C87.7874 63.6946 87.809 63.3402 87.9349 62.9714C88.124 63.2099 88.2379 63.4992 88.2623 63.8026Z" fill="#303030"/>
<path d="M12.1775 56.4105C12.0893 56.6389 12.0587 56.9016 11.8177 57.0527C11.5478 56.6929 11.8537 56.4824 12.0102 56.2288L12.1775 56.4105Z" fill="#323232"/>
<path d="M10.2254 60.4006C10.3081 60.7604 10.2811 61.0861 9.89253 61.2696C9.83316 60.9134 9.99868 60.6453 10.2254 60.4006Z" fill="#343434"/>
<path d="M14.3524 59.8287C13.8469 59.755 13.8127 59.4833 14.0394 59.0947L14.3524 59.8287Z" fill="#2D2D2D"/>
<path d="M9.69674 62.0288C9.48086 62.2861 9.5978 62.7484 9.18042 62.8816C9.19661 62.5038 9.19301 62.1134 9.69674 62.0288Z" fill="#383838"/>
<path d="M9.15884 63.2195C9.0401 63.4893 9.08867 63.8725 8.6731 63.9481C8.75045 63.6477 8.69648 63.2609 9.15884 63.2195Z" fill="#4B4B4B"/>
<path d="M8.42662 64.8459L9.55281 64.8729C9.19301 65.2615 8.74684 65.0744 8.32587 65.0205C8.318 65.0094 8.3125 64.9968 8.30972 64.9835C8.30693 64.9702 8.30692 64.9564 8.30968 64.9431C8.34579 64.9074 8.38491 64.8749 8.42662 64.8459Z" fill="#343434"/>
<path d="M11.3732 57.8749C11.3732 57.5151 11.3534 57.1463 11.8535 57.0923C11.7689 57.3963 11.6898 57.7076 11.3732 57.8749Z" fill="#212121"/>
<path d="M82.7269 60.2119L82.9069 60.4044L82.6892 60.9171C82.6352 60.856 82.5812 60.7966 82.5291 60.7372L82.7269 60.2119Z" fill="#010101"/>
<path d="M83.2753 58.9561L83.4462 59.1521C83.3779 59.3213 83.3077 59.4922 83.2375 59.6613L83.0576 59.458C83.0573 59.3638 83.0764 59.2706 83.1139 59.1842C83.1514 59.0978 83.2063 59.0202 83.2753 58.9561Z" fill="black"/>
<path d="M16.1426 64.866C15.808 64.7959 15.4356 64.9884 15.1279 64.7221L16.1642 64.6987L16.1426 64.866Z" fill="#4A4A4A"/>
<path d="M83.7807 58.4072C83.7232 58.346 83.6638 58.2867 83.6008 58.2273C83.6728 58.0474 83.743 57.8765 83.8131 57.7002L83.9822 57.8963C83.9175 58.0672 83.8491 58.2363 83.7807 58.4072Z" fill="black"/>
<path d="M85.6049 56.763L85.425 56.9573C85.3675 56.7774 85.3081 56.6065 85.2451 56.4302L85.6049 56.2646V56.763Z" fill="black"/>
<path d="M13.1042 57.1731L13.2716 56.9788L13.4641 57.5059C13.1708 57.5868 13.1042 57.4213 13.1042 57.1731Z" fill="#292929"/>
<path d="M14.8816 61.2589C14.3635 61.2247 14.574 60.8451 14.556 60.5735C14.8475 60.7156 14.6945 61.0682 14.8816 61.2589Z" fill="#323232"/>
<path d="M86.8838 60.1379L86.6841 60.379C86.5978 60.1487 86.4449 59.9202 86.6841 59.6899C86.8838 59.7799 86.8515 59.9724 86.8838 60.1379Z" fill="#202020"/>
<path d="M89.8671 46.2568V48.153H89.7771V46.2334L89.8671 46.2568Z" fill="#101010"/>
</svg>
