<svg width="95" height="95" viewBox="0 0 95 95" fill="none" xmlns="http://www.w3.org/2000/svg">
<rect width="95" height="95" rx="20" fill="white"/>
<path d="M47.2402 13C47.9256 13 48.5895 13.2415 49.1143 13.6821L79.2312 39.0187C79.7458 39.3689 80.1346 39.8748 80.341 40.4619C80.5473 41.0494 80.5604 41.6875 80.3777 42.2826C80.195 42.8777 79.8263 43.3985 79.3258 43.7687C78.8257 44.1393 78.2197 44.3394 77.5969 44.3405H73.1479V78.1624C73.1475 80.015 72.4115 81.7916 71.1019 83.102C69.792 84.412 68.0161 85.1487 66.1634 85.1501H56.2648V65.3526C56.2641 64.7357 56.0188 64.1442 55.5824 63.7078C55.1459 63.2717 54.5545 63.0268 53.9371 63.0264H40.5476C39.9303 63.0264 39.3384 63.2714 38.9017 63.7074C38.4649 64.1438 38.2192 64.7353 38.2185 65.3526V85.1501H28.3232C26.4701 85.1494 24.6928 84.4134 23.3824 83.1031C22.0721 81.7927 21.3361 80.0154 21.3354 78.1624V44.3405H16.9107C16.3137 44.3402 15.7313 44.1564 15.2422 43.8139C14.7531 43.4717 14.3808 42.9872 14.1762 42.4263C13.9716 41.8654 13.9445 41.2547 14.0984 40.6778C14.2522 40.1008 14.5798 39.5854 15.0364 39.2007L45.366 13.6821C45.8909 13.2415 46.5548 13 47.2402 13Z" fill="#90AF13"/>
</svg>
