<svg width="95" height="95" viewBox="0 0 95 95" fill="none" xmlns="http://www.w3.org/2000/svg">
<rect width="95" height="95" rx="20" fill="white"/>
<path d="M71.7716 62.9698C72.6307 63.4318 72.4971 63.8622 71.8848 64.5228C69.6582 66.9349 67.452 69.3767 65.3127 71.8686C64.6837 72.5996 64.2959 72.6497 63.8042 71.8445C61.2937 69.1596 59.275 66.0832 56.9835 63.2258C54.2003 59.7598 51.3354 56.3773 48.3333 53.1005C46.0424 50.5944 43.634 48.2089 41.1081 45.944C37.9427 43.0989 34.6715 40.3813 31.2945 37.7911C28.3703 35.5459 25.2791 33.5235 22.5738 30.9945C21.9003 30.6234 21.9986 30.2783 22.4755 29.7569C24.8257 27.1864 27.1494 24.5956 29.4465 21.9843C29.8269 21.5557 30.1145 21.3813 30.4559 21.9843C32.6397 24.2832 34.4303 26.8957 36.3785 29.3839C39.3633 33.1951 42.4904 36.8837 45.7598 40.4499C47.8861 42.7786 50.1479 44.955 52.4636 47.074C56.3972 50.6711 60.4903 54.0815 64.7431 57.305C67.1366 59.116 69.5524 60.9213 71.7716 62.9698Z" fill="black"/>
<path d="M22.5664 30.9944C24.7188 32.2672 26.6818 33.811 28.7062 35.262C42.4051 45.1052 53.755 57.2344 63.3756 71.0428C63.5463 71.2877 63.8061 71.4956 63.8042 71.8388C63.3941 71.7219 63.1437 71.3954 62.8635 71.1152C60.3512 68.6103 57.8413 66.1048 55.334 63.5987C47.2423 55.5571 39.1784 47.4895 31.0366 39.4999C28.4631 36.9746 25.9137 34.4233 23.3364 31.9017C23.0525 31.629 22.726 31.3803 22.5664 30.9944Z" fill="#C8C8C8"/>
<path d="M71.7715 62.9697C69.2796 61.4241 67.0011 59.5816 64.6595 57.8282C51.6439 48.1207 40.3001 36.3538 31.0755 22.9917C30.8491 22.6633 30.6506 22.3164 30.4409 21.9768C30.8361 22.1215 31.0792 22.4537 31.3687 22.7357C35.1056 26.4615 38.7905 30.2411 42.585 33.913C48.5948 39.7318 54.4043 45.7491 60.4104 51.5697C63.9804 55.0283 67.4612 58.5815 71.0052 62.0549C71.2891 62.3314 71.6156 62.58 71.7715 62.9697Z" fill="#C8C8C8"/>
<path d="M10.415 19.5722C9.38706 16.1952 8.39068 12.9649 7.42954 9.7252C7.26997 9.18712 6.76343 8.50616 7.13081 8.11466C7.43511 7.78995 8.15318 8.24454 8.68013 8.37628C11.7231 9.13702 14.7654 9.90642 17.8072 10.6845C18.0892 10.7587 18.5197 10.6975 18.6217 10.9999C18.7368 11.332 18.3119 11.4749 18.117 11.6883C17.4806 12.3878 16.2616 12.9482 16.2746 13.7293C16.295 14.4028 17.4379 15.0523 18.0985 15.6961C20.2397 17.7854 22.3772 19.8783 24.5425 21.9416C24.9749 22.3535 25.0454 22.6151 24.5518 23.0196C23.9117 23.5429 23.3532 24.5281 22.6963 24.5782C22.0395 24.6283 21.481 23.5856 20.8891 23.0122C18.7015 20.8803 16.5084 18.7521 14.356 16.5923C13.9014 16.1358 13.6472 16.1136 13.213 16.6108C12.3447 17.6017 11.4077 18.5294 10.415 19.5722Z" fill="#91B014"/>
<path d="M85.4518 75.264L88.8566 86.6918L76.8647 83.5932C77.6904 82.8065 78.3881 82.0884 79.1451 81.439C79.6349 81.016 79.6349 80.7581 79.1562 80.2979C76.5586 77.7986 74.0054 75.2455 71.4041 72.7443C70.879 72.2396 70.699 71.913 71.3707 71.4009C71.9774 70.9389 72.484 69.9945 73.0833 69.9592C73.7698 69.9184 74.2615 70.9074 74.8274 71.4566C76.9965 73.5681 79.1599 75.6722 81.264 77.8413C81.8838 78.4795 82.1918 78.3738 82.7484 77.7875C83.5778 76.8987 84.5259 76.1157 85.4518 75.264Z" fill="#91B014"/>
</svg>
