<svg width="95" height="95" viewBox="0 0 95 95" fill="none" xmlns="http://www.w3.org/2000/svg">
<rect width="95" height="95" rx="20" fill="white"/>
<path d="M7.72495 59.8634C9.03848 59.5951 10.2901 60.1505 11.6055 60.036C12.9641 59.9178 14.3414 60.0173 15.7112 60.0248C19.1652 60.041 22.6191 60.0617 26.0731 60.0867C26.4127 60.0867 26.7486 60.1411 27.0864 60.1711C26.621 60.1937 26.1481 60.2331 25.6903 60.2331C20.5062 60.2218 15.3209 60.2068 10.1343 60.188H9.08352L14.0899 71.6026C10.3727 71.9573 6.75669 71.6739 3 71.9779C3.90634 69.9569 4.74324 68.0899 5.58202 66.2228C6.42081 64.3557 7.22206 62.5205 8.09649 60.6966C8.35357 60.1655 8.11526 60.021 7.72495 59.8634Z" fill="#919191"/>
<path d="M83.144 60.3929L83.7877 59.4922L84.2718 60.3948C85.7529 63.7899 87.2335 67.1857 88.7134 70.5821C89.1656 71.6179 89.175 71.6367 88.0585 71.6761C84.9717 71.7812 81.8849 71.8488 78.7981 71.9688C78.0475 71.9989 78.1545 71.7268 78.3815 71.2314C79.8827 67.9463 81.3689 64.6556 82.84 61.3593C82.9714 61.0459 83.2116 60.7644 83.144 60.3929Z" fill="#919191"/>
<path d="M47.4706 17.4161C47.9997 16.8965 48.2377 16.8271 48.7949 17.4161C61.1033 30.4013 73.4257 43.3767 85.7617 56.3419C86.6791 57.31 87.4148 58.4486 88.2421 59.503C88.5067 59.8408 88.43 59.9685 88.0117 60.0079C86.7695 60.1261 85.5272 60.2672 84.2851 60.3986C83.9098 60.2597 83.8117 59.9483 83.7704 59.6124C83.6748 59.9445 83.6843 60.3759 83.1572 60.3966C72.0986 60.3403 61.04 60.2854 49.9814 60.2316C49.7374 60.2316 49.4407 60.2112 49.2568 60.3331C48.3186 60.9542 47.4098 60.9198 46.4716 60.3155C46.284 60.1959 45.9916 60.2198 45.748 60.2198C39.5319 60.2011 33.3143 60.1862 27.0956 60.1749C26.7618 60.053 26.4146 60.1134 26.0751 60.1134H10.7968C9.75537 60.1059 8.72283 60.1674 7.72455 59.8634C7.26116 59.7996 6.78605 59.7553 6.33392 59.6671C6.0469 59.6111 5.61196 59.7942 5.50678 59.4513C5.41858 59.1642 5.79726 58.9382 5.97553 58.6905C7.16892 57.0412 8.58269 55.5952 10.0331 54.171C22.5267 41.9339 35.0059 29.682 47.4706 17.4161ZM66.3642 42.1505C65.8463 41.6026 65.6623 41.9924 65.3808 42.3058L53.747 55.253C53.5913 55.4256 53.445 55.606 53.1562 55.9454H79.3818C79.3246 55.8457 79.2598 55.7503 79.1884 55.6603C74.9101 51.1568 70.62 46.6671 66.3642 42.1505ZM29.4697 42.0245C28.98 41.4936 28.783 41.8106 28.4697 42.1183C24.0125 46.4892 19.5583 50.8639 15.1074 55.2423C14.9723 55.3755 14.7092 55.4583 14.8124 55.8204H42.3066C42.1696 55.6591 42.0829 55.5457 41.9853 55.4425C37.8103 50.9729 33.6221 46.5147 29.4697 42.0245ZM45.787 25.2482C45.7214 25.2654 45.6584 25.2915 45.5995 25.3253C41.2349 29.6174 36.8637 33.8979 32.4853 38.1661C32.0838 38.5545 32.2671 38.7329 32.5429 39.0275C35.6128 42.3113 38.6816 45.5952 41.749 48.879C43.023 50.2432 44.3026 51.6037 45.7812 53.1818L45.787 25.2482ZM50.6962 25.712C50.5686 25.5732 50.4818 25.3027 50.1328 25.4415V52.6378L50.3281 52.7892C50.3649 52.6712 50.4186 52.5586 50.4863 52.4552C54.4755 47.9843 58.4839 43.5286 62.5107 39.089C62.9193 38.6371 62.8046 38.4309 62.4501 38.0558C58.5321 33.9401 54.6143 29.8252 50.6962 25.712Z" fill="black"/>
</svg>
