<svg width="24" height="22" viewBox="0 0 24 22" fill="none" xmlns="http://www.w3.org/2000/svg">
<path d="M3.49811 21.5C2.79958 21.5 2.2016 21.2715 1.70416 20.8146C1.20673 20.3576 0.958008 19.8083 0.958008 19.1667V2.83333C0.958008 2.19167 1.20673 1.64236 1.70416 1.18542C2.2016 0.728472 2.79958 0.5 3.49811 0.5H21.2788C21.9773 0.5 22.5753 0.728472 23.0727 1.18542C23.5702 1.64236 23.8189 2.19167 23.8189 2.83333V19.1667C23.8189 19.8083 23.5702 20.3576 23.0727 20.8146C22.5753 21.2715 21.9773 21.5 21.2788 21.5H3.49811ZM14.9286 19.1667V2.83333H3.49811V19.1667H14.9286Z" fill="black"/>
</svg>
