<svg width="24" height="21" viewBox="0 0 24 21" fill="none" xmlns="http://www.w3.org/2000/svg">
<path d="M2.99078 21C2.29226 21 1.49744 20.9569 1 20.5C0.502564 20.0431 0.450684 19.3083 0.450684 18.6667V2.33333C0.450684 1.69167 0.502564 0.956944 1 0.5C1.49744 0.0430555 2.29226 0 2.99078 0H20.7715C21.47 0 22.2564 0.0430555 22.7538 0.5C23.2513 0.956944 23.5 1.69167 23.5 2.33333L23.3116 18.6667C23.3116 19.3083 23.4974 20.0431 23 20.5C22.5026 20.9569 21.47 21 20.7715 21H2.99078ZM16.9613 19.5H22.0004V1.5H16.9613V10.5V19.5ZM15.4927 19.5L15.4927 10.5L15.4927 1.5H2.00037L2.00037 19.5H15.4927Z" fill="#090909"/>
</svg>
