<svg width="95" height="95" viewBox="0 0 95 95" fill="none" xmlns="http://www.w3.org/2000/svg">
<rect width="95" height="95" rx="20" fill="white"/>
<path d="M38.7044 64.9773C38.6858 54.0684 38.663 43.1601 38.6357 32.2524C38.6357 31.6958 38.7174 31.462 39.3649 31.4694C42.4153 31.509 45.4657 31.509 48.5161 31.4694C49.1488 31.4694 49.2583 31.6661 49.2583 32.2431C49.2305 36.6183 49.236 40.9935 49.2305 45.3687C49.2305 45.647 49.2397 45.9254 49.2472 46.2C49.2472 46.226 49.2769 46.2519 49.2936 46.2761L49.4383 46.1165C49.4619 46.1037 49.488 46.0962 49.5149 46.0945C49.5417 46.0928 49.5685 46.0969 49.5936 46.1067C49.6186 46.1164 49.6413 46.1314 49.66 46.1507C49.6786 46.17 49.6929 46.1932 49.7018 46.2185C49.5496 47.5804 49.5162 48.9498 49.403 50.3154C49.262 50.7681 49.3065 51.2339 49.3047 51.694C49.3047 59.0021 49.3047 66.3108 49.3047 73.6201C49.3047 74.3289 49.1748 75.034 49.2602 75.7427C49.2342 76.1027 49.2094 76.4633 49.1859 76.8245C49.0505 78.205 49.121 79.5929 49.1414 80.9752C49.1507 81.6691 48.8687 81.94 48.2341 81.9344C45.3692 81.9103 42.5044 81.9549 39.6396 81.9344C38.8974 81.9344 38.7471 81.5467 38.7508 80.8713C38.7749 75.9116 38.7656 70.9501 38.7508 65.9885C38.7656 65.649 38.825 65.3076 38.7044 64.9773Z" fill="black"/>
<path d="M49.1955 50.1892C49.2363 48.818 49.1435 47.4338 49.6352 46.1072C49.5369 45.7027 49.7762 45.4151 49.9729 45.1127L49.9488 45.0663C50.0115 44.6323 50.1437 44.2113 50.3403 43.8194L50.3218 43.5559C50.3644 43.2219 50.5333 42.9288 50.6093 42.6041C50.7045 42.4168 50.7785 42.2195 50.8302 42.0159C50.8895 41.6337 51.1159 41.3034 51.1734 40.9212C51.235 40.5783 51.3276 40.2417 51.4499 39.9155C51.5556 39.626 51.6354 39.3254 51.7393 39.0341C51.9008 38.7131 51.9805 38.3532 52.1921 38.0545L52.1698 38.0322C52.2072 37.7289 52.2884 37.4326 52.411 37.1527C52.5094 36.8632 52.5966 36.5664 52.6838 36.2732C52.8136 35.9411 52.8916 35.5885 53.1198 35.3009L53.1309 34.7925C53.4167 34.5179 53.4371 34.0986 53.6727 33.7943C53.6727 33.631 53.6876 33.4659 53.6969 33.3007C53.9036 33.0488 54.0821 32.7751 54.2294 32.4843C54.1976 32.443 54.1684 32.3996 54.1422 32.3545C54.1422 32.3545 54.1793 32.3155 54.1997 32.2932C54.812 31.9463 55.4762 32.2116 56.1127 32.1337C56.4374 32.0947 56.7714 32.1745 57.0961 32.0817C57.4882 32.0347 57.8834 32.0192 58.278 32.0353C59.5768 32.013 60.8905 32.0836 62.1968 31.9982C62.451 31.9667 62.5678 32.1114 62.6365 32.3322C62.4992 32.9538 61.9964 33.3954 61.809 34.0021C61.6791 34.9298 61.0519 35.6368 60.7124 36.4717C60.4155 36.6462 60.3172 36.9486 60.2077 37.2455C60.1223 37.5089 59.909 37.7372 59.9813 38.0452C59.9127 38.2047 59.8422 38.3662 59.7735 38.5276C59.562 38.7521 59.369 38.984 59.4284 39.3255L59.1872 39.8561C59.0849 39.9585 59.0043 40.0805 58.9502 40.2147C58.896 40.3489 58.8693 40.4926 58.8718 40.6373L58.8996 40.6855L58.8625 40.7282C58.7461 40.834 58.653 40.9629 58.5891 41.1066C58.5252 41.2504 58.4919 41.4058 58.4914 41.5631L58.5211 41.6114L58.4821 41.6541C58.2632 41.9398 58.0201 42.2107 58.111 42.6208C58.0479 42.7933 57.983 42.9677 57.9255 43.1421C57.7998 43.2675 57.7025 43.4183 57.6401 43.5844C57.5777 43.7505 57.5516 43.9281 57.5636 44.1051L57.3484 44.6506C57.0942 44.8807 57.059 45.2184 56.9272 45.5079C56.8701 45.7525 56.7661 45.9837 56.6211 46.1888L56.6415 46.2222C56.6018 46.614 56.5029 46.9975 56.3483 47.3596C56.2518 47.766 56.0329 48.1463 56.0885 48.5842C56.0986 48.5934 56.1062 48.605 56.1104 48.618C56.1146 48.6309 56.1153 48.6448 56.1125 48.6581C56.1097 48.6714 56.1034 48.6838 56.0943 48.6939C56.0852 48.7041 56.0737 48.7117 56.0607 48.716C55.7527 49.011 55.7471 49.4118 55.6896 49.7903V50.0222C55.5486 50.1768 55.4454 50.362 55.3881 50.5632C55.3308 50.7644 55.321 50.9762 55.3594 51.1819L55.3853 51.2431L55.3408 51.2914C55.0792 51.5567 55.0996 51.9389 54.9456 52.2488C54.9122 52.5475 54.7359 52.8166 54.7712 53.1283V53.3435C54.5281 53.6367 54.5003 54.0096 54.4001 54.3566C54.328 54.6401 54.2407 54.9194 54.1385 55.1934C54.1644 55.4588 53.9807 55.6666 53.9529 55.9133C53.9919 56.1713 53.836 56.3791 53.7674 56.611C53.8434 56.8856 53.5725 57.112 53.6616 57.3866V57.6018C53.4185 57.9006 53.387 58.2754 53.2905 58.6279C53.2126 58.9173 53.1241 59.2037 53.0252 59.487C53.0252 59.8414 52.8229 60.1568 52.8211 60.5112C52.7431 60.9788 52.4945 61.4167 52.5817 61.9102C52.5905 61.9196 52.5968 61.931 52.6002 61.9435C52.6036 61.9559 52.604 61.9689 52.6013 61.9815C52.5985 61.9941 52.5928 62.0058 52.5845 62.0157C52.5763 62.0256 52.5658 62.0333 52.5539 62.0382C52.2811 62.3518 52.2941 62.7804 52.1104 63.133C52.1642 63.4503 51.9564 63.7341 51.9917 64.0496C51.9917 64.1238 51.9917 64.1999 51.9917 64.2741C51.8104 64.5034 51.7001 64.7807 51.6744 65.0719C51.5872 65.7919 51.2532 66.4635 51.2569 67.202C51.2569 67.2744 51.2569 67.3467 51.2569 67.4191C51.0106 67.7934 50.8814 68.2327 50.8858 68.6808V68.8961C50.5426 69.3432 50.5147 69.8646 50.5426 70.3971C50.5593 70.4224 50.5659 70.453 50.5611 70.4829C50.5563 70.5128 50.5404 70.5398 50.5166 70.5586C50.2678 70.9345 50.1384 71.3769 50.1455 71.8277V72.0522C49.8653 72.3287 49.9043 72.709 49.8208 73.0504C49.6839 73.4804 49.5773 73.9193 49.5016 74.3641C49.459 74.5051 49.42 74.7148 49.2289 74.5348C49.0378 74.3548 49.151 74.1266 49.151 73.9188C49.151 66.1605 49.151 58.4015 49.151 50.642C49.1351 50.4896 49.1502 50.3356 49.1955 50.1892Z" fill="#B2B2B2"/>
<path d="M56.5244 26.6916L49.3456 19.0155C50.3494 18.83 51.1844 18.6445 52.0212 18.4997C52.409 18.4292 52.602 18.2789 52.5556 17.8262C52.2661 14.9799 51.6278 12.2449 50.0488 9.80315C47.902 6.48186 44.7978 5.92151 41.6009 8.28352C40.0033 9.46174 38.8715 11.0315 37.9011 12.7274C36.5945 15.0341 35.6023 17.5052 34.9509 20.075C34.7913 20.6929 34.5798 21.2607 33.8933 21.4722C32.8097 21.8099 31.7539 20.8989 32.0508 19.7726C33.2438 15.2304 34.9657 10.9294 38.2332 7.43C39.9829 5.55598 42.0889 4.31838 44.7273 4.04563C47.4809 3.76174 49.6685 4.81565 51.4107 6.84182C53.6726 9.46545 54.6968 12.6531 55.3239 15.9893C55.6356 17.6406 55.6041 17.6462 57.2035 17.2603C57.6525 17.1527 58.109 17.0747 58.5487 16.9337C59.187 16.7482 59.2909 16.9059 59.1054 17.5367C58.2444 20.5203 57.4187 23.5169 56.5244 26.6916Z" fill="#90AF14"/>
<path d="M47.9633 21.7096C46.5346 24.4056 45.1467 27.0274 43.6567 29.8365L38.8325 21.8079C39.6508 21.8079 40.3484 21.7671 41.0405 21.8209C41.651 21.8673 41.8235 21.6688 41.818 21.0546C41.7827 17.2342 41.818 13.4138 41.7567 9.59338C41.7437 8.71203 41.9423 8.3298 42.857 8.50607C43.0412 8.53804 43.2295 8.53804 43.4137 8.50607C44.0983 8.40402 44.2913 8.66564 44.2857 9.36515C44.2486 13.154 44.295 16.9447 44.2468 20.7336C44.2356 21.5741 44.4769 21.7968 45.284 21.7207C46.1282 21.6465 46.9873 21.7096 47.9633 21.7096Z" fill="#90AF14"/>
<path d="M38.7046 64.9773C38.8753 65.2964 38.803 65.6434 38.8048 65.9774C38.8271 70.9111 38.8549 75.8429 38.8438 80.7766C38.8438 81.4464 38.9811 81.6784 39.6992 81.6672C42.5343 81.6227 45.3707 81.6227 48.2083 81.6672C48.9171 81.6784 49.0804 81.4576 49.0841 80.7803C49.0841 79.4629 48.9301 78.1381 49.1917 76.83C49.2084 78.2142 49.2474 79.5984 49.227 80.9844C49.227 81.5077 49.3736 81.6747 49.9024 81.6598C51.1326 81.6227 52.3683 81.6839 53.5985 81.632C54.2423 81.6041 54.6171 81.7749 55.0272 82.3315C56.2481 83.9921 57.5933 85.5619 58.881 87.1743C59.0795 87.4229 59.4877 87.7309 59.1371 88.0296C58.7084 88.3896 58.5136 87.8441 58.3058 87.5992C57.0194 86.0233 55.7434 84.4399 54.478 82.8492C54.2572 82.5727 54.0549 82.363 53.6541 82.3686C52.2143 82.389 50.7726 82.3686 49.0878 82.3686C49.6445 82.9419 50.0675 83.3668 50.4869 83.788C51.6001 84.9013 52.7134 86.0053 53.8137 87.1279C54.0438 87.3635 54.5559 87.6177 54.2034 88.0037C53.8508 88.3896 53.5614 87.8831 53.3313 87.6567C51.7708 86.1204 50.2327 84.5655 48.6796 83.018C48.4421 82.7805 48.1731 82.5764 47.9189 82.3575C46.3829 82.2294 44.8386 82.2387 43.3043 82.3853C44.6032 84.0552 46.2564 85.393 47.6962 86.9312C47.8818 87.1334 48.0877 87.3209 48.2659 87.5342C48.2997 87.566 48.3267 87.6044 48.3452 87.647C48.3637 87.6896 48.3732 87.7355 48.3732 87.7819C48.3732 87.8284 48.3637 87.8743 48.3452 87.9169C48.3267 87.9595 48.2997 87.9979 48.2659 88.0296C48.2335 88.0629 48.1949 88.0893 48.1522 88.1073C48.1095 88.1253 48.0636 88.1346 48.0172 88.1346C47.9709 88.1346 47.925 88.1253 47.8823 88.1073C47.8396 88.0893 47.8009 88.0629 47.7686 88.0296C47.5831 87.8738 47.4142 87.6901 47.2398 87.5194L41.9888 82.3593C40.9423 82.2795 39.8958 82.1849 38.8549 82.4094C40.2094 84.0552 41.8441 85.4283 43.2876 86.985C43.5493 87.267 44.2265 87.5639 43.8165 87.9795C43.3248 88.475 43.0446 87.7272 42.7644 87.4563C41.2132 85.9571 39.6856 84.4325 38.1814 82.8826C38.0204 82.7003 37.8193 82.558 37.5939 82.4669C37.3685 82.3758 37.125 82.3383 36.8826 82.3575C35.966 82.3946 35.0475 82.3686 33.8897 82.3686C34.554 83.0496 35.0735 83.5858 35.6004 84.1165C36.6432 85.1648 37.6953 86.2076 38.7362 87.2578C38.9477 87.4693 39.278 87.7272 38.9663 88.0259C38.6545 88.3247 38.4189 87.9591 38.2241 87.755C36.4762 86.0158 34.7315 84.2723 32.9898 82.5245C32.8191 82.3556 32.5686 82.1923 32.6707 81.9103C32.7913 81.5745 33.1197 81.645 33.3869 81.6431C34.8712 81.6431 36.3556 81.5986 37.827 81.6561C38.5339 81.6839 38.6954 81.4706 38.6898 80.7803C38.6527 75.7854 38.6564 70.7905 38.6527 65.7937C38.6527 65.5284 38.6861 65.2538 38.7046 64.9773Z" fill="#6D6D6D"/>
<path d="M49.1955 50.1892C49.1955 57.0557 49.1955 63.9209 49.1955 70.7849V74.3994C49.2772 74.3697 49.3477 74.366 49.3625 74.3363C49.3963 74.2509 49.4224 74.1628 49.4405 74.0728C49.448 74.0593 49.4591 74.048 49.4724 74.0402C49.4858 74.0324 49.501 74.0282 49.5165 74.0282C49.532 74.0282 49.5472 74.0324 49.5606 74.0402C49.574 74.048 49.585 74.0593 49.5926 74.0728C49.6021 74.6499 49.4882 75.2224 49.2586 75.752C48.9376 75.5368 49.0341 75.1954 49.0341 74.9078C49.0341 66.933 49.0341 58.9588 49.0341 50.9852C49.0434 50.7087 48.9692 50.4174 49.1955 50.1892Z" fill="#040404"/>
<path d="M62.4602 32.0335C61.0797 32.3619 59.677 32.2079 58.2854 32.1968C57.9272 32.0613 57.5543 32.1671 57.1888 32.13C57.1427 32.134 57.0965 32.1255 57.055 32.1052C57.0135 32.0849 56.9782 32.0537 56.9531 32.015C58.9459 31.8684 60.9387 31.796 62.9296 32.0409C62.9015 32.0766 62.8655 32.1054 62.8245 32.1249C62.7835 32.1445 62.7385 32.1542 62.693 32.1535C62.6476 32.1528 62.6029 32.1416 62.5625 32.1208C62.5221 32.1 62.4871 32.0701 62.4602 32.0335Z" fill="#1E1E1E"/>
<path d="M43.3042 82.3965C43.306 82.3475 43.3103 82.2986 43.3172 82.25C44.8517 82.2629 46.3936 82.0329 47.9187 82.3687L43.3042 82.3965Z" fill="#575757"/>
<path d="M51.2534 67.2021C50.9825 66.3932 51.4594 65.7048 51.6245 64.9663C51.734 64.9923 51.747 65.1036 51.8101 65.176C51.6598 65.8644 51.5596 66.5602 51.2534 67.2021Z" fill="#252525"/>
<path d="M38.8623 82.4188C39.9014 82.0365 40.9479 82.1479 41.9962 82.3687L38.8623 82.4188Z" fill="#595959"/>
<path d="M56.9532 32.015L57.1592 32.1022L57.1814 32.1969L54.1997 32.3008C54.4149 31.7571 54.8788 32.0837 55.2165 32.0429C55.7944 32.0001 56.3743 31.9908 56.9532 32.015Z" fill="#010101"/>
<path d="M61.8018 34.0022C61.8853 33.377 62.2229 32.889 62.6107 32.4103C62.6245 32.3991 62.6405 32.3909 62.6576 32.3864C62.6747 32.3818 62.6926 32.3809 62.7101 32.3837C62.7277 32.3865 62.7444 32.3929 62.7592 32.4026C62.7741 32.4123 62.7867 32.425 62.7963 32.4399C62.5622 33.0167 62.2252 33.546 61.8018 34.0022Z" fill="#090909"/>
<path d="M50.1398 71.8277C49.9542 71.3101 49.9208 70.8443 50.5109 70.5586C50.4921 71.0055 50.3647 71.4411 50.1398 71.8277Z" fill="#303030"/>
<path d="M52.5798 61.9103C52.1456 61.4019 52.5705 60.9695 52.7041 60.5112C52.8303 60.5261 52.8414 60.6448 52.8896 60.7246C52.8265 61.1291 52.7876 61.5429 52.5798 61.9103Z" fill="#3F3F3F"/>
<path d="M50.8804 68.6809C50.6838 68.1669 50.6726 67.7086 51.2515 67.4192C51.2395 67.8648 51.1116 68.2997 50.8804 68.6809Z" fill="#303030"/>
<path d="M50.5368 70.3917C50.2529 69.7998 50.3623 69.2988 50.88 68.8906C50.7662 69.3965 50.6518 69.8969 50.5368 70.3917Z" fill="#222222"/>
<path d="M54.2568 54.2712C54.4424 53.9688 54.1641 53.414 54.7689 53.3435C54.7447 53.8007 54.628 54.2483 54.4257 54.659C54.2698 54.5755 54.3552 54.3826 54.2568 54.2712Z" fill="#434343"/>
<path d="M53.1606 58.5388C53.3351 58.2308 53.0493 57.6797 53.6579 57.6018C53.6383 58.0603 53.5233 58.5096 53.3202 58.921C53.1569 58.8413 53.2423 58.6539 53.1606 58.5388Z" fill="#3F3F3F"/>
<path d="M52.0322 63.1553C52.2178 62.7842 51.9135 62.196 52.5518 62.042C52.4905 62.4298 52.5184 62.8454 52.1974 63.1553C52.1528 63.2276 52.0916 63.2313 52.0322 63.1553Z" fill="#313131"/>
<path d="M55.3553 51.1819C55.0807 50.6865 55.1549 50.2894 55.6856 50.0222C55.6642 50.4287 55.5513 50.8251 55.3553 51.1819Z" fill="#363636"/>
<path d="M50.7265 42.6228C50.6727 42.9716 50.6485 43.3315 50.322 43.5635C50.0103 43.0996 50.3851 42.7823 50.5613 42.4205C50.7209 42.4038 50.8229 42.4335 50.7265 42.6228Z" fill="#0C0C0C"/>
<path d="M49.9728 45.1201C49.8781 45.456 49.9004 45.8345 49.6351 46.1146H49.4365C49.3419 45.6378 49.4978 45.2927 49.9728 45.1201Z" fill="#2C2C2C"/>
<path d="M51.2493 40.925C51.2475 41.3337 51.134 41.734 50.9209 42.0828C50.804 42.055 50.7892 41.9362 50.7261 41.8583C50.7685 41.5224 50.8963 41.203 51.0972 40.9305C51.1528 40.8415 51.2011 40.8415 51.2493 40.925Z" fill="#3B3B3B"/>
<path d="M50.34 43.8269C50.3309 44.2713 50.1951 44.7039 49.9485 45.0738C49.6776 44.532 49.9355 44.1572 50.34 43.8269Z" fill="#2B2B2B"/>
<path d="M51.2493 40.9249H51.1769H51.1046C50.958 40.5222 51.214 40.1827 51.2901 39.8116C51.4515 39.7652 51.5332 39.8505 51.5851 39.9841C51.4738 40.3033 51.3606 40.6131 51.2493 40.9249Z" fill="#1A1A1A"/>
<path d="M49.5999 74.0655L49.5238 74.0766H49.4478C49.5053 73.6889 49.5312 73.2936 49.7391 72.9467C49.8114 72.8669 49.8801 72.8669 49.9432 72.9559C49.8856 73.34 49.9042 73.7519 49.5999 74.0655Z" fill="#212121"/>
<path d="M54.8213 52.2434C54.9697 51.9131 54.7452 51.3824 55.3371 51.2915C55.3187 51.6992 55.2036 52.0967 55.0013 52.4512C54.8788 52.4363 54.8695 52.3231 54.8213 52.2434Z" fill="#3D3D3D"/>
<path d="M51.5851 39.9916L51.29 39.819C51.4756 39.5407 51.3902 39.1455 51.6741 38.908C51.8411 38.8839 51.9246 38.9303 51.8485 39.1139L51.5851 39.9916Z" fill="#0C0C0C"/>
<path d="M53.6727 33.8018C53.5539 34.1729 53.7023 34.6794 53.1309 34.8C53.155 34.3825 53.2199 33.9873 53.6727 33.8018Z" fill="#363636"/>
<path d="M56.2759 47.4081C56.286 46.9859 56.4146 46.575 56.647 46.2224C56.9791 46.6974 56.5876 47.0314 56.4169 47.4081C56.3705 47.4953 56.3241 47.4916 56.2759 47.4081Z" fill="#2F2F2F"/>
<path d="M52.8955 60.7246C52.8324 60.6541 52.7675 60.5835 52.71 60.5112C52.7953 60.1549 52.88 59.7987 52.9642 59.4424C52.9727 59.429 52.9845 59.418 52.9985 59.4103C53.0124 59.4027 53.028 59.3987 53.0439 59.3987C53.0598 59.3987 53.0755 59.4027 53.0894 59.4103C53.1034 59.418 53.1152 59.429 53.1237 59.4424C53.2054 59.897 52.8955 60.2848 52.8955 60.7246Z" fill="#0F0F0F"/>
<path d="M57.5692 44.1053C57.2871 43.6322 57.4114 43.313 57.931 43.1423L57.5692 44.1053Z" fill="#323232"/>
<path d="M56.2756 47.408H56.4203C56.3906 47.8174 56.2809 48.217 56.0975 48.5843C55.7672 48.126 56.0901 47.7809 56.2756 47.408Z" fill="#2E2E2E"/>
<path d="M55.6879 49.796C55.5153 49.334 55.5395 48.9388 56.059 48.7217C56.0426 49.1083 55.9137 49.4817 55.6879 49.796Z" fill="#2D2D2D"/>
<path d="M58.1242 42.6208C57.8217 42.1365 57.9943 41.8322 58.4952 41.6541L58.1242 42.6208Z" fill="#313131"/>
<path d="M56.8623 45.3855C57.007 45.1276 56.8753 44.686 57.354 44.6433C57.3486 44.9926 57.2409 45.3325 57.0441 45.6211C56.9143 45.5989 56.9068 45.4783 56.8623 45.3855Z" fill="#3E3E3E"/>
<path d="M52.5241 37.216C52.4276 37.498 52.4276 37.8208 52.179 38.0398C51.8951 37.6334 52.2013 37.3254 52.3645 36.9915C52.461 37.0211 52.4703 37.1325 52.5241 37.216Z" fill="#292929"/>
<path d="M54.2293 32.4919C54.066 32.774 54.2608 33.2898 53.6968 33.3083C53.7283 32.941 53.7951 32.5977 54.2293 32.4919Z" fill="#353535"/>
<path d="M53.12 35.3083C53.0458 35.6683 53.0347 36.0505 52.7842 36.353C52.6543 36.3307 52.6469 36.2138 52.5986 36.1248C52.71 35.8075 52.6933 35.4197 53.12 35.3083Z" fill="#383838"/>
<path d="M52.6005 36.1248L52.786 36.353C52.697 36.64 52.6073 36.9276 52.517 37.2158L52.3389 36.9931L52.6005 36.1248Z" fill="#1D1D1D"/>
<path d="M51.8487 39.1141L51.6743 38.9081C51.7949 38.5945 51.6966 38.1474 52.192 38.062C52.1215 38.4275 52.0974 38.8061 51.8487 39.1141Z" fill="#363636"/>
<path d="M59.4282 39.3254C59.174 38.9005 59.2426 38.6167 59.7733 38.5276C59.7328 38.8199 59.6135 39.0958 59.4282 39.3254Z" fill="#393939"/>
<path d="M53.1176 59.4444H53.0378H52.958C53.0267 59.1438 53.0935 58.8414 53.1603 58.5408L53.3198 58.923C53.2957 59.1123 53.3606 59.3368 53.1176 59.4444Z" fill="#1B1B1B"/>
<path d="M58.5006 41.5632C58.2315 41.1179 58.3744 40.8489 58.8717 40.7283C58.824 41.0345 58.696 41.3226 58.5006 41.5632Z" fill="#343434"/>
<path d="M58.8714 40.6374C58.6172 40.2329 58.7136 39.9675 59.1868 39.8562C59.1367 40.1475 59.0922 40.424 58.8714 40.6374Z" fill="#333333"/>
<path d="M59.9811 38.0452C59.6842 37.7019 59.944 37.4533 60.124 37.1917C60.239 37.2139 60.2483 37.3234 60.2947 37.4032L59.9811 38.0452Z" fill="#383838"/>
<path d="M60.2947 37.4033L60.124 37.1918C60.2613 36.9042 60.2094 36.4608 60.7122 36.4719L60.2947 37.4033Z" fill="#1E1E1E"/>
<path d="M54.257 54.2712C54.3127 54.4011 54.3702 54.531 54.4259 54.659C54.4129 54.8446 54.4426 55.0542 54.2607 55.1934C54.1902 55.275 54.1216 55.2695 54.0566 55.1934L54.257 54.2712Z" fill="#282828"/>
<path d="M52.0324 63.1553C52.0867 63.1674 52.1431 63.1674 52.1975 63.1553C52.2381 63.4722 52.1644 63.7932 51.9897 64.0607C51.639 63.7342 52.0992 63.4559 52.0324 63.1553Z" fill="#050505"/>
<path d="M51.7949 65.1759L51.6094 64.9663C51.6483 64.6898 51.55 64.341 51.9805 64.2742C51.9229 64.5748 51.858 64.8753 51.7949 65.1759Z" fill="#181818"/>
<path d="M62.8035 32.4398L62.6179 32.4102C62.6068 32.2673 62.3192 32.2395 62.4584 32.0391H62.9296C63.1412 32.2543 62.95 32.3396 62.8035 32.4398Z" fill="black"/>
<path d="M54.8212 52.2434L55.0068 52.4512C55.0365 52.7147 54.8825 52.9132 54.773 53.1285C54.4483 52.813 54.8417 52.5403 54.8212 52.2434Z" fill="#0A0A0A"/>
<path d="M56.8623 45.3855L57.0479 45.6286C57.0163 45.8939 57.0219 46.1852 56.6304 46.1852C56.7064 45.9199 56.7918 45.6527 56.8623 45.3855Z" fill="#313131"/>
<path d="M49.9434 72.9521L49.7393 72.9429C49.8228 72.6237 49.6483 72.1914 50.1345 72.0522C50.0714 72.351 50.0083 72.6516 49.9434 72.9521Z" fill="#0C0C0C"/>
<path d="M54.0566 55.186H54.2607C54.296 55.4699 54.142 55.6889 54.0084 55.9152H53.8804C53.9379 55.6777 53.9973 55.4328 54.0566 55.186Z" fill="#090909"/>
<path d="M53.8807 55.9189H54.0087C54.1367 56.214 53.9456 56.4273 53.8231 56.6611C53.7805 56.7428 53.7359 56.7465 53.6914 56.6611L53.8807 55.9189Z" fill="#080808"/>
<path d="M53.6911 56.6611H53.8228C53.9415 56.9432 53.7653 57.1565 53.6577 57.3848C53.3125 57.1287 53.6873 56.9061 53.6911 56.6611Z" fill="#070707"/>
<path d="M50.7262 41.8582L50.921 42.0827C50.928 42.1813 50.9142 42.2803 50.8807 42.3732C50.8471 42.4662 50.7945 42.5512 50.7262 42.6226L50.561 42.4204C50.6167 42.233 50.6686 42.0456 50.7262 41.8582Z" fill="#2A2A2A"/>
<path d="M57.1814 32.1969C57.1807 32.1642 57.1731 32.1319 57.1592 32.1023C57.5303 32.0782 57.9292 31.9427 58.2854 32.1969H57.1814Z" fill="#121212"/>
</svg>
