<svg width="95" height="95" viewBox="0 0 95 95" fill="none" xmlns="http://www.w3.org/2000/svg">
<rect width="95" height="95" rx="20" fill="white"/>
<path d="M40.9893 79.8052C41.0115 67.5431 41.0338 55.2796 41.0561 43.015C41.0561 38.8847 41.0895 34.7563 41.069 30.6279C41.069 29.9785 41.2435 29.7929 41.8873 29.8115C43.3717 29.8504 44.8412 29.8115 46.3182 29.8115C47.8563 29.6723 49.3964 29.7911 50.9327 29.7447C51.3242 29.7317 51.4689 29.8764 51.4894 30.2754C51.5376 31.5946 51.6749 32.9083 51.6656 34.2331C51.6446 44.1883 51.6415 54.1422 51.6563 64.095C51.6563 64.6182 51.61 65.1452 51.7899 65.6517C51.9477 67.9803 51.8326 70.3127 51.8549 72.6413C51.9402 72.9474 51.8382 73.235 51.7714 73.5282C51.3669 75.6137 51.6619 77.7197 51.6025 79.8145C51.289 80.1466 50.8752 80.0928 50.4893 80.0928C47.6999 80.0928 44.9111 80.0928 42.1229 80.0928C41.7129 80.0854 41.2991 80.1392 40.9893 79.8052Z" fill="black"/>
<path d="M51.7511 72.9829C51.5656 72.9309 51.5563 72.7769 51.5656 72.6211C51.5767 70.3463 51.5885 68.0715 51.6008 65.7967C51.6268 65.6099 51.7039 65.434 51.8235 65.2883C51.9552 65.1027 52.0647 64.9172 52.1946 64.7316C52.3167 64.5477 52.4258 64.3555 52.5211 64.1564C52.6529 63.9319 52.8087 63.7222 52.9405 63.4959C53.0762 63.3181 53.1821 63.1195 53.2541 62.9077C53.2806 62.8347 53.3142 62.7645 53.3543 62.698C53.5364 62.4982 53.6826 62.2685 53.7866 62.0189C53.8134 61.9461 53.8456 61.8754 53.8831 61.8074L54.4007 61.0485C54.5294 60.8648 54.64 60.669 54.731 60.464C54.8126 60.2933 54.8943 60.1226 54.9778 59.9538C55.0854 59.7478 55.1912 59.5437 55.2839 59.3322C55.3767 59.1207 55.4435 58.8869 55.5418 58.6717C55.7457 58.3744 55.9191 58.0573 56.0595 57.7254C56.2098 57.3932 56.2933 57.0351 56.4306 56.7011C56.557 56.4991 56.6674 56.2876 56.7609 56.0684C56.8314 55.8829 56.913 55.6973 56.991 55.5118C57.0975 55.2521 57.1904 54.987 57.2693 54.7176C57.3454 54.4801 57.4418 54.2538 57.5383 54.0256C57.6501 53.7557 57.7456 53.4794 57.8241 53.198C57.9762 52.7583 58.069 52.3037 58.1822 51.8547C58.2694 51.5077 58.3974 51.1644 58.3269 50.7952C58.3282 50.5602 58.3424 50.3254 58.3696 50.092C58.4733 49.8928 58.5325 49.6735 58.543 49.4493C58.5536 49.225 58.5153 49.0011 58.4308 48.7931C58.3802 48.5327 58.3554 48.268 58.3566 48.0027C58.3696 47.6465 58.2249 47.3143 58.184 46.9655C58.1421 46.6306 58.0515 46.3037 57.915 45.9951C57.8222 45.7687 57.7294 45.5405 57.6497 45.3086C57.5088 44.8983 57.3067 44.5118 57.0503 44.1619C57.012 44.0941 56.9791 44.0234 56.952 43.9504C56.8606 43.702 56.7391 43.4659 56.5902 43.2471C56.4934 43.0431 56.3766 42.8491 56.2414 42.6682C56.0373 42.4363 55.8703 42.1765 55.6847 41.926C55.4251 41.6186 55.1167 41.3559 54.7718 41.1486C53.8923 40.117 52.7995 39.3098 51.842 38.3654C51.7293 38.2614 51.6384 38.136 51.5747 37.9964C51.5109 37.8569 51.4757 37.706 51.4709 37.5527C51.4709 35.7492 51.471 33.9457 51.4802 32.1422C51.4802 31.8546 51.4227 31.4538 51.9534 31.6727C52.8162 32.2702 53.6827 32.8621 54.3414 33.7026C54.7083 33.9482 55.0235 34.2634 55.2691 34.6303C56.0113 35.0014 56.4455 35.6713 56.939 36.2873C57.1576 36.4981 57.4013 36.6813 57.6645 36.8328C57.7703 37.1705 58.2731 37.2373 58.2378 37.6715C58.3826 37.9925 58.6924 38.1298 58.9596 38.3135L61.2363 41.5364C61.2379 41.6598 61.2653 41.7815 61.3168 41.8936C61.3682 42.0058 61.4426 42.1059 61.535 42.1877L62.1325 43.2323C62.0917 43.5774 62.3273 43.8038 62.4869 44.0617L62.6724 44.3808C62.7071 44.7371 62.7973 45.0858 62.9396 45.4143C63.0398 45.6908 63.1957 45.9468 63.2198 46.2493C63.2773 46.6668 63.333 47.0861 63.6131 47.4294L63.6447 47.4887L63.5946 47.5314C63.6335 48.1827 63.7801 48.8302 63.7801 49.4778C63.6966 49.9843 63.9341 50.4927 63.7801 50.9993C63.8178 51.0758 63.8374 51.1599 63.8374 51.2451C63.8374 51.3304 63.8178 51.4145 63.7801 51.491C63.6025 51.8814 63.5053 52.3035 63.4944 52.7323C63.3943 52.9685 63.3317 53.2189 63.3088 53.4745C63.2439 53.8808 63.0324 54.2593 63.0639 54.6861C62.8654 54.8717 62.9285 55.1407 62.8617 55.3671C62.613 55.599 62.5592 55.9627 62.305 56.1872L62.3254 56.2169C62.3239 56.3831 62.2885 56.5473 62.2215 56.6994C62.1545 56.8516 62.0573 56.9885 61.9358 57.1019C62.0731 57.4396 61.8931 57.7087 61.7391 57.9833C61.6256 58.036 61.5316 58.1232 61.4707 58.2325C61.4097 58.3418 61.3848 58.4676 61.3996 58.5919C61.2641 58.9017 61.1769 59.2431 60.8763 59.4547C60.6295 59.6662 60.5368 59.9816 60.3568 60.2377C60.2343 60.5735 59.9709 60.8221 59.8001 61.1301C59.7014 61.3386 59.5767 61.5337 59.4291 61.7109C59.3213 61.9156 59.1932 62.1089 59.0468 62.288C58.9633 62.5143 58.7759 62.672 58.659 62.8743C58.5885 63.1174 58.3455 63.2324 58.2416 63.4495C58.3918 63.8057 57.9595 63.8299 57.889 64.0599C57.6441 64.3475 57.375 64.6166 57.3324 65.0266V65.0136C57.0571 65.1516 56.8339 65.3748 56.6959 65.6501C56.5902 65.8672 56.3657 65.9878 56.2562 66.2067C56.1263 66.498 55.848 66.717 55.8424 67.0676L55.8517 67.0547C55.5765 67.1926 55.3532 67.4158 55.2153 67.6911C55.0984 67.8766 54.9258 68.0492 54.9444 68.3015L54.5566 68.693C54.3773 68.8942 54.2088 69.1048 54.0519 69.3239C53.9814 69.5299 53.7439 69.6709 53.8125 69.9306L52.6789 71.8622C52.4247 71.9791 52.3078 72.2333 52.1222 72.4188L52.1389 72.3984C51.9497 72.5543 51.9868 72.8549 51.7511 72.9829Z" fill="#B9B9B9"/>
<path d="M50.3074 20.2449C48.8676 22.9669 47.4834 25.5812 45.999 28.37L41.1748 20.3414C41.9634 20.3414 42.6592 20.295 43.3327 20.3544C43.9803 20.41 44.1714 20.2059 44.164 19.5472C44.125 15.7268 44.1547 11.9046 44.1046 8.08415C44.0935 7.26589 44.2716 6.87068 45.1474 7.03767C45.3002 7.06458 45.4565 7.06458 45.6094 7.03767C46.4017 6.90964 46.6429 7.19167 46.6317 8.02849C46.5798 11.8174 46.6317 15.6081 46.5928 19.3969C46.5928 20.1002 46.7783 20.308 47.4778 20.256C48.3685 20.1948 49.2646 20.2449 50.3074 20.2449Z" fill="#90AF14"/>
<path d="M40.9895 79.8054H51.5972C53.1707 79.8054 54.7515 79.8054 56.3157 79.7905C56.6274 79.7905 56.8723 79.7905 57.1135 80.1004C58.4124 81.7852 59.7335 83.4402 61.0508 85.1102C61.1659 85.2567 61.2865 85.3959 61.3997 85.5406C61.5852 85.7707 61.7578 86.0416 61.4423 86.2531C61.1881 86.422 60.9896 86.1882 60.8319 85.9915C59.9635 84.9098 58.9764 83.9022 58.2546 82.7296C57.1506 80.9372 55.7201 80.1319 53.616 80.5123C52.9573 80.6311 52.2633 80.5513 51.5861 80.5624L51.4154 80.5958C49.7947 80.4046 48.1597 80.3661 46.5318 80.4808C44.6949 80.5977 42.8598 80.2729 41.0285 80.5271C40.8782 80.5457 40.6462 80.5104 40.5924 80.5939C40.4551 80.798 40.713 80.8853 40.8225 80.9947C42.2104 82.3975 43.6057 83.7891 45.0029 85.1844C45.155 85.3365 45.309 85.4887 45.4556 85.6464C45.6022 85.8041 45.7228 86.0063 45.5039 86.203C45.2849 86.3997 45.1049 86.2977 44.9342 86.1344C44.7635 85.9711 44.6262 85.8319 44.4722 85.6798C43.0565 84.2641 41.6074 82.8762 40.2362 81.4122C39.6183 80.7535 38.9782 80.4121 38.069 80.5197C37.5346 80.5828 36.9873 80.5309 36.195 80.5309L40.713 85.0434C40.9097 85.2382 41.1138 85.4274 41.2957 85.6353C41.4478 85.8097 41.5369 86.0268 41.3346 86.2086C41.1324 86.3904 40.9394 86.2865 40.778 86.1195C40.4292 85.7707 40.0766 85.4256 39.7278 85.0768C38.2682 83.6159 36.8085 82.155 35.3489 80.6941C35.18 80.5253 34.9295 80.3657 35.0186 80.0818C35.1299 79.733 35.4602 79.8091 35.7255 79.8072C37.4641 79.8054 39.2287 79.8072 40.9895 79.8054Z" fill="#444444"/>
<path d="M51.9367 65.3716L51.6008 65.7965C51.3262 65.3791 51.3875 64.9096 51.3856 64.4495C51.3856 53.2554 51.3615 42.0632 51.3856 30.8655C51.3856 29.9786 51.1054 29.7819 50.2872 29.8172C48.9642 29.8728 47.6375 29.8172 46.3127 29.8005C47.8732 29.6019 49.4411 29.7151 51.0034 29.639C51.5043 29.6131 51.5804 29.8672 51.5285 30.255C51.4916 30.5093 51.5106 30.7686 51.5843 31.0147C51.6581 31.2608 51.7846 31.4879 51.9552 31.68C51.5396 31.6188 51.5377 31.8841 51.5377 32.1829C51.547 33.9066 51.5971 35.6322 51.5173 37.3504C51.4914 37.9311 52.1556 38.0053 52.0962 38.5063C51.8606 38.8255 51.8569 39.1984 51.8569 39.5695C51.8569 48.023 51.8569 56.4753 51.8569 64.9263C51.9365 65.0602 51.9648 65.2184 51.9367 65.3716Z" fill="#171717"/>
<path d="M51.5803 80.5625C53.0071 82.2138 54.6399 83.6592 56.1484 85.229C56.3173 85.4052 56.4973 85.5759 56.6513 85.7671C56.6774 85.7956 56.6975 85.8291 56.7106 85.8655C56.7237 85.9019 56.7295 85.9405 56.7276 85.9791C56.7257 86.0178 56.7162 86.0556 56.6996 86.0906C56.683 86.1255 56.6596 86.1568 56.6309 86.1827C56.5828 86.2438 56.5141 86.2854 56.4377 86.2998C56.3612 86.3141 56.2822 86.3002 56.2152 86.2606C56.0618 86.1597 55.921 86.0407 55.7959 85.9062C54.0159 84.1237 52.2346 82.3388 50.4521 80.5513C50.7954 80.3918 51.1498 80.4548 51.5023 80.5124L51.5803 80.5625Z" fill="#494949"/>
<path d="M45.6465 80.5531C46.9453 82.2007 48.5614 83.5218 49.9846 85.047C50.1701 85.2493 50.3816 85.4367 50.5672 85.6426C50.723 85.8133 50.8121 86.0286 50.6099 86.2123C50.4076 86.396 50.2128 86.3087 50.0421 86.138C49.9976 86.0954 49.9512 86.0545 49.9085 86.01L44.5146 80.5624C44.8759 80.4099 45.2828 80.4066 45.6465 80.5531Z" fill="#494949"/>
<path d="M45.6465 80.5532L44.5128 80.5625L41.0227 80.5272C41.1878 80.3417 41.4086 80.3676 41.622 80.3676H51.0088C51.1944 80.3676 51.3799 80.338 51.5135 80.5124L50.4633 80.5513L45.6465 80.5532Z" fill="#373737"/>
<path d="M63.7821 51.0121C63.7394 50.4852 63.4667 49.9786 63.6337 49.4312C63.7914 49.2012 63.5743 48.8839 63.8099 48.6724C64.0196 49.4554 64.1031 50.2421 63.7821 51.0121Z" fill="#5B5B5B"/>
<path d="M63.6261 47.4422C63.0305 47.2566 63.242 46.6833 63.0955 46.2844C63.1808 46.1805 63.1066 46.0098 63.2439 45.9263C63.4758 46.4031 63.5389 46.9245 63.6261 47.4422Z" fill="#5B5B5B"/>
<path d="M63.8117 48.6724C63.7171 48.9173 63.8636 49.2179 63.6354 49.4313C63.6558 48.8023 63.3738 48.1789 63.6002 47.5461C63.8748 47.882 63.7634 48.292 63.8117 48.6724Z" fill="#3E3E3E"/>
<path d="M63.0696 54.6952C62.756 54.2518 63.0696 53.8751 63.1994 53.478C63.3238 53.5021 63.3349 53.6228 63.385 53.7063C63.3089 54.0439 63.2996 54.4058 63.0696 54.6952Z" fill="#434343"/>
<path d="M51.7509 72.9828C51.9364 72.8288 51.7917 72.4577 52.122 72.4001C52.1422 72.6014 52.1196 72.8046 52.0557 72.9965C51.9917 73.1884 51.8878 73.3646 51.7509 73.5134C51.5208 73.3446 51.8158 73.1609 51.7509 72.9828Z" fill="#0B0B0B"/>
<path d="M55.2654 34.6433C54.9054 34.3854 54.551 34.1238 54.3376 33.7156C54.8479 33.8288 55.245 34.0477 55.2654 34.6433Z" fill="#242424"/>
<path d="M57.3175 65.0172C57.0652 64.4365 57.4715 64.2417 57.8741 64.0505C57.8741 64.481 57.5327 64.7148 57.3175 65.0172Z" fill="#5D5D5D"/>
<path d="M63.3904 52.7805C63.4498 52.3352 63.3458 51.8397 63.7763 51.5039C63.7095 51.9307 63.6427 52.3556 63.5778 52.7823C63.5663 52.7962 63.5519 52.8073 63.5357 52.8148C63.5194 52.8224 63.5016 52.8263 63.4836 52.8261C63.4657 52.8259 63.448 52.8217 63.4319 52.8138C63.4157 52.8059 63.4015 52.7945 63.3904 52.7805Z" fill="#151515"/>
<path d="M55.8331 67.0528C55.5696 66.5685 55.9686 66.3737 56.2395 66.1251C56.3248 66.0434 56.3972 66.0546 56.4566 66.1566L55.8331 67.0528Z" fill="#5E5E5E"/>
<path d="M59.802 61.106C59.8314 60.9124 59.9047 60.7282 60.0163 60.5674C60.1279 60.4066 60.2748 60.2735 60.4458 60.1782H60.4273C60.4273 60.5883 60.1044 60.8184 59.8966 61.106H59.802Z" fill="#181818"/>
<path d="M62.8839 45.3772C62.5221 45.1119 62.5536 44.763 62.678 44.3938C62.7951 44.5299 62.8842 44.6878 62.9399 44.8585C62.9956 45.0293 63.017 45.2093 63.0027 45.3883L62.8839 45.3772Z" fill="#5B5B5B"/>
<path d="M62.2993 56.1946C62.4682 55.9089 62.2993 55.3968 62.856 55.3745C62.7187 55.6788 62.8337 56.1594 62.2993 56.1946Z" fill="#383838"/>
<path d="M61.9302 57.1075C61.9669 56.7797 62.1029 56.4709 62.3198 56.2224C62.5128 56.664 62.3922 56.959 61.9302 57.1075Z" fill="#3A3A3A"/>
<path d="M56.5884 65.5665C56.7739 65.2919 56.85 64.8949 57.3213 65.0099L56.7646 65.7521C56.7238 65.7354 56.687 65.7102 56.6566 65.6782C56.6262 65.6462 56.603 65.6082 56.5884 65.5665Z" fill="#565656"/>
<path d="M57.6608 36.8458C57.3194 36.7957 56.9594 36.7734 56.9353 36.3003C57.3695 36.2261 57.4901 36.5693 57.6608 36.8458Z" fill="#232323"/>
<path d="M58.956 38.3263C58.5552 38.2929 58.1748 38.2354 58.2342 37.6843C58.6164 37.7344 58.789 38.0294 58.956 38.3263Z" fill="#282828"/>
<path d="M55.1057 67.5983C55.2913 67.3348 55.3692 66.9303 55.8479 67.0417L55.2913 67.8024C55.1651 67.782 55.1521 67.6836 55.1057 67.5983Z" fill="#565656"/>
<path d="M61.5313 42.2006C61.1602 42.1078 60.945 41.9445 61.2326 41.5493C61.3351 41.6222 61.4166 41.7207 61.469 41.835C61.5214 41.9493 61.5429 42.0754 61.5313 42.2006Z" fill="#505050"/>
<path d="M63.3904 52.7805H63.5759C63.511 53.0867 63.4479 53.3947 63.3904 53.7083L63.2048 53.48C63.2085 53.2295 63.1937 52.9753 63.3904 52.7805Z" fill="#2F2F2F"/>
<path d="M58.6348 62.7871C58.642 62.6698 58.6802 62.5565 58.7454 62.4588C58.8105 62.361 58.9004 62.2822 59.0059 62.2304C59.0186 62.2111 59.0362 62.1955 59.057 62.1853C59.0777 62.175 59.1009 62.1705 59.1239 62.1722C59.147 62.1739 59.1692 62.1818 59.1883 62.1949C59.2073 62.2081 59.2225 62.2261 59.2322 62.2471C59.1228 62.4457 59.0708 62.6813 58.8481 62.8038C58.8357 62.8214 58.8189 62.8356 58.7994 62.8448C58.7798 62.854 58.7582 62.858 58.7367 62.8563C58.7152 62.8546 58.6944 62.8473 58.6765 62.8352C58.6587 62.823 58.6443 62.8065 58.6348 62.7871Z" fill="#545454"/>
<path d="M58.635 62.7871L58.8465 62.8038C58.711 63.084 58.6238 63.4106 58.2305 63.4402C58.2319 63.3048 58.2703 63.1724 58.3416 63.0573C58.4129 62.9421 58.5144 62.8487 58.635 62.7871Z" fill="#575757"/>
<path d="M62.4829 44.0745C62.1118 43.9057 61.9263 43.6552 62.1285 43.2451C62.3377 43.4731 62.4627 43.7657 62.4829 44.0745Z" fill="#3B3B3B"/>
<path d="M60.4272 60.1819H60.4439C60.4108 60.0287 60.4359 59.8687 60.5145 59.7332C60.5931 59.5976 60.7195 59.4963 60.8688 59.449C60.7779 59.7236 60.7371 60.0334 60.4272 60.1819Z" fill="#0F0F0F"/>
<path d="M54.0054 69.2683C54.0194 69.1247 54.0796 68.9896 54.1769 68.8832C54.2743 68.7768 54.4036 68.7049 54.5453 68.6782C54.5824 68.951 54.4247 69.1254 54.2392 69.2868C54.1631 69.3815 54.0759 69.3759 54.0054 69.2683Z" fill="#545454"/>
<path d="M54.0053 69.2681L54.2391 69.2866C54.1166 69.513 54.0387 69.769 53.8012 69.9156C53.4969 69.5816 53.8031 69.4425 54.0053 69.2681Z" fill="#515151"/>
<path d="M52.1221 72.4207C52.2649 72.1943 52.1351 71.7008 52.6787 71.864C52.5507 72.1127 52.4932 72.417 52.1221 72.4207Z" fill="#474747"/>
<path d="M62.8838 45.3772C62.9216 45.3918 62.9627 45.3957 63.0025 45.3883C63.0935 45.5609 63.279 45.6963 63.2363 45.9264L63.086 46.2845C63.0174 45.9747 62.9506 45.6796 62.8838 45.3772Z" fill="#404040"/>
<path d="M59.802 61.106L59.8521 61.0781L59.8966 61.1134C59.8937 61.227 59.8648 61.3385 59.812 61.4392C59.7593 61.5399 59.6841 61.6271 59.5923 61.6941C59.5106 61.7795 59.4364 61.7739 59.3696 61.6774C59.4179 61.414 59.5181 61.1895 59.802 61.106Z" fill="#525252"/>
<path d="M59.3695 61.6775L59.5922 61.6942C59.4716 61.8797 59.351 62.0653 59.2211 62.2508L58.9966 62.2341C59.008 62.1178 59.0481 62.0061 59.1131 61.909C59.1782 61.8118 59.2663 61.7323 59.3695 61.6775Z" fill="#525252"/>
<path d="M55.1058 67.5981L55.2783 67.8004L54.9332 68.2865C54.5825 67.9544 55.0019 67.8152 55.1058 67.5981Z" fill="#555555"/>
<path d="M61.3995 58.5919C61.2417 58.2375 61.3586 58.0353 61.7409 58L61.3995 58.5919Z" fill="#020202"/>
<path d="M56.5882 65.5664L56.7552 65.752L56.4546 66.1527L56.2375 66.1212L56.5882 65.5664Z" fill="#484848"/>
<path d="M51.7882 65.2066C51.3726 65.2808 51.5841 64.9468 51.5841 64.8355C51.5618 56.1618 51.5457 47.4881 51.5358 38.8144C51.5358 38.2578 51.6824 38.1891 52.0925 38.512C53.1464 39.2542 54.1502 40.0613 54.9017 41.1338C55.235 41.3501 55.5173 41.6363 55.7292 41.9724C55.9148 42.2285 56.1133 42.466 56.2859 42.7239C56.4306 42.9094 56.5289 43.1321 56.6569 43.3325C56.8147 43.518 56.9371 43.737 57.1115 43.9133V44.0988C57.3212 44.52 57.529 44.943 57.7201 45.3735C57.7779 45.5824 57.8517 45.7865 57.9409 45.984C58.1072 46.3512 58.2275 46.7376 58.299 47.1344C58.3157 47.4164 58.4233 47.691 58.3992 47.973C58.4586 48.3608 58.4772 48.756 58.5662 49.1401C58.5829 49.5001 58.6256 49.8637 58.4048 50.1866V50.7674C58.4586 51.1292 58.3046 51.4669 58.2842 51.8194C58.1502 52.1886 58.0356 52.5645 57.9409 52.9457C57.7981 53.3001 57.7554 53.6879 57.5698 54.0293C57.484 54.2174 57.4139 54.4122 57.3602 54.6119C57.26 54.8772 57.1746 55.1463 57.0633 55.4079C56.9557 55.5804 56.9074 55.779 56.8165 55.9645C56.7256 56.1501 56.7256 56.3616 56.5957 56.5212C56.3063 56.8923 56.3137 57.371 56.078 57.7569C55.9649 58.0185 55.835 58.2709 55.7069 58.5195C55.4787 58.7051 55.4899 59.0223 55.3507 59.2617C55.2449 59.4714 55.1317 59.6755 55.0223 59.8833C54.9147 60.0466 54.872 60.2414 54.7774 60.4121C54.6746 60.6227 54.5554 60.8249 54.4211 61.017C54.2114 61.2563 54.1354 61.5736 53.9795 61.8389L53.9572 62.0505C53.7304 62.2952 53.5365 62.5684 53.3802 62.8632H53.4043C53.2717 63.1031 53.113 63.3278 52.9312 63.533C52.8347 63.7853 52.625 63.9783 52.5471 64.2436C52.4068 64.4228 52.2826 64.6141 52.176 64.8151C52.0642 64.9618 51.9338 65.0934 51.7882 65.2066Z" fill="#FEFEFE"/>
<path d="M57.85 52.942C57.8859 52.5576 57.9962 52.1839 58.1747 51.8417C58.2545 51.7563 58.3268 51.76 58.3955 51.8547C58.2675 52.3445 58.1376 52.8325 58.0095 53.3223C57.6644 53.3186 57.7832 53.1201 57.85 52.942Z" fill="#4D4D4D"/>
<path d="M58.4307 50.1846C58.4399 49.8135 58.4474 49.4424 58.4566 49.0713C58.5086 48.9934 58.5197 48.8857 58.6422 48.8579C58.7053 49.3236 58.9873 49.819 58.4307 50.1846Z" fill="#343434"/>
<path d="M57.6681 45.3975C57.4436 44.9818 57.0576 44.6349 57.13 44.0986C57.5957 44.325 57.6495 44.8037 57.8184 45.2119C57.808 45.2518 57.7892 45.2889 57.7633 45.3209C57.7373 45.3529 57.7049 45.379 57.6681 45.3975Z" fill="#4A4A4A"/>
<path d="M55.9927 57.7772C56.1114 57.3078 56.2005 56.8272 56.5493 56.4524C56.5717 56.4678 56.5904 56.488 56.6042 56.5115C56.6179 56.535 56.6263 56.5612 56.6288 56.5883C56.6313 56.6153 56.6278 56.6426 56.6185 56.6682C56.6093 56.6938 56.5945 56.717 56.5753 56.7363C56.5933 56.9297 56.5649 57.1247 56.4927 57.305C56.4204 57.4854 56.3063 57.646 56.1597 57.7735C56.1506 57.7871 56.1383 57.7983 56.1239 57.8062C56.1096 57.8141 56.0935 57.8184 56.0771 57.8187C56.0608 57.8191 56.0445 57.8155 56.0298 57.8083C56.0151 57.8011 56.0024 57.7904 55.9927 57.7772Z" fill="#595959"/>
<path d="M58.2008 47.0878C57.9707 46.7408 57.9503 46.3289 57.8501 45.9411C57.8619 45.9257 57.877 45.9132 57.8944 45.9046C57.9118 45.8961 57.9309 45.8916 57.9503 45.8916C57.9697 45.8916 57.9888 45.8961 58.0062 45.9046C58.0235 45.9132 58.0387 45.9257 58.0505 45.9411C58.314 46.2046 58.3474 46.5478 58.3752 46.8929C58.327 46.9635 58.3195 47.0748 58.2008 47.0878Z" fill="#565656"/>
<path d="M55.9925 57.7773C56.0494 57.781 56.1064 57.781 56.1632 57.7773C56.1637 57.9685 56.1193 58.157 56.0335 58.3278C55.9478 58.4986 55.8232 58.6469 55.6697 58.7607C55.6469 58.7468 55.6273 58.728 55.6124 58.7057C55.5975 58.6835 55.5876 58.6583 55.5834 58.6318C55.5792 58.6054 55.5807 58.5783 55.5879 58.5526C55.5951 58.5268 55.6078 58.5028 55.6252 58.4824C55.6615 58.2117 55.7915 57.9622 55.9925 57.7773Z" fill="#595959"/>
<path d="M57.85 52.9419C57.9038 53.0699 57.9558 53.1961 58.0096 53.3223C57.9094 53.5783 57.9316 53.89 57.6793 54.0812C57.6673 54.0966 57.652 54.109 57.6345 54.1176C57.6169 54.1262 57.5977 54.1307 57.5782 54.1307C57.5587 54.1307 57.5394 54.1262 57.5219 54.1176C57.5044 54.109 57.489 54.0966 57.4771 54.0812C57.5772 53.6897 57.5995 53.2777 57.85 52.9419Z" fill="#595959"/>
<path d="M55.6475 42.0058C55.3421 41.7691 55.0893 41.4715 54.9053 41.1318C55.4489 41.0817 55.5807 41.5233 55.7922 41.874C55.7813 41.9065 55.7623 41.9357 55.737 41.9588C55.7117 41.9818 55.6808 41.998 55.6475 42.0058Z" fill="#545454"/>
<path d="M55.6475 42.0058L55.7885 41.8704C56.054 42.0505 56.2554 42.3104 56.3637 42.6125C56.3494 42.6522 56.3268 42.6883 56.2973 42.7184C56.2679 42.7485 56.2323 42.7719 56.193 42.787C55.9443 42.5802 55.7559 42.3104 55.6475 42.0058Z" fill="#5F5F5F"/>
<path d="M58.2007 47.0878L58.3751 46.8875L58.5699 47.9748C58.5526 47.9968 58.5304 48.0145 58.5052 48.0268C58.48 48.039 58.4523 48.0454 58.4243 48.0454C58.3962 48.0454 58.3686 48.039 58.3433 48.0268C58.3181 48.0145 58.296 47.9968 58.2786 47.9748L58.2007 47.0878Z" fill="#2A2A2A"/>
<path d="M58.3956 51.8545L58.1748 51.8416C58.249 51.4797 58.1934 51.0882 58.429 50.7654C58.8446 51.142 58.4123 51.4927 58.3956 51.8545Z" fill="#3D3D3D"/>
<path d="M53.9963 61.8296C53.9753 61.6625 53.9957 61.4928 54.0559 61.3355C54.1161 61.1782 54.2142 61.0382 54.3414 60.9279C54.5158 60.8815 54.6012 60.9279 54.527 61.1134C54.4008 61.3917 54.3489 61.722 53.9963 61.8296Z" fill="#3A3A3A"/>
<path d="M58.2786 47.9749H58.5699C58.5903 48.2699 58.6088 48.5667 58.6293 48.8618C58.568 48.9323 58.5086 49.0046 58.4437 49.0751C58.3918 48.7078 58.3361 48.3422 58.2786 47.9749Z" fill="#1C1C1C"/>
<path d="M55.6254 58.4785L55.6699 58.7568C55.6776 59.0052 55.5974 59.2483 55.4436 59.4434C55.2747 59.4749 55.1745 59.4434 55.258 59.2448C55.2802 58.9524 55.4113 58.6789 55.6254 58.4785Z" fill="#4D4D4D"/>
<path d="M53.397 62.8593C53.4248 62.4715 53.5027 62.1171 53.974 62.0466C53.952 62.2191 53.8879 62.3835 53.7872 62.5252C53.6866 62.667 53.5525 62.7817 53.397 62.8593Z" fill="#4B4B4B"/>
<path d="M52.4338 64.2527L52.842 63.5105C52.8869 63.4779 52.9417 63.4617 52.9972 63.4647C53.0526 63.4678 53.1053 63.4898 53.1463 63.5272L52.6324 64.2453C52.6225 64.2626 52.6084 64.2771 52.5914 64.2874C52.5744 64.2977 52.5551 64.3035 52.5352 64.3042C52.5153 64.305 52.4956 64.3006 52.4778 64.2916C52.4601 64.2826 52.4449 64.2692 52.4338 64.2527Z" fill="#383838"/>
<path d="M56.2041 42.7813C56.2616 42.7238 56.3191 42.6663 56.3748 42.6069C56.5582 42.7449 56.6891 42.9412 56.7459 43.1636C56.7144 43.2459 56.6517 43.3126 56.5715 43.3491L56.2041 42.7813Z" fill="#606060"/>
<path d="M56.5752 43.3472C56.6327 43.2841 56.6902 43.2229 56.7496 43.1616C56.9352 43.3824 57.1207 43.6014 57.1318 43.9038C56.7607 43.9057 56.6643 43.6199 56.5752 43.3472Z" fill="#5C5C5C"/>
<path d="M56.9688 55.3873C57.0411 55.1146 57.0782 54.8307 57.2972 54.6191C57.3733 54.6595 57.433 54.7251 57.466 54.8047C57.3974 55.0812 57.3547 55.3613 57.1413 55.5821C57.0226 55.5729 57.0077 55.4689 56.9688 55.3873Z" fill="#5D5D5D"/>
<path d="M56.9688 55.3875L57.1413 55.5841L56.9187 56.1129C56.7628 56.1445 56.6626 56.1241 56.7517 55.9274L56.9688 55.3875Z" fill="#3B3B3B"/>
<path d="M53.1463 63.5256L52.842 63.5089C52.9849 63.2491 53.1018 62.9634 53.4209 62.8613C53.4352 62.9862 53.4175 63.1127 53.3694 63.2289C53.3214 63.3451 53.2446 63.4472 53.1463 63.5256Z" fill="#5B5B5B"/>
<path d="M58.0598 45.9357H57.8594C57.6182 45.8151 57.7239 45.5776 57.6738 45.3921L57.8241 45.2065C57.8965 45.4515 57.9726 45.6945 58.0598 45.9357Z" fill="#393939"/>
<path d="M52.4338 64.2529L52.6324 64.2437C52.6375 64.3618 52.6072 64.4788 52.5454 64.5796C52.4835 64.6805 52.393 64.7605 52.2854 64.8096C52.2731 64.827 52.2566 64.8411 52.2374 64.8504C52.2182 64.8598 52.197 64.8641 52.1756 64.863C52.1543 64.8619 52.1336 64.8554 52.1155 64.8441C52.0974 64.8328 52.0824 64.8171 52.072 64.7984C52.1741 64.6036 52.2038 64.3624 52.4338 64.2529Z" fill="#575757"/>
<path d="M56.7608 55.9312L56.9278 56.1167C56.923 56.2407 56.8885 56.3617 56.8272 56.4696C56.7658 56.5774 56.6794 56.669 56.5752 56.7364L56.5437 56.4525C56.6198 56.2818 56.514 56.0388 56.7608 55.9312Z" fill="#3E3E3E"/>
<path d="M55.2599 59.2449L55.4454 59.4434L55.1114 60.0334C54.989 60.0205 54.9741 59.9203 54.9463 59.8331C55.0502 59.6364 55.1541 59.4397 55.2599 59.2449Z" fill="#5E5E5E"/>
<path d="M54.9444 59.833L55.1095 60.0334L54.8702 60.5436C54.7124 60.5696 54.5993 60.5548 54.7013 60.3581C54.6661 60.1243 54.8201 59.9852 54.9444 59.833Z" fill="#404040"/>
<path d="M57.466 54.8066L57.2971 54.621C57.3472 54.4355 57.2377 54.198 57.4827 54.0774H57.6849C57.6088 54.3242 57.5383 54.5654 57.466 54.8066Z" fill="#3A3A3A"/>
<path d="M54.7012 60.3525L54.87 60.5381C54.8271 60.7631 54.7086 60.9666 54.5342 61.1151L54.3486 60.9296L54.7012 60.3525Z" fill="#5B5B5B"/>
<path d="M52.072 64.7983L52.2854 64.8095C52.2738 64.9228 52.2364 65.032 52.1759 65.1285C52.1154 65.225 52.0335 65.3063 51.9365 65.3661L51.7881 65.201C51.8013 65.1166 51.8338 65.0364 51.8831 64.9665C51.9323 64.8967 51.9969 64.8392 52.072 64.7983Z" fill="#555555"/>
</svg>
