<svg width="261" height="261" viewBox="0 0 261 261" fill="none" xmlns="http://www.w3.org/2000/svg">
<path d="M261 130.5C261 58.4268 202.573 0 130.5 0C58.4268 0 0 58.4268 0 130.5C0 202.573 58.4268 261 130.5 261C202.573 261 261 202.573 261 130.5Z" fill="white"/>
<path d="M130.323 23C132.206 23.0001 134.03 23.6635 135.472 24.874L218.214 94.483C219.628 95.445 220.696 96.835 221.263 98.448C221.83 100.062 221.866 101.815 221.364 103.45C220.862 105.085 219.849 106.516 218.474 107.533C217.1 108.551 215.435 109.101 213.724 109.104H201.501V202.025C201.5 207.115 199.478 211.996 195.88 215.596C192.281 219.195 187.402 221.219 182.312 221.223H155.117V166.832C155.115 165.137 154.441 163.512 153.242 162.313C152.043 161.115 150.418 160.442 148.722 160.441H111.936C110.24 160.441 108.614 161.114 107.414 162.312C106.214 163.511 105.539 165.136 105.537 166.832V221.223H78.351C73.26 221.221 68.377 219.199 64.777 215.599C61.177 211.999 59.155 207.116 59.153 202.025V109.104H46.9968C45.3567 109.103 43.7565 108.598 42.4128 107.657C41.0691 106.717 40.0462 105.386 39.4841 103.845C38.922 102.304 38.8476 100.626 39.2702 99.041C39.6929 97.456 40.5928 96.04 41.8474 94.983L125.174 24.874C126.616 23.6636 128.44 23 130.323 23Z" fill="#333333"/>
</svg>
