<svg width="64" height="64" viewBox="0 0 64 64" fill="none" xmlns="http://www.w3.org/2000/svg">
<path d="M7.99997 31.9599C7.85394 38.8819 10.4576 45.5796 15.2406 50.5855C20.0236 55.5914 26.5958 58.4973 33.5173 58.6665C38.0819 58.6156 42.5484 57.336 46.4474 54.962C50.3464 52.5881 53.5338 49.2076 55.6746 45.1759C55.904 44.756 56.0162 44.2821 55.9994 43.8039C55.9826 43.3257 55.8375 42.8609 55.5793 42.4581C55.321 42.0553 54.9591 41.7294 54.5316 41.5146C54.1041 41.2998 53.6266 41.204 53.1493 41.2372L52.856 41.2585C52.5066 41.2852 52.1546 41.3119 51.7893 41.3119C46.2822 41.1431 41.0663 38.7993 37.2834 34.7935C33.5005 30.7877 31.4588 25.4463 31.6053 19.9385C31.6048 16.2127 32.5362 12.5459 34.3146 9.27187C34.5437 8.85238 34.6558 8.37903 34.6392 7.90136C34.6227 7.42369 34.478 6.95925 34.2204 6.55664C33.9628 6.15404 33.6018 5.82806 33.175 5.61283C32.7483 5.3976 32.2715 5.30102 31.7946 5.3332C25.2038 5.95827 19.0917 9.04788 14.6803 13.9844C10.2688 18.9209 7.88306 25.3405 7.99997 31.9599ZM27.5813 11.5545C26.7193 14.2657 26.2804 17.0936 26.28 19.9385C26.1748 26.265 28.3476 32.4184 32.402 37.2761C36.4564 42.1338 42.122 45.372 48.3653 46.3999C46.5315 48.5517 44.2567 50.2845 41.695 51.4807C39.1333 52.6769 36.3444 53.3086 33.5173 53.3332C28.0102 53.1644 22.7943 50.8206 19.0114 46.8148C15.2285 42.809 13.1868 37.4676 13.3333 31.9599C13.271 27.4947 14.6128 23.1228 17.1694 19.4614C19.7259 15.8001 23.368 13.0342 27.5813 11.5545Z" fill="white"/>
</svg>
