<svg width="121" height="100" viewBox="0 0 121 100" fill="none" xmlns="http://www.w3.org/2000/svg">
<path d="M42.3796 0.506836H77.6707C79.3829 0.506836 80.775 1.90096 80.7751 3.625V10.2363H98.8142C100.527 10.2363 101.919 11.6304 101.919 13.3545V50.3945C101.919 52.1187 100.527 53.5137 98.8142 53.5137H42.3796C40.6672 53.5137 39.2751 52.1187 39.2751 50.3945V3.625C39.2753 1.90096 40.6673 0.506836 42.3796 0.506836Z" fill="#F5F5F5" stroke="black" stroke-width="1.01341"/>
<path d="M46.4563 42.423C46.9331 41.2716 47.4044 40.3807 47.8705 39.7511C48.3363 39.1215 48.943 38.6193 49.6912 38.2448C50.1284 38.0152 50.5838 37.8506 51.0587 37.751C51.5328 37.6517 51.9841 37.5251 52.4127 37.3719C52.8405 37.2189 53.2343 37.0109 53.5939 36.7488C53.9532 36.4867 54.2501 36.0729 54.4846 35.5067C54.8803 34.5505 54.8949 33.7721 54.5275 33.1725C54.1602 32.5729 53.6166 32.1227 52.8975 31.8226C51.8666 31.3924 51.0378 31.3844 50.4109 31.7978C49.7834 32.2114 49.219 32.8859 48.718 33.8213L44.9561 32.2514C45.3521 31.2952 45.867 30.4912 46.5015 29.8403C47.1356 29.1895 47.8528 28.7104 48.6527 28.4031C49.4523 28.0962 50.3162 27.9643 51.2446 28.0082C52.1721 28.052 53.1223 28.2769 54.0947 28.6827C56.1943 29.559 57.6736 30.6802 58.5336 32.0462C59.3927 33.4124 59.4228 35.0614 58.6226 36.9938C58.3639 37.6187 58.0742 38.1385 57.7542 38.5544C57.4336 38.9699 57.0682 39.3153 56.6581 39.5907C56.2476 39.8656 55.7889 40.0922 55.2824 40.27C54.7753 40.4477 54.2162 40.6147 53.6042 40.7713C53.0388 40.9247 52.5666 41.0883 52.187 41.2614C51.8073 41.4352 51.4843 41.6497 51.2195 41.905C50.9538 42.1605 50.7309 42.4514 50.5509 42.7762C50.3703 43.1017 50.1914 43.4794 50.0139 43.9084L46.4563 42.423ZM44 48.0254L45.5881 44.1897L49.5249 45.8328L47.9368 49.6685L44 48.0254Z" fill="#90AF13"/>
<path d="M59.6973 51.1221H85.0324" stroke="black" stroke-width="1.01341"/>
<path d="M8.51063 81.0093C6.52098 79.0458 6.49309 75.8347 8.44869 73.8371L31.7062 50.0771L38.9116 57.187L15.6541 80.9466C13.6985 82.9447 10.5003 82.9727 8.51063 81.0093Z" fill="#777777"/>
<path opacity="0.2" d="M50.009 59.1695C61.2898 59.1435 70.4137 49.9409 70.3877 38.615C70.3618 27.2891 61.1959 18.1287 49.9151 18.1548C38.6343 18.1808 29.5104 27.3834 29.5364 38.7093C29.5623 50.0352 38.7283 59.1956 50.009 59.1695Z" fill="#DCF0FF"/>
<path opacity="0.5" d="M30.8423 45.8952C31.5311 47.735 32.491 49.4946 33.7238 51.1112L70.3784 38.3821C70.3509 36.3923 70.0355 34.4071 69.4353 32.4927L30.8423 45.8952Z" fill="white"/>
<path opacity="0.5" d="M29.5801 40.0226C29.6564 41.1862 29.8315 42.3435 30.1048 43.4824L68.5329 30.1376C68.0537 29.0852 67.4831 28.0658 66.8177 27.0913L29.5801 40.0226Z" fill="white"/>
<path d="M66.4799 21.7874C57.1946 12.6252 42.2694 12.7553 33.1437 22.0782C24.0179 31.4006 24.1476 46.3856 33.4333 55.5478C42.7186 64.71 57.6438 64.5798 66.7695 55.257C75.8952 45.9341 75.7656 30.9492 66.4799 21.7874ZM36.3493 52.5687C28.7024 45.0235 28.5958 32.6832 36.1109 25.0054C43.626 17.328 55.9171 17.2209 63.5639 24.7661C71.2107 32.3113 71.3174 44.6516 63.8023 52.3294C56.2876 60.0068 43.9961 60.1139 36.3493 52.5687Z" fill="#777777"/>
<path d="M33.3386 59.3726L14.9485 78.1595" stroke="white" stroke-width="1.01341" stroke-miterlimit="10" stroke-linecap="round" stroke-linejoin="round"/>
<path d="M51.648 16.7006C45.8538 16.1137 39.8467 18.1216 35.5589 22.0781C31.2711 26.035 28.7732 31.8758 28.8683 37.722" stroke="white" stroke-width="1.01341" stroke-miterlimit="10" stroke-linecap="round" stroke-linejoin="round"/>
<path d="M2.021 97.7682V88.0184H2.89327C3.26845 88.4217 3.66238 88.8813 4.07507 89.3971C4.48776 89.913 4.90045 90.4523 5.31314 91.0151C5.7352 91.5684 6.1432 92.1265 6.53714 92.6893C6.93107 93.252 7.29217 93.7913 7.62045 94.3072C7.9581 94.8231 8.24417 95.2873 8.47865 95.7V88.0184H9.56196V97.7682H8.64748C8.43176 97.3742 8.15507 96.91 7.81741 96.3753C7.47976 95.8313 7.10927 95.2592 6.70596 94.6589C6.30265 94.0493 5.88527 93.4443 5.45382 92.844C5.03176 92.2344 4.61438 91.6669 4.20169 91.1417C3.79838 90.6071 3.43258 90.1475 3.10431 89.7629V97.7682H2.021ZM14.9204 97.937C14.2732 97.937 13.6964 97.7822 13.1899 97.4727C12.6834 97.1538 12.2848 96.7083 11.9941 96.1362C11.7127 95.564 11.572 94.8934 11.572 94.1243C11.572 93.3552 11.7127 92.6893 11.9941 92.1265C12.2848 91.5544 12.6834 91.1089 13.1899 90.79C13.6964 90.4711 14.2732 90.3116 14.9204 90.3116C15.577 90.3116 16.1585 90.4711 16.665 90.79C17.1714 91.1089 17.5654 91.5544 17.8468 92.1265C18.1375 92.6893 18.2829 93.3552 18.2829 94.1243C18.2829 94.8934 18.1375 95.564 17.8468 96.1362C17.5654 96.7083 17.1714 97.1538 16.665 97.4727C16.1679 97.7822 15.5863 97.937 14.9204 97.937ZM14.9204 96.9944C15.3894 96.9944 15.7927 96.8771 16.1303 96.6426C16.468 96.4082 16.7259 96.0752 16.9041 95.6438C17.0917 95.2123 17.1855 94.7058 17.1855 94.1243C17.1855 93.5428 17.0917 93.0363 16.9041 92.6049C16.7259 92.1734 16.468 91.8404 16.1303 91.606C15.7927 91.3715 15.3894 91.2542 14.9204 91.2542C14.4608 91.2542 14.0622 91.3715 13.7245 91.606C13.3869 91.8404 13.1243 92.1734 12.9367 92.6049C12.7585 93.0363 12.6694 93.5428 12.6694 94.1243C12.6694 94.7058 12.7585 95.2123 12.9367 95.6438C13.1243 96.0752 13.3869 96.4082 13.7245 96.6426C14.0622 96.8771 14.4608 96.9944 14.9204 96.9944ZM23.4388 97.7682V90.8181C23.6827 90.7149 24.0157 90.6118 24.4377 90.5086C24.8692 90.396 25.385 90.3398 25.9853 90.3398C26.1823 90.3398 26.3746 90.3538 26.5622 90.382C26.7591 90.4007 26.9326 90.4289 27.0827 90.4664C27.2422 90.4945 27.3594 90.5226 27.4344 90.5508L27.2234 91.4512C27.139 91.4137 26.9795 91.3762 26.745 91.3386C26.5106 91.2918 26.2104 91.2683 25.8446 91.2683C25.4882 91.2683 25.1928 91.2964 24.9583 91.3527C24.7238 91.3996 24.569 91.4418 24.494 91.4793V97.7682H23.4388ZM31.9496 97.9229C31.0961 97.9229 30.402 97.7588 29.8674 97.4305C29.3421 97.1022 28.9529 96.652 28.6996 96.0799C28.4558 95.5078 28.3339 94.8559 28.3339 94.1243C28.3339 93.2708 28.4886 92.5626 28.7981 91.9999C29.1076 91.4371 29.5063 91.0151 29.994 90.7337C30.4911 90.4523 31.0116 90.3116 31.5556 90.3116C32.1653 90.3116 32.6905 90.4429 33.1314 90.7055C33.5816 90.9588 33.9286 91.3527 34.1725 91.8873C34.4163 92.4126 34.5383 93.0832 34.5383 93.8992C34.5383 93.9649 34.5336 94.0446 34.5242 94.1384C34.5242 94.2228 34.5195 94.3025 34.5101 94.3775H29.4312C29.4687 95.2029 29.6892 95.8454 30.0925 96.305C30.5052 96.7552 31.143 96.9803 32.0059 96.9803C32.4842 96.9803 32.8734 96.9381 33.1736 96.8537C33.4831 96.7599 33.7035 96.6802 33.8348 96.6145L34.0177 97.5009C33.8864 97.5759 33.6285 97.665 33.2439 97.7682C32.8687 97.8713 32.4373 97.9229 31.9496 97.9229ZM29.4594 93.5193H33.469C33.4596 93.041 33.3799 92.633 33.2299 92.2953C33.0798 91.9483 32.8641 91.6857 32.5827 91.5075C32.3107 91.3199 31.973 91.2261 31.5697 91.2261C31.157 91.2261 30.7959 91.334 30.4864 91.5497C30.1769 91.7654 29.933 92.0468 29.7548 92.3938C29.586 92.7409 29.4875 93.116 29.4594 93.5193ZM39.5856 97.9229C38.8165 97.9229 38.174 97.7682 37.6582 97.4586C37.1423 97.1398 36.7531 96.6942 36.4904 96.1221C36.2278 95.55 36.0965 94.8887 36.0965 94.1384C36.0965 93.3786 36.2325 92.7127 36.5045 92.1406C36.7765 91.5684 37.1658 91.1229 37.6722 90.804C38.1881 90.4758 38.7978 90.3116 39.5012 90.3116C39.8858 90.3116 40.2515 90.3444 40.5986 90.4101C40.9456 90.4758 41.2176 90.5602 41.4146 90.6633L41.1473 91.5497C40.9597 91.4653 40.7487 91.3949 40.5142 91.3386C40.2797 91.2824 39.9702 91.2542 39.5856 91.2542C38.8071 91.2542 38.2115 91.5075 37.7989 92.014C37.3955 92.5204 37.1939 93.2286 37.1939 94.1384C37.1939 94.7011 37.2783 95.1982 37.4471 95.6297C37.616 96.0518 37.888 96.3847 38.2631 96.6286C38.6383 96.8631 39.1354 96.9803 39.7544 96.9803C40.1202 96.9803 40.4391 96.9381 40.7111 96.8537C40.9925 96.7693 41.1989 96.6942 41.3302 96.6286L41.5412 97.529C41.363 97.6228 41.091 97.7119 40.7252 97.7963C40.3594 97.8807 39.9795 97.9229 39.5856 97.9229ZM46.2109 97.9229C45.3574 97.9229 44.6633 97.7588 44.1287 97.4305C43.6034 97.1022 43.2142 96.652 42.961 96.0799C42.7171 95.5078 42.5952 94.8559 42.5952 94.1243C42.5952 93.2708 42.7499 92.5626 43.0594 91.9999C43.369 91.4371 43.7676 91.0151 44.2553 90.7337C44.7524 90.4523 45.273 90.3116 45.817 90.3116C46.4266 90.3116 46.9519 90.4429 47.3927 90.7055C47.8429 90.9588 48.1899 91.3527 48.4338 91.8873C48.6777 92.4126 48.7996 93.0832 48.7996 93.8992C48.7996 93.9649 48.7949 94.0446 48.7855 94.1384C48.7855 94.2228 48.7808 94.3025 48.7714 94.3775H43.6925C43.7301 95.2029 43.9505 95.8454 44.3538 96.305C44.7665 96.7552 45.4043 96.9803 46.2672 96.9803C46.7455 96.9803 47.1348 96.9381 47.4349 96.8537C47.7444 96.7599 47.9648 96.6802 48.0961 96.6145L48.279 97.5009C48.1477 97.5759 47.8898 97.665 47.5052 97.7682C47.1301 97.8713 46.6986 97.9229 46.2109 97.9229ZM43.7207 93.5193H47.7303C47.721 93.041 47.6412 92.633 47.4912 92.2953C47.3411 91.9483 47.1254 91.6857 46.844 91.5075C46.572 91.3199 46.2343 91.2261 45.831 91.2261C45.4183 91.2261 45.0572 91.334 44.7477 91.5497C44.4382 91.7654 44.1943 92.0468 44.0161 92.3938C43.8473 92.7409 43.7488 93.116 43.7207 93.5193ZM50.7799 97.7682V90.7337C51.0707 90.6586 51.4505 90.5742 51.9195 90.4804C52.3885 90.3866 52.9512 90.3398 53.6078 90.3398C54.3675 90.3398 54.9584 90.4804 55.3805 90.7618C55.8025 91.0432 56.098 91.4371 56.2668 91.9436C56.445 92.4407 56.5341 93.0222 56.5341 93.6882V97.7682H55.4789V93.9836C55.4789 93.3177 55.418 92.7878 55.296 92.3938C55.1741 91.9999 54.9678 91.7138 54.677 91.5356C54.3862 91.3574 53.9829 91.2683 53.4671 91.2683C53.0731 91.2683 52.7261 91.2918 52.426 91.3386C52.1258 91.3855 51.9289 91.4231 51.8351 91.4512V97.7682H50.7799ZM61.195 97.9229C60.576 97.9229 60.0882 97.8151 59.7318 97.5993C59.3754 97.3836 59.1222 97.06 58.9721 96.6286C58.8314 96.1971 58.7611 95.6578 58.7611 95.0106V88.3701L59.8162 88.1872V90.4804H62.6722V91.3668H59.8162V95.0951C59.8162 95.6109 59.8725 96.0049 59.9851 96.2769C60.107 96.5489 60.2758 96.7364 60.4916 96.8396C60.7167 96.9334 60.9793 96.9803 61.2794 96.9803C61.6358 96.9803 61.9313 96.9381 62.1658 96.8537C62.4096 96.7693 62.6019 96.6942 62.7426 96.6286L62.9677 97.4868C62.827 97.5712 62.5925 97.665 62.2642 97.7682C61.9453 97.8713 61.5889 97.9229 61.195 97.9229ZM67.3867 97.7682C67.4242 96.9053 67.4664 96.0471 67.5133 95.1935C67.5602 94.34 67.6118 93.5053 67.668 92.6893C67.7243 91.8639 67.7853 91.062 67.8509 90.2835C67.9166 89.4956 67.9916 88.7406 68.076 88.0184H69.0609C69.3329 88.4686 69.6189 88.9938 69.9191 89.5941C70.2286 90.185 70.5381 90.8087 70.8476 91.4653C71.1572 92.1124 71.4526 92.7502 71.734 93.3786C72.0247 94.0071 72.2827 94.5745 72.5078 95.081C72.7329 94.5745 72.9861 94.0071 73.2675 93.3786C73.5583 92.7502 73.8584 92.1124 74.1679 91.4653C74.4774 90.8087 74.7869 90.185 75.0965 89.5941C75.406 88.9938 75.6921 88.4686 75.9547 88.0184H76.8832C76.9676 88.7406 77.0427 89.4956 77.1083 90.2835C77.1834 91.062 77.2443 91.8639 77.2912 92.6893C77.3475 93.5053 77.3991 94.34 77.446 95.1935C77.5023 96.0471 77.5492 96.9053 77.5867 97.7682H76.4893C76.4518 96.8115 76.4096 95.8735 76.3627 94.9544C76.3252 94.0258 76.2783 93.1301 76.222 92.2672C76.1657 91.4043 76.1 90.5883 76.025 89.8192C75.9312 89.9974 75.7812 90.2929 75.5748 90.7055C75.3778 91.1089 75.1527 91.5778 74.8995 92.1124C74.6463 92.6377 74.3883 93.177 74.1257 93.7304C73.8725 94.2838 73.638 94.7949 73.4223 95.2639C73.2159 95.7329 73.0565 96.1033 72.9439 96.3753H72.0013C71.8887 96.1033 71.7246 95.7329 71.5089 95.2639C71.3025 94.7949 71.068 94.2838 70.8054 93.7304C70.5522 93.177 70.2989 92.6377 70.0457 92.1124C69.7925 91.5778 69.5627 91.1089 69.3563 90.7055C69.1594 90.2929 69.014 89.9974 68.9202 89.8192C68.8452 90.5883 68.7795 91.4043 68.7232 92.2672C68.6669 93.1301 68.6154 94.0258 68.5685 94.9544C68.5309 95.8735 68.4934 96.8115 68.4559 97.7682H67.3867ZM82.7097 97.937C82.0626 97.937 81.4857 97.7822 80.9793 97.4727C80.4728 97.1538 80.0742 96.7083 79.7834 96.1362C79.502 95.564 79.3613 94.8934 79.3613 94.1243C79.3613 93.3552 79.502 92.6893 79.7834 92.1265C80.0742 91.5544 80.4728 91.1089 80.9793 90.79C81.4857 90.4711 82.0626 90.3116 82.7097 90.3116C83.3663 90.3116 83.9478 90.4711 84.4543 90.79C84.9608 91.1089 85.3547 91.5544 85.6361 92.1265C85.9269 92.6893 86.0722 93.3552 86.0722 94.1243C86.0722 94.8934 85.9269 95.564 85.6361 96.1362C85.3547 96.7083 84.9608 97.1538 84.4543 97.4727C83.9572 97.7822 83.3757 97.937 82.7097 97.937ZM82.7097 96.9944C83.1787 96.9944 83.582 96.8771 83.9197 96.6426C84.2573 96.4082 84.5153 96.0752 84.6935 95.6438C84.8811 95.2123 84.9749 94.7058 84.9749 94.1243C84.9749 93.5428 84.8811 93.0363 84.6935 92.6049C84.5153 92.1734 84.2573 91.8404 83.9197 91.606C83.582 91.3715 83.1787 91.2542 82.7097 91.2542C82.2502 91.2542 81.8515 91.3715 81.5139 91.606C81.1762 91.8404 80.9136 92.1734 80.726 92.6049C80.5478 93.0363 80.4587 93.5428 80.4587 94.1243C80.4587 94.7058 80.5478 95.2123 80.726 95.6438C80.9136 96.0752 81.1762 96.4082 81.5139 96.6426C81.8515 96.8771 82.2502 96.9944 82.7097 96.9944ZM91.1928 97.937C90.48 97.937 89.8515 97.7869 89.3075 97.4868C88.7635 97.1773 88.3415 96.7411 88.0413 96.1784C87.7412 95.6062 87.5911 94.9262 87.5911 94.1384C87.5911 93.388 87.7178 92.7268 87.971 92.1546C88.2336 91.5825 88.6088 91.137 89.0965 90.8181C89.5936 90.4898 90.1892 90.3257 90.8833 90.3257C91.3335 90.3257 91.7274 90.3913 92.0651 90.5226C92.4121 90.6446 92.67 90.7665 92.8389 90.8884V87.0335L93.88 86.8506V97.5431C93.7018 97.5993 93.4813 97.6603 93.2187 97.726C92.9561 97.7822 92.656 97.8291 92.3183 97.8666C91.99 97.9135 91.6149 97.937 91.1928 97.937ZM91.2069 96.9944C91.6195 96.9944 91.9572 96.9756 92.2198 96.9381C92.4918 96.8912 92.6982 96.849 92.8389 96.8115V91.8733C92.6794 91.742 92.4355 91.6106 92.1073 91.4793C91.779 91.3386 91.4085 91.2683 90.9958 91.2683C90.5738 91.2683 90.2126 91.3433 89.9125 91.4934C89.6218 91.6341 89.3826 91.8358 89.195 92.0984C89.0168 92.361 88.8855 92.6658 88.8011 93.0129C88.726 93.3599 88.6885 93.7304 88.6885 94.1243C88.6885 94.734 88.7917 95.2545 88.998 95.686C89.2138 96.108 89.5092 96.4316 89.8844 96.6567C90.2689 96.8818 90.7098 96.9944 91.2069 96.9944ZM99.0849 97.9089C98.3533 97.9089 97.7718 97.7729 97.3404 97.5009C96.9183 97.2195 96.6134 96.8255 96.4258 96.3191C96.2476 95.8126 96.1586 95.2264 96.1586 94.5604V90.4804H97.2138V94.2791C97.2138 94.9356 97.2794 95.4609 97.4107 95.8548C97.542 96.2487 97.7531 96.5348 98.0438 96.713C98.344 96.8818 98.7379 96.9662 99.2256 96.9662C99.6195 96.9662 99.9666 96.9475 100.267 96.91C100.576 96.8631 100.778 96.8255 100.872 96.7974V90.4804H101.913V97.5149C101.631 97.59 101.251 97.6744 100.773 97.7682C100.304 97.862 99.7415 97.9089 99.0849 97.9089ZM106.25 97.8948C105.8 97.876 105.425 97.801 105.124 97.6697C104.834 97.5384 104.618 97.3367 104.477 97.0647C104.337 96.7833 104.266 96.4082 104.266 95.9392V87.0335L105.321 86.8506V95.8689C105.321 96.3191 105.401 96.6098 105.561 96.7411C105.729 96.8724 106.011 96.9662 106.405 97.0225L106.25 97.8948ZM111.156 97.9229C110.303 97.9229 109.609 97.7588 109.074 97.4305C108.549 97.1022 108.159 96.652 107.906 96.0799C107.662 95.5078 107.54 94.8559 107.54 94.1243C107.54 93.2708 107.695 92.5626 108.005 91.9999C108.314 91.4371 108.713 91.0151 109.201 90.7337C109.698 90.4523 110.218 90.3116 110.762 90.3116C111.372 90.3116 111.897 90.4429 112.338 90.7055C112.788 90.9588 113.135 91.3527 113.379 91.8873C113.623 92.4126 113.745 93.0832 113.745 93.8992C113.745 93.9649 113.74 94.0446 113.731 94.1384C113.731 94.2228 113.726 94.3025 113.717 94.3775H108.638C108.675 95.2029 108.896 95.8454 109.299 96.305C109.712 96.7552 110.349 96.9803 111.212 96.9803C111.691 96.9803 112.08 96.9381 112.38 96.8537C112.69 96.7599 112.91 96.6802 113.041 96.6145L113.224 97.5009C113.093 97.5759 112.835 97.665 112.45 97.7682C112.075 97.8713 111.644 97.9229 111.156 97.9229ZM108.666 93.5193H112.676C112.666 93.041 112.586 92.633 112.436 92.2953C112.286 91.9483 112.071 91.6857 111.789 91.5075C111.517 91.3199 111.18 91.2261 110.776 91.2261C110.364 91.2261 110.002 91.334 109.693 91.5497C109.383 91.7654 109.14 92.0468 108.961 92.3938C108.793 92.7409 108.694 93.116 108.666 93.5193ZM117.287 97.937C116.658 97.937 116.166 97.8807 115.81 97.7682C115.462 97.665 115.228 97.5853 115.106 97.529L115.359 96.6004C115.462 96.638 115.674 96.7177 115.992 96.8396C116.311 96.9615 116.743 97.0225 117.287 97.0225C117.803 97.0225 118.22 96.9428 118.539 96.7833C118.858 96.6239 119.017 96.3472 119.017 95.9533C119.017 95.7 118.961 95.4984 118.848 95.3483C118.736 95.1889 118.553 95.0435 118.3 94.9122C118.056 94.7809 117.718 94.6308 117.287 94.462C116.921 94.3119 116.583 94.1524 116.274 93.9836C115.964 93.8148 115.711 93.5991 115.514 93.3364C115.326 93.0738 115.233 92.7362 115.233 92.3235C115.233 91.9202 115.336 91.5684 115.542 91.2683C115.749 90.9682 116.039 90.7337 116.414 90.5649C116.799 90.396 117.254 90.3116 117.779 90.3116C118.267 90.3116 118.68 90.3538 119.017 90.4382C119.355 90.5226 119.594 90.5977 119.735 90.6633L119.496 91.5778C119.374 91.5122 119.177 91.4371 118.905 91.3527C118.633 91.2589 118.248 91.212 117.751 91.212C117.357 91.212 117.015 91.2964 116.724 91.4653C116.433 91.6247 116.288 91.8826 116.288 92.2391C116.288 92.4923 116.349 92.6986 116.471 92.8581C116.593 93.0082 116.776 93.1442 117.019 93.2661C117.263 93.388 117.563 93.5193 117.92 93.66C118.323 93.8195 118.684 93.9883 119.003 94.1665C119.331 94.3353 119.594 94.5558 119.791 94.8278C119.988 95.0998 120.087 95.4609 120.087 95.9111C120.087 96.3519 119.974 96.7271 119.749 97.0366C119.524 97.3367 119.2 97.5618 118.778 97.7119C118.365 97.862 117.868 97.937 117.287 97.937Z" fill="white"/>
</svg>
