<svg width="126" height="101" viewBox="0 0 126 101" fill="none" xmlns="http://www.w3.org/2000/svg">
<path d="M38.3796 0.506836H73.6707C75.3829 0.506836 76.775 1.90096 76.7751 3.625V10.2363H94.8142C96.5265 10.2363 97.9186 11.6304 97.9187 13.3545V50.3945C97.9187 52.1187 96.5266 53.5137 94.8142 53.5137H38.3796C36.6672 53.5137 35.2751 52.1187 35.2751 50.3945V3.625C35.2753 1.90096 36.6673 0.506836 38.3796 0.506836Z" fill="#F5F5F5" stroke="black" stroke-width="1.01341"/>
<path d="M42.4563 42.423C42.9331 41.2716 43.4044 40.3807 43.8705 39.7511C44.3363 39.1215 44.943 38.6193 45.6912 38.2448C46.1284 38.0152 46.5838 37.8506 47.0587 37.751C47.5328 37.6517 47.9841 37.5251 48.4127 37.3719C48.8405 37.2189 49.2343 37.0109 49.5939 36.7488C49.9532 36.4867 50.2501 36.0729 50.4846 35.5067C50.8803 34.5505 50.8949 33.7721 50.5275 33.1725C50.1602 32.5729 49.6166 32.1227 48.8975 31.8226C47.8666 31.3924 47.0378 31.3844 46.4109 31.7978C45.7834 32.2114 45.219 32.8859 44.718 33.8213L40.9561 32.2514C41.3521 31.2952 41.867 30.4912 42.5015 29.8403C43.1356 29.1895 43.8528 28.7104 44.6527 28.4031C45.4523 28.0962 46.3162 27.9643 47.2446 28.0082C48.1721 28.052 49.1223 28.2769 50.0947 28.6827C52.1943 29.559 53.6736 30.6802 54.5336 32.0462C55.3927 33.4124 55.4228 35.0614 54.6226 36.9938C54.3639 37.6187 54.0742 38.1385 53.7542 38.5544C53.4336 38.9699 53.0682 39.3153 52.6581 39.5907C52.2476 39.8656 51.7889 40.0922 51.2824 40.27C50.7753 40.4477 50.2162 40.6147 49.6042 40.7713C49.0388 40.9247 48.5666 41.0883 48.187 41.2614C47.8073 41.4352 47.4843 41.6497 47.2195 41.905C46.9538 42.1605 46.7309 42.4514 46.5509 42.7762C46.3703 43.1017 46.1914 43.4794 46.0139 43.9084L42.4563 42.423ZM40 48.0254L41.5881 44.1897L45.5249 45.8328L43.9368 49.6685L40 48.0254Z" fill="#90AF13"/>
<path d="M55.6973 51.1221H81.0324" stroke="black" stroke-width="1.01341"/>
<path d="M4.51063 81.0093C2.52098 79.0458 2.49309 75.8347 4.44869 73.8371L27.7062 50.0771L34.9116 57.187L11.6541 80.9466C9.69848 82.9447 6.50028 82.9727 4.51063 81.0093Z" fill="#777777"/>
<path opacity="0.2" d="M46.009 59.1695C57.2898 59.1435 66.4137 49.9409 66.3877 38.615C66.3618 27.2891 57.1959 18.1287 45.9151 18.1548C34.6343 18.1808 25.5104 27.3834 25.5364 38.7093C25.5623 50.0352 34.7283 59.1956 46.009 59.1695Z" fill="#DCF0FF"/>
<path opacity="0.5" d="M26.8423 45.8952C27.5311 47.735 28.491 49.4946 29.7238 51.1112L66.3784 38.3821C66.3509 36.3923 66.0355 34.4071 65.4353 32.4927L26.8423 45.8952Z" fill="white"/>
<path opacity="0.5" d="M25.5801 40.0226C25.6564 41.1862 25.8315 42.3435 26.1048 43.4824L64.5329 30.1376C64.0537 29.0852 63.4831 28.0658 62.8177 27.0913L25.5801 40.0226Z" fill="white"/>
<path d="M62.4799 21.7874C53.1946 12.6252 38.2694 12.7553 29.1437 22.0782C20.0179 31.4006 20.1476 46.3856 29.4333 55.5478C38.7186 64.71 53.6438 64.5798 62.7695 55.257C71.8952 45.9341 71.7656 30.9492 62.4799 21.7874ZM32.3493 52.5687C24.7024 45.0235 24.5958 32.6832 32.1109 25.0054C39.626 17.328 51.9171 17.2209 59.5639 24.7661C67.2107 32.3113 67.3174 44.6516 59.8023 52.3294C52.2876 60.0068 39.9961 60.1139 32.3493 52.5687Z" fill="#777777"/>
<path d="M29.3386 59.3726L10.9485 78.1595" stroke="white" stroke-width="1.01341" stroke-miterlimit="10" stroke-linecap="round" stroke-linejoin="round"/>
<path d="M47.648 16.7006C41.8538 16.1137 35.8467 18.1216 31.5589 22.0781C27.2711 26.035 24.7732 31.8758 24.8683 37.722" stroke="white" stroke-width="1.01341" stroke-miterlimit="10" stroke-linecap="round" stroke-linejoin="round"/>
<path d="M7.90063 98.0001V87.9729H8.79772C9.18357 88.3877 9.58871 88.8604 10.0132 89.3909C10.4376 89.9214 10.862 90.4761 11.2865 91.0549C11.7205 91.624 12.1401 92.1979 12.5453 92.7767C12.9504 93.3555 13.3218 93.9101 13.6594 94.4407C14.0067 94.9712 14.3009 95.4487 14.542 95.8731V87.9729H15.6562V98.0001H14.7157C14.4938 97.595 14.2092 97.1175 13.862 96.5676C13.5147 96.0082 13.1337 95.4198 12.7189 94.8024C12.3041 94.1754 11.8749 93.5532 11.4311 92.9359C10.9971 92.3089 10.5678 91.7253 10.1434 91.1851C9.72858 90.6353 9.35238 90.1626 9.01476 89.7671V98.0001H7.90063ZM21.167 98.1737C20.5014 98.1737 19.9082 98.0146 19.3873 97.6962C18.8664 97.3683 18.4564 96.9101 18.1574 96.3217C17.868 95.7333 17.7233 95.0436 17.7233 94.2526C17.7233 93.4616 17.868 92.7767 18.1574 92.1979C18.4564 91.6095 18.8664 91.1513 19.3873 90.8234C19.9082 90.4954 20.5014 90.3314 21.167 90.3314C21.8422 90.3314 22.4403 90.4954 22.9612 90.8234C23.4821 91.1513 23.8872 91.6095 24.1766 92.1979C24.4756 92.7767 24.6252 93.4616 24.6252 94.2526C24.6252 95.0436 24.4756 95.7333 24.1766 96.3217C23.8872 96.9101 23.4821 97.3683 22.9612 97.6962C22.45 98.0146 21.8519 98.1737 21.167 98.1737ZM21.167 97.2043C21.6493 97.2043 22.0641 97.0837 22.4114 96.8426C22.7586 96.6014 23.0239 96.259 23.2072 95.8152C23.4001 95.3715 23.4966 94.8506 23.4966 94.2526C23.4966 93.6545 23.4001 93.1336 23.2072 92.6899C23.0239 92.2462 22.7586 91.9037 22.4114 91.6626C22.0641 91.4214 21.6493 91.3008 21.167 91.3008C20.6944 91.3008 20.2844 91.4214 19.9371 91.6626C19.5899 91.9037 19.3198 92.2462 19.1269 92.6899C18.9436 93.1336 18.8519 93.6545 18.8519 94.2526C18.8519 94.8506 18.9436 95.3715 19.1269 95.8152C19.3198 96.259 19.5899 96.6014 19.9371 96.8426C20.2844 97.0837 20.6944 97.2043 21.167 97.2043ZM33.1978 98.1737C32.4647 98.1737 31.8184 98.0194 31.259 97.7107C30.6995 97.3924 30.2654 96.9438 29.9567 96.3651C29.6481 95.7767 29.4937 95.0773 29.4937 94.267C29.4937 93.4953 29.6239 92.8153 29.8844 92.2269C30.1545 91.6385 30.5403 91.1803 31.0419 90.8523C31.5532 90.5147 32.1657 90.3459 32.8795 90.3459C33.3425 90.3459 33.7477 90.4134 34.0949 90.5484C34.4518 90.6738 34.7171 90.7992 34.8907 90.9246V86.9601L35.9615 86.772V97.7686C35.7782 97.8265 35.5515 97.8892 35.2814 97.9567C35.0113 98.0146 34.7026 98.0628 34.3554 98.1014C34.0178 98.1496 33.6319 98.1737 33.1978 98.1737ZM33.2123 97.2043C33.6367 97.2043 33.984 97.185 34.2541 97.1464C34.5338 97.0982 34.746 97.0548 34.8907 97.0162V91.9375C34.7268 91.8024 34.476 91.6674 34.1383 91.5324C33.8007 91.3877 33.4197 91.3153 32.9953 91.3153C32.5612 91.3153 32.1898 91.3925 31.8811 91.5468C31.5821 91.6915 31.3361 91.8989 31.1432 92.169C30.9599 92.4391 30.8249 92.7526 30.7381 93.1095C30.6609 93.4664 30.6223 93.8474 30.6223 94.2526C30.6223 94.8796 30.7284 95.4149 30.9406 95.8587C31.1625 96.2927 31.4664 96.6255 31.8522 96.857C32.2477 97.0885 32.7011 97.2043 33.2123 97.2043ZM41.6762 98.1593C40.7984 98.1593 40.0846 97.9905 39.5348 97.6528C38.9946 97.3152 38.5943 96.8522 38.3339 96.2638C38.0831 95.6754 37.9577 95.005 37.9577 94.2526C37.9577 93.3748 38.1168 92.6465 38.4351 92.0677C38.7535 91.4889 39.1634 91.0549 39.665 90.7655C40.1763 90.4761 40.7116 90.3314 41.2711 90.3314C41.8981 90.3314 42.4383 90.4665 42.8917 90.7365C43.3547 90.997 43.7116 91.4021 43.9624 91.952C44.2132 92.4921 44.3386 93.1818 44.3386 94.0211C44.3386 94.0886 44.3338 94.1706 44.3241 94.267C44.3241 94.3539 44.3193 94.4358 44.3096 94.513H39.0863C39.1248 95.3619 39.3515 96.0226 39.7663 96.4953C40.1907 96.9583 40.8467 97.1898 41.7341 97.1898C42.2261 97.1898 42.6264 97.1464 42.9351 97.0596C43.2534 96.9631 43.4801 96.8811 43.6151 96.8136L43.8032 97.7252C43.6682 97.8024 43.4029 97.894 43.0074 98.0001C42.6216 98.1062 42.1778 98.1593 41.6762 98.1593ZM39.1152 93.6304H43.2389C43.2293 93.1384 43.1473 92.7188 42.9929 92.3716C42.8386 92.0147 42.6167 91.7446 42.3274 91.5613C42.0476 91.3684 41.7004 91.2719 41.2856 91.2719C40.8611 91.2719 40.4898 91.3828 40.1714 91.6047C39.8531 91.8266 39.6023 92.1159 39.419 92.4729C39.2454 92.8298 39.1441 93.2156 39.1152 93.6304ZM47.9813 98.1737C47.335 98.1737 46.8286 98.1159 46.4621 98.0001C46.1051 97.894 45.864 97.812 45.7386 97.7541L45.999 96.7992C46.1051 96.8377 46.3222 96.9197 46.6502 97.0451C46.9781 97.1705 47.4218 97.2332 47.9813 97.2332C48.5119 97.2332 48.9411 97.1512 49.2691 96.9873C49.5971 96.8233 49.761 96.5387 49.761 96.1336C49.761 95.8731 49.7032 95.6657 49.5874 95.5114C49.4717 95.3474 49.2836 95.1979 49.0231 95.0628C48.7723 94.9278 48.425 94.7735 47.9813 94.5998C47.6051 94.4455 47.2579 94.2815 46.9395 94.1079C46.6212 93.9342 46.3608 93.7124 46.1582 93.4423C45.9653 93.1722 45.8688 92.8249 45.8688 92.4005C45.8688 91.9857 45.9749 91.624 46.1871 91.3153C46.3994 91.0066 46.6984 90.7655 47.0842 90.5919C47.4797 90.4182 47.9476 90.3314 48.4877 90.3314C48.9893 90.3314 49.4138 90.3748 49.761 90.4616C50.1083 90.5484 50.3543 90.6256 50.499 90.6931L50.253 91.6336C50.1276 91.5661 49.925 91.4889 49.6453 91.4021C49.3655 91.3057 48.9701 91.2574 48.4588 91.2574C48.0537 91.2574 47.7016 91.3443 47.4026 91.5179C47.1035 91.6819 46.954 91.9471 46.954 92.3137C46.954 92.5741 47.0167 92.7864 47.1421 92.9503C47.2675 93.1047 47.4556 93.2445 47.7064 93.3699C47.9572 93.4953 48.2659 93.6304 48.6324 93.7751C49.0472 93.9391 49.4186 94.1127 49.7466 94.296C50.0842 94.4696 50.3543 94.6963 50.5568 94.976C50.7594 95.2558 50.8607 95.6271 50.8607 96.0902C50.8607 96.5435 50.7449 96.9294 50.5134 97.2477C50.2819 97.5564 49.9491 97.7879 49.5151 97.9422C49.0906 98.0966 48.5794 98.1737 47.9813 98.1737ZM52.649 98.0001V90.505H53.7342V98.0001H52.649ZM53.1988 88.7109C52.9866 88.7109 52.8033 88.6385 52.649 88.4938C52.5043 88.3491 52.432 88.1562 52.432 87.915C52.432 87.6835 52.5043 87.4954 52.649 87.3507C52.8033 87.2061 52.9866 87.1337 53.1988 87.1337C53.4111 87.1337 53.5895 87.2061 53.7342 87.3507C53.8885 87.4954 53.9657 87.6835 53.9657 87.915C53.9657 88.1562 53.8885 88.3491 53.7342 88.4938C53.5895 88.6385 53.4111 88.7109 53.1988 88.7109ZM58.5259 100.72C58.0532 100.72 57.6143 100.682 57.2092 100.604C56.8041 100.527 56.4568 100.44 56.1674 100.344L56.3844 99.3891C56.6256 99.4856 56.9439 99.5724 57.3394 99.6496C57.7349 99.7364 58.14 99.7798 58.5548 99.7798C59.1336 99.7798 59.6014 99.7075 59.9583 99.5628C60.3153 99.4181 60.5757 99.1866 60.7397 98.8683C60.9133 98.5499 61.0001 98.1303 61.0001 97.6094V97.1319C60.8651 97.2284 60.6336 97.349 60.3056 97.4937C59.9776 97.6287 59.558 97.6962 59.0468 97.6962C58.4584 97.6962 57.9085 97.5757 57.3973 97.3345C56.8957 97.0837 56.4906 96.693 56.1819 96.1625C55.8828 95.632 55.7333 94.9374 55.7333 94.0789C55.7333 93.3651 55.8732 92.7285 56.1529 92.169C56.4423 91.6095 56.8523 91.1706 57.3828 90.8523C57.923 90.5243 58.5645 90.3603 59.3072 90.3603C59.9825 90.3603 60.5371 90.4086 60.9712 90.505C61.4149 90.5919 61.7766 90.6787 62.0564 90.7655V97.5516C62.0564 98.6802 61.7622 99.4904 61.1738 99.9824C60.595 100.474 59.7124 100.72 58.5259 100.72ZM59.0902 96.7413C59.4857 96.7413 59.8522 96.6834 60.1899 96.5676C60.5371 96.4519 60.8024 96.3168 60.9857 96.1625V91.5034C60.8313 91.4552 60.6288 91.4118 60.378 91.3732C60.1272 91.3346 59.7751 91.3153 59.3217 91.3153C58.8008 91.3153 58.3571 91.4311 57.9905 91.6626C57.624 91.8941 57.3442 92.2221 57.1513 92.6465C56.9584 93.0613 56.8619 93.5436 56.8619 94.0934C56.8619 94.5661 56.9246 94.9712 57.05 95.3088C57.1754 95.6464 57.3442 95.9214 57.5565 96.1336C57.7687 96.3458 58.005 96.5001 58.2654 96.5966C58.5355 96.693 58.8105 96.7413 59.0902 96.7413ZM64.49 98.0001V90.7655C64.7891 90.6883 65.1797 90.6015 65.662 90.505C66.1444 90.4086 66.7231 90.3603 67.3984 90.3603C68.1797 90.3603 68.7874 90.505 69.2215 90.7944C69.6556 91.0838 69.9594 91.4889 70.133 92.0098C70.3163 92.5211 70.408 93.1191 70.408 93.804V98.0001H69.3228V94.1079C69.3228 93.423 69.2601 92.878 69.1347 92.4729C69.0093 92.0677 68.797 91.7735 68.498 91.5902C68.199 91.407 67.7842 91.3153 67.2537 91.3153C66.8485 91.3153 66.4916 91.3394 66.1829 91.3877C65.8743 91.4359 65.6717 91.4745 65.5752 91.5034V98.0001H64.49ZM77.6687 98.1737C77.0224 98.1737 76.516 98.1159 76.1494 98.0001C75.7925 97.894 75.5514 97.812 75.426 97.7541L75.6864 96.7992C75.7925 96.8377 76.0095 96.9197 76.3375 97.0451C76.6655 97.1705 77.1092 97.2332 77.6687 97.2332C78.1992 97.2332 78.6285 97.1512 78.9564 96.9873C79.2844 96.8233 79.4484 96.5387 79.4484 96.1336C79.4484 95.8731 79.3905 95.6657 79.2748 95.5114C79.159 95.3474 78.9709 95.1979 78.7105 95.0628C78.4597 94.9278 78.1124 94.7735 77.6687 94.5998C77.2925 94.4455 76.9452 94.2815 76.6269 94.1079C76.3086 93.9342 76.0481 93.7124 75.8456 93.4423C75.6526 93.1722 75.5562 92.8249 75.5562 92.4005C75.5562 91.9857 75.6623 91.624 75.8745 91.3153C76.0867 91.0066 76.3857 90.7655 76.7716 90.5919C77.1671 90.4182 77.6349 90.3314 78.1751 90.3314C78.6767 90.3314 79.1011 90.3748 79.4484 90.4616C79.7957 90.5484 80.0416 90.6256 80.1863 90.6931L79.9404 91.6336C79.815 91.5661 79.6124 91.4889 79.3326 91.4021C79.0529 91.3057 78.6574 91.2574 78.1462 91.2574C77.741 91.2574 77.3889 91.3443 77.0899 91.5179C76.7909 91.6819 76.6414 91.9471 76.6414 92.3137C76.6414 92.5741 76.7041 92.7864 76.8295 92.9503C76.9549 93.1047 77.143 93.2445 77.3938 93.3699C77.6446 93.4953 77.9532 93.6304 78.3198 93.7751C78.7346 93.9391 79.106 94.1127 79.4339 94.296C79.7715 94.4696 80.0416 94.6963 80.2442 94.976C80.4468 95.2558 80.5481 95.6271 80.5481 96.0902C80.5481 96.5435 80.4323 96.9294 80.2008 97.2477C79.9693 97.5564 79.6365 97.7879 79.2024 97.9422C78.778 98.0966 78.2667 98.1737 77.6687 98.1737ZM84.608 98.1593C84.0678 98.1593 83.5855 98.0821 83.1611 97.9278C82.7367 97.7734 82.4039 97.5226 82.1627 97.1754C81.9216 96.8281 81.801 96.3699 81.801 95.8008C81.801 95.2509 81.936 94.8072 82.2061 94.4696C82.4762 94.1223 82.8476 93.8715 83.3203 93.7172C83.8026 93.5629 84.3428 93.4857 84.9408 93.4857C85.2109 93.4857 85.4955 93.5098 85.7945 93.558C86.0935 93.6063 86.2816 93.6497 86.3588 93.6883V93.2542C86.3588 92.9262 86.3154 92.6127 86.2286 92.3137C86.1514 92.005 85.9874 91.7542 85.7366 91.5613C85.4858 91.3684 85.1048 91.2719 84.5936 91.2719C84.063 91.2719 83.6579 91.3105 83.3781 91.3877C83.0984 91.4648 82.891 91.5275 82.756 91.5758L82.6113 90.6497C82.7849 90.5726 83.0502 90.5002 83.4071 90.4327C83.764 90.3652 84.1836 90.3314 84.6659 90.3314C85.3508 90.3314 85.891 90.452 86.2865 90.6931C86.6916 90.9343 86.981 91.2671 87.1546 91.6915C87.3379 92.1063 87.4295 92.5838 87.4295 93.124V97.8265C87.227 97.8747 86.8652 97.9422 86.3443 98.029C85.8234 98.1159 85.2447 98.1593 84.608 98.1593ZM84.7672 97.2332C85.1048 97.2332 85.4087 97.2236 85.6788 97.2043C85.9488 97.1754 86.1755 97.1416 86.3588 97.103V94.5854C86.2623 94.5371 86.0984 94.4889 85.8669 94.4407C85.6353 94.3924 85.3363 94.3683 84.9698 94.3683C84.6611 94.3683 84.3476 94.4021 84.0293 94.4696C83.7109 94.5371 83.4408 94.6722 83.219 94.8747C83.0068 95.0773 82.9007 95.3812 82.9007 95.7863C82.9007 96.3265 83.0695 96.7027 83.4071 96.9149C83.7447 97.1271 84.1981 97.2332 84.7672 97.2332ZM91.5633 98.0001C91.3222 97.4889 91.0762 96.939 90.8254 96.3506C90.5746 95.7622 90.3286 95.1497 90.0875 94.513C89.8463 93.8764 89.6148 93.2253 89.3929 92.5597C89.1807 91.8844 88.9878 91.1996 88.8142 90.505H89.9572C90.1116 91.1706 90.3045 91.8893 90.536 92.661C90.7772 93.423 91.0328 94.1706 91.3029 94.9037C91.5826 95.6271 91.8479 96.2638 92.0987 96.8136C92.2916 96.4085 92.4894 95.9455 92.6919 95.4246C92.8945 94.9037 93.0922 94.3635 93.2852 93.804C93.4781 93.2349 93.6565 92.6706 93.8205 92.1111C93.9845 91.542 94.1244 91.0066 94.2401 90.505H95.3253C95.1517 91.1996 94.954 91.8844 94.7321 92.5597C94.5199 93.2253 94.2932 93.8764 94.052 94.513C93.8109 95.1497 93.5649 95.7622 93.3141 96.3506C93.073 96.939 92.827 97.4889 92.5762 98.0001H91.5633ZM100.076 98.1593C99.1982 98.1593 98.4844 97.9905 97.9345 97.6528C97.3943 97.3152 96.994 96.8522 96.7336 96.2638C96.4828 95.6754 96.3574 95.005 96.3574 94.2526C96.3574 93.3748 96.5165 92.6465 96.8349 92.0677C97.1532 91.4889 97.5632 91.0549 98.0648 90.7655C98.576 90.4761 99.1114 90.3314 99.6708 90.3314C100.298 90.3314 100.838 90.4665 101.291 90.7365C101.754 90.997 102.111 91.4021 102.362 91.952C102.613 92.4921 102.738 93.1818 102.738 94.0211C102.738 94.0886 102.733 94.1706 102.724 94.267C102.724 94.3539 102.719 94.4358 102.709 94.513H97.486C97.5246 95.3619 97.7513 96.0226 98.166 96.4953C98.5905 96.9583 99.2464 97.1898 100.134 97.1898C100.626 97.1898 101.026 97.1464 101.335 97.0596C101.653 96.9631 101.88 96.8811 102.015 96.8136L102.203 97.7252C102.068 97.8024 101.803 97.894 101.407 98.0001C101.021 98.1062 100.578 98.1593 100.076 98.1593ZM97.5149 93.6304H101.639C101.629 93.1384 101.547 92.7188 101.393 92.3716C101.238 92.0147 101.016 91.7446 100.727 91.5613C100.447 91.3684 100.1 91.2719 99.6853 91.2719C99.2609 91.2719 98.8895 91.3828 98.5712 91.6047C98.2529 91.8266 98.0021 92.1159 97.8188 92.4729C97.6451 92.8298 97.5439 93.2156 97.5149 93.6304ZM108.045 98.1737C107.312 98.1737 106.666 98.0194 106.106 97.7107C105.547 97.3924 105.113 96.9438 104.804 96.3651C104.495 95.7767 104.341 95.0773 104.341 94.267C104.341 93.4953 104.471 92.8153 104.732 92.2269C105.002 91.6385 105.388 91.1803 105.889 90.8523C106.4 90.5147 107.013 90.3459 107.727 90.3459C108.19 90.3459 108.595 90.4134 108.942 90.5484C109.299 90.6738 109.564 90.7992 109.738 90.9246V86.9601L110.809 86.772V97.7686C110.625 97.8265 110.399 97.8892 110.129 97.9567C109.859 98.0146 109.55 98.0628 109.203 98.1014C108.865 98.1496 108.479 98.1737 108.045 98.1737ZM108.059 97.2043C108.484 97.2043 108.831 97.185 109.101 97.1464C109.381 97.0982 109.593 97.0548 109.738 97.0162V91.9375C109.574 91.8024 109.323 91.6674 108.986 91.5324C108.648 91.3877 108.267 91.3153 107.842 91.3153C107.408 91.3153 107.037 91.3925 106.728 91.5468C106.429 91.6915 106.183 91.8989 105.99 92.169C105.807 92.4391 105.672 92.7526 105.585 93.1095C105.508 93.4664 105.47 93.8474 105.47 94.2526C105.47 94.8796 105.576 95.4149 105.788 95.8587C106.01 96.2927 106.314 96.6255 106.699 96.857C107.095 97.0885 107.548 97.2043 108.059 97.2043Z" fill="white"/>
</svg>
