<svg width="217" height="96" viewBox="0 0 217 96" fill="none" xmlns="http://www.w3.org/2000/svg">
<path d="M25.216 16.2879C31.744 16.2879 37.2053 18.8479 41.6 23.9679C45.8667 29.0026 48 35.1892 48 42.5279C48 49.8239 45.8667 55.9892 41.6 61.0239C37.2053 66.1439 31.744 68.7039 25.216 68.7039C18.7733 68.7039 13.5253 66.1439 9.47202 61.0239C5.50402 56.0746 3.52002 49.9092 3.52002 42.5279C3.52002 35.1039 5.50402 28.9172 9.47202 23.9679C13.5253 18.8479 18.7733 16.2879 25.216 16.2879ZM25.216 65.6959C30.848 65.6959 35.52 63.4559 39.232 58.9759C42.944 54.4532 44.8 48.9706 44.8 42.5279C44.8 36.0426 42.944 30.5599 39.232 26.0799C35.52 21.5999 30.848 19.3599 25.216 19.3599C19.6267 19.3599 15.104 21.6212 11.648 26.1439C8.36269 30.4532 6.72002 35.9146 6.72002 42.5279C6.72002 49.0986 8.36269 54.5599 11.648 58.9119C15.104 63.4346 19.6267 65.6959 25.216 65.6959ZM63.4695 47.0079C67.3948 49.4399 70.1042 51.5306 71.5975 53.2799C73.0908 55.0292 73.8375 56.9066 73.8375 58.9119C73.8375 59.6799 73.7522 60.5332 73.5815 61.4719C73.0695 64.0319 71.8322 65.9946 69.8695 67.3599C68.0775 68.6826 65.8802 69.3439 63.2775 69.3439C62.3388 69.3439 61.4002 69.2372 60.4615 69.0239C57.7735 68.5119 55.5975 67.6159 53.9335 66.3359L54.0615 62.8159C56.8775 65.3332 59.9708 66.5919 63.3415 66.5919C67.1815 66.5919 69.4855 64.5439 70.2535 60.4479C70.3388 60.0212 70.3815 59.5946 70.3815 59.1679C70.3815 56.9492 68.9522 54.7732 66.0935 52.6399C63.4482 50.8479 60.7815 49.0559 58.0935 47.2639C55.2348 44.9172 53.8055 42.3572 53.8055 39.5839C53.8055 38.9866 53.8695 38.3466 53.9975 37.6639C54.9362 32.8852 57.9655 30.4959 63.0855 30.4959C67.3948 30.4959 70.7868 31.7759 73.2615 34.3359L72.9415 37.3439C71.6188 36.0212 70.4455 35.1252 69.4215 34.6559C68.6108 34.2292 67.4162 33.8879 65.8375 33.6319C65.0695 33.5039 64.3655 33.4399 63.7255 33.4399C60.1415 33.4399 58.0082 35.1466 57.3255 38.5599C57.1975 39.1146 57.1335 39.5839 57.1335 39.9679C57.1335 42.1012 59.2455 44.4479 63.4695 47.0079ZM107.926 9.43994H111.062V67.9999H107.926V63.8399V61.5999C107.03 62.8799 105.856 64.1599 104.406 65.4399C101.419 68.0426 98.0268 69.3439 94.2295 69.3439C89.6215 69.3439 85.8455 67.4239 82.9015 63.5839C80.2135 60.0426 78.8695 55.8826 78.8695 51.1039C78.8695 49.8666 78.9762 48.6079 79.1895 47.3279C80.0428 42.0372 82.3255 37.7706 86.0375 34.5279C89.1522 31.7972 93.3122 30.4319 98.5175 30.4319C100.694 30.4319 103.83 30.6239 107.926 31.0079V9.43994ZM107.926 50.5919C108.011 40.7786 108.011 35.2959 107.926 34.1439C102.379 33.7172 99.0082 33.5039 97.8135 33.5039C94.1442 33.2479 90.8162 34.4426 87.8295 37.0879C86.0375 38.6239 84.6295 40.7786 83.6055 43.5519C82.6668 46.0692 82.1975 48.6292 82.1975 51.2319C82.1975 54.4746 82.9015 57.2692 84.3095 59.6159C86.8268 63.9252 90.0695 66.0799 94.0375 66.0799C97.1095 66.0799 100.032 64.8852 102.806 62.4959C106.176 59.5519 107.883 55.5839 107.926 50.5919ZM138.659 30.4319C142.03 30.4746 146.211 30.7732 151.203 31.3279V67.9999H148.003V63.8399V61.5999C147.15 62.8799 145.998 64.1599 144.547 65.4399C141.56 68.0426 138.168 69.3439 134.371 69.3439C129.763 69.3439 125.987 67.4239 123.043 63.5839C120.355 60.0426 119.011 55.8826 119.011 51.1039C119.011 49.8666 119.118 48.6079 119.331 47.3279C120.184 42.0372 122.467 37.7706 126.179 34.5279C129.635 31.4559 133.795 30.0906 138.659 30.4319ZM148.003 50.5919C148.003 50.5919 148.003 45.1092 148.003 34.1439C142.499 33.7172 139.15 33.5039 137.955 33.5039C134.243 33.2479 130.894 34.4426 127.907 37.0879C126.158 38.6239 124.771 40.7786 123.747 43.5519C122.808 46.0692 122.339 48.6292 122.339 51.2319C122.339 54.4746 123.022 57.2692 124.387 59.6159C126.947 63.9252 130.19 66.0799 134.115 66.0799C137.23 66.0799 140.174 64.8852 142.947 62.4959C146.275 59.5519 147.96 55.5839 148.003 50.5919ZM178.664 30.2399C182.077 30.2826 186.28 30.5599 191.272 31.0719V60.7039C191.314 64.2879 191.314 67.5946 191.272 70.6239C191.186 77.4506 189.096 82.6559 185 86.2399C182.994 88.0319 180.242 89.1839 176.744 89.6959C175.634 89.8239 174.418 89.8879 173.096 89.8879C171.005 89.8879 168.36 89.6319 165.16 89.1199L165.736 85.9839C168.936 86.4959 171.581 86.7519 173.672 86.7519C177.512 86.7519 180.754 85.5999 183.4 83.2959C186.386 80.6932 187.944 76.4266 188.072 70.4959C188.072 69.9839 188.072 69.3012 188.072 68.4479V63.7759V61.5359C187.176 62.8159 186.002 64.0959 184.552 65.3759C181.565 67.9786 178.173 69.2799 174.376 69.2799C169.725 69.2799 165.928 67.3599 162.984 63.5199C160.296 59.9786 158.952 55.7972 158.952 50.9759C158.952 49.7386 159.037 48.4799 159.208 47.1999C160.061 41.8666 162.365 37.5786 166.12 34.3359C169.618 31.2639 173.8 29.8986 178.664 30.2399ZM188.072 50.4639C188.157 40.6079 188.157 35.0826 188.072 33.8879C182.525 33.5039 179.154 33.3119 177.96 33.3119C174.248 33.0986 170.898 34.2932 167.912 36.8959C166.12 38.4746 164.712 40.6292 163.688 43.3599C162.749 45.9199 162.28 48.5012 162.28 51.1039C162.28 54.3466 162.962 57.1412 164.328 59.4879C166.888 63.8826 170.152 66.0799 174.12 66.0799C177.234 66.0799 180.178 64.8639 182.952 62.4319C186.322 59.4452 188.029 55.4559 188.072 50.4639Z" fill="white"/>
<path d="M202.904 34.7841C201.768 34.7841 200.704 34.5761 199.712 34.1601C198.736 33.7281 197.88 33.1361 197.144 32.3841C196.408 31.6321 195.832 30.7681 195.416 29.7921C195.016 28.8001 194.816 27.7521 194.816 26.6481C194.816 25.5441 195.024 24.4961 195.44 23.5041C195.856 22.5121 196.432 21.6401 197.168 20.8881C197.904 20.1361 198.76 19.5441 199.736 19.1121C200.728 18.6801 201.8 18.4641 202.952 18.4641C204.088 18.4641 205.144 18.6801 206.12 19.1121C207.112 19.5281 207.976 20.1121 208.712 20.8641C209.448 21.6001 210.024 22.4641 210.44 23.4561C210.856 24.4321 211.064 25.4801 211.064 26.6001C211.064 27.7041 210.856 28.7521 210.44 29.7441C210.024 30.7361 209.44 31.6081 208.688 32.3601C207.952 33.1121 207.088 33.7041 206.096 34.1361C205.12 34.5681 204.056 34.7841 202.904 34.7841ZM204.992 30.4881L203.144 27.4641H204.512L206.576 30.4881H204.992ZM202.904 33.4161C203.864 33.4161 204.752 33.2401 205.568 32.8881C206.4 32.5201 207.12 32.0241 207.728 31.4001C208.352 30.7761 208.832 30.0561 209.168 29.2401C209.52 28.4081 209.696 27.5281 209.696 26.6001C209.696 25.6721 209.52 24.8001 209.168 23.9841C208.832 23.1681 208.36 22.4481 207.752 21.8241C207.144 21.2001 206.432 20.7121 205.616 20.3601C204.8 20.0081 203.912 19.8321 202.952 19.8321C201.992 19.8321 201.096 20.0161 200.264 20.3841C199.448 20.7361 198.736 21.2241 198.128 21.8481C197.52 22.4721 197.04 23.2001 196.688 24.0321C196.352 24.8481 196.184 25.7201 196.184 26.6481C196.184 27.5761 196.352 28.4481 196.688 29.2641C197.024 30.0801 197.496 30.8001 198.104 31.4241C198.712 32.0481 199.424 32.5361 200.24 32.8881C201.056 33.2401 201.944 33.4161 202.904 33.4161ZM199.856 30.4881V22.3041H203.12C204.176 22.3041 204.984 22.5441 205.544 23.0241C206.12 23.5041 206.408 24.1921 206.408 25.0881C206.408 26.0001 206.12 26.7121 205.544 27.2241C204.984 27.7361 204.176 27.9921 203.12 27.9921H201.224V30.4881H199.856ZM201.224 26.8881H203.12C203.744 26.8881 204.232 26.7361 204.584 26.4321C204.936 26.1121 205.112 25.6721 205.112 25.1121C205.112 24.5521 204.936 24.1281 204.584 23.8401C204.232 23.5521 203.744 23.4081 203.12 23.4081H201.224V26.8881Z" fill="white"/>
</svg>
