<svg width="209" height="81" viewBox="0 0 209 81" fill="none" xmlns="http://www.w3.org/2000/svg">
<path d="M22.216 7.28794C28.744 7.28794 34.2053 9.84794 38.6 14.9679C42.8667 20.0026 45 26.1892 45 33.5279C45 40.8239 42.8667 46.9892 38.6 52.0239C34.2053 57.1439 28.744 59.7039 22.216 59.7039C15.7733 59.7039 10.5253 57.1439 6.472 52.0239C2.504 47.0746 0.520004 40.9092 0.520004 33.5279C0.520004 26.1039 2.504 19.9172 6.472 14.9679C10.5253 9.84794 15.7733 7.28794 22.216 7.28794ZM22.216 56.6959C27.848 56.6959 32.52 54.4559 36.232 49.9759C39.944 45.4532 41.8 39.9706 41.8 33.5279C41.8 27.0426 39.944 21.5599 36.232 17.0799C32.52 12.5999 27.848 10.3599 22.216 10.3599C16.6267 10.3599 12.104 12.6212 8.648 17.1439C5.36267 21.4532 3.72 26.9146 3.72 33.5279C3.72 40.0986 5.36267 45.5599 8.648 49.9119C12.104 54.4346 16.6267 56.6959 22.216 56.6959ZM60.4695 38.0079C64.3948 40.4399 67.1042 42.5306 68.5975 44.2799C70.0908 46.0292 70.8375 47.9066 70.8375 49.9119C70.8375 50.6799 70.7522 51.5332 70.5815 52.4719C70.0695 55.0319 68.8322 56.9946 66.8695 58.3599C65.0775 59.6826 62.8802 60.3439 60.2775 60.3439C59.3388 60.3439 58.4002 60.2372 57.4615 60.0239C54.7735 59.5119 52.5975 58.6159 50.9335 57.3359L51.0615 53.8159C53.8775 56.3332 56.9708 57.5919 60.3415 57.5919C64.1815 57.5919 66.4855 55.5439 67.2535 51.4479C67.3388 51.0212 67.3815 50.5946 67.3815 50.1679C67.3815 47.9492 65.9522 45.7732 63.0935 43.6399C60.4482 41.8479 57.7815 40.0559 55.0935 38.2639C52.2348 35.9172 50.8055 33.3572 50.8055 30.5839C50.8055 29.9866 50.8695 29.3466 50.9975 28.6639C51.9362 23.8852 54.9655 21.4959 60.0855 21.4959C64.3948 21.4959 67.7868 22.7759 70.2615 25.3359L69.9415 28.3439C68.6188 27.0212 67.4455 26.1252 66.4215 25.6559C65.6108 25.2292 64.4162 24.8879 62.8375 24.6319C62.0695 24.5039 61.3655 24.4399 60.7255 24.4399C57.1415 24.4399 55.0082 26.1466 54.3255 29.5599C54.1975 30.1146 54.1335 30.5839 54.1335 30.9679C54.1335 33.1012 56.2455 35.4479 60.4695 38.0079ZM104.926 0.439941H108.062V58.9999H104.926V54.8399V52.5999C104.03 53.8799 102.856 55.1599 101.406 56.4399C98.419 59.0426 95.0268 60.3439 91.2295 60.3439C86.6215 60.3439 82.8455 58.4239 79.9015 54.5839C77.2135 51.0426 75.8695 46.8826 75.8695 42.1039C75.8695 40.8666 75.9762 39.6079 76.1895 38.3279C77.0428 33.0372 79.3255 28.7706 83.0375 25.5279C86.1522 22.7972 90.3122 21.4319 95.5175 21.4319C97.694 21.4319 100.83 21.6239 104.926 22.0079V0.439941ZM104.926 41.5919C105.011 31.7786 105.011 26.2959 104.926 25.1439C99.379 24.7172 96.0082 24.5039 94.8135 24.5039C91.1442 24.2479 87.8162 25.4426 84.8295 28.0879C83.0375 29.6239 81.6295 31.7786 80.6055 34.5519C79.6668 37.0692 79.1975 39.6292 79.1975 42.2319C79.1975 45.4746 79.9015 48.2692 81.3095 50.6159C83.8268 54.9252 87.0695 57.0799 91.0375 57.0799C94.1095 57.0799 97.032 55.8852 99.806 53.4959C103.176 50.5519 104.883 46.5839 104.926 41.5919ZM135.659 21.4319C139.03 21.4746 143.211 21.7732 148.203 22.3279V58.9999H145.003V54.8399V52.5999C144.15 53.8799 142.998 55.1599 141.547 56.4399C138.56 59.0426 135.168 60.3439 131.371 60.3439C126.763 60.3439 122.987 58.4239 120.043 54.5839C117.355 51.0426 116.011 46.8826 116.011 42.1039C116.011 40.8666 116.118 39.6079 116.331 38.3279C117.184 33.0372 119.467 28.7706 123.179 25.5279C126.635 22.4559 130.795 21.0906 135.659 21.4319ZM145.003 41.5919C145.003 41.5919 145.003 36.1092 145.003 25.1439C139.499 24.7172 136.15 24.5039 134.955 24.5039C131.243 24.2479 127.894 25.4426 124.907 28.0879C123.158 29.6239 121.771 31.7786 120.747 34.5519C119.808 37.0692 119.339 39.6292 119.339 42.2319C119.339 45.4746 120.022 48.2692 121.387 50.6159C123.947 54.9252 127.19 57.0799 131.115 57.0799C134.23 57.0799 137.174 55.8852 139.947 53.4959C143.275 50.5519 144.96 46.5839 145.003 41.5919ZM175.664 21.2399C179.077 21.2826 183.28 21.5599 188.272 22.0719V51.7039C188.314 55.2879 188.314 58.5946 188.272 61.6239C188.186 68.4506 186.096 73.6559 182 77.2399C179.994 79.0319 177.242 80.1839 173.744 80.6959C172.634 80.8239 171.418 80.8879 170.096 80.8879C168.005 80.8879 165.36 80.6319 162.16 80.1199L162.736 76.9839C165.936 77.4959 168.581 77.7519 170.672 77.7519C174.512 77.7519 177.754 76.5999 180.4 74.2959C183.386 71.6932 184.944 67.4266 185.072 61.4959C185.072 60.9839 185.072 60.3012 185.072 59.4479V54.7759V52.5359C184.176 53.8159 183.002 55.0959 181.552 56.3759C178.565 58.9786 175.173 60.2799 171.376 60.2799C166.725 60.2799 162.928 58.3599 159.984 54.5199C157.296 50.9786 155.952 46.7972 155.952 41.9759C155.952 40.7386 156.037 39.4799 156.208 38.1999C157.061 32.8666 159.365 28.5786 163.12 25.3359C166.618 22.2639 170.8 20.8986 175.664 21.2399ZM185.072 41.4639C185.157 31.6079 185.157 26.0826 185.072 24.8879C179.525 24.5039 176.154 24.3119 174.96 24.3119C171.248 24.0986 167.898 25.2932 164.912 27.8959C163.12 29.4746 161.712 31.6292 160.688 34.3599C159.749 36.9199 159.28 39.5012 159.28 42.1039C159.28 45.3466 159.962 48.1412 161.328 50.4879C163.888 54.8826 167.152 57.0799 171.12 57.0799C174.234 57.0799 177.178 55.8639 179.952 53.4319C183.322 50.4452 185.029 46.4559 185.072 41.4639Z" fill="white"/>
<path d="M199.904 25.7839C198.768 25.7839 197.704 25.5759 196.712 25.1599C195.736 24.7279 194.88 24.1359 194.144 23.3839C193.408 22.6319 192.832 21.7679 192.416 20.7919C192.016 19.7999 191.816 18.7519 191.816 17.6479C191.816 16.5439 192.024 15.4959 192.44 14.5039C192.856 13.5119 193.432 12.6399 194.168 11.8879C194.904 11.1359 195.76 10.5439 196.736 10.1119C197.728 9.67987 198.8 9.46387 199.952 9.46387C201.088 9.46387 202.144 9.67987 203.12 10.1119C204.112 10.5279 204.976 11.1119 205.712 11.8639C206.448 12.5999 207.024 13.4639 207.44 14.4559C207.856 15.4319 208.064 16.4799 208.064 17.5999C208.064 18.7039 207.856 19.7519 207.44 20.7439C207.024 21.7359 206.44 22.6079 205.688 23.3599C204.952 24.1119 204.088 24.7039 203.096 25.1359C202.12 25.5679 201.056 25.7839 199.904 25.7839ZM201.992 21.4879L200.144 18.4639H201.512L203.576 21.4879H201.992ZM199.904 24.4159C200.864 24.4159 201.752 24.2399 202.568 23.8879C203.4 23.5199 204.12 23.0239 204.728 22.3999C205.352 21.7759 205.832 21.0559 206.168 20.2399C206.52 19.4079 206.696 18.5279 206.696 17.5999C206.696 16.6719 206.52 15.7999 206.168 14.9839C205.832 14.1679 205.36 13.4479 204.752 12.8239C204.144 12.1999 203.432 11.7119 202.616 11.3599C201.8 11.0079 200.912 10.8319 199.952 10.8319C198.992 10.8319 198.096 11.0159 197.264 11.3839C196.448 11.7359 195.736 12.2239 195.128 12.8479C194.52 13.4719 194.04 14.1999 193.688 15.0319C193.352 15.8479 193.184 16.7199 193.184 17.6479C193.184 18.5759 193.352 19.4479 193.688 20.2639C194.024 21.0799 194.496 21.7999 195.104 22.4239C195.712 23.0479 196.424 23.5359 197.24 23.8879C198.056 24.2399 198.944 24.4159 199.904 24.4159ZM196.856 21.4879V13.3039H200.12C201.176 13.3039 201.984 13.5439 202.544 14.0239C203.12 14.5039 203.408 15.1919 203.408 16.0879C203.408 16.9999 203.12 17.7119 202.544 18.2239C201.984 18.7359 201.176 18.9919 200.12 18.9919H198.224V21.4879H196.856ZM198.224 17.8879H200.12C200.744 17.8879 201.232 17.7359 201.584 17.4319C201.936 17.1119 202.112 16.6719 202.112 16.1119C202.112 15.5519 201.936 15.1279 201.584 14.8399C201.232 14.5519 200.744 14.4079 200.12 14.4079H198.224V17.8879Z" fill="white"/>
</svg>
