<svg width="971" height="81" viewBox="0 0 971 81" fill="none" xmlns="http://www.w3.org/2000/svg">
<g clip-path="url(#clip0_1612_32)">
<path d="M22.216 7.28812C28.744 7.28812 34.2053 9.84812 38.6 14.9681C42.8667 20.0028 45 26.1894 45 33.5281C45 40.8241 42.8667 46.9894 38.6 52.0241C34.2053 57.1441 28.744 59.7041 22.216 59.7041C15.7733 59.7041 10.5253 57.1441 6.47202 52.0241C2.50402 47.0748 0.52002 40.9094 0.52002 33.5281C0.52002 26.1041 2.50402 19.9174 6.47202 14.9681C10.5253 9.84812 15.7733 7.28812 22.216 7.28812ZM22.216 56.6961C27.848 56.6961 32.52 54.4561 36.232 49.9761C39.944 45.4534 41.8 39.9708 41.8 33.5281C41.8 27.0428 39.944 21.5601 36.232 17.0801C32.52 12.6001 27.848 10.3601 22.216 10.3601C16.6267 10.3601 12.104 12.6214 8.64802 17.1441C5.36269 21.4534 3.72002 26.9148 3.72002 33.5281C3.72002 40.0988 5.36269 45.5601 8.64802 49.9121C12.104 54.4348 16.6267 56.6961 22.216 56.6961ZM85.6215 38.2001C85.6215 38.6694 85.6215 39.0321 85.6215 39.2881C85.6642 39.5441 85.6642 39.9708 85.6215 40.5681C85.6215 41.1654 85.6002 41.6348 85.5575 41.9761C85.0028 47.8641 82.8268 52.4721 79.0295 55.8001C75.9148 58.5308 71.8615 59.8961 66.8695 59.8961C64.7362 59.8961 61.6215 59.7041 57.5255 59.3201V80.9521H54.3255V22.1361C61.1948 21.5388 65.3762 21.2401 66.8695 21.2401C67.5095 21.1974 68.1495 21.1761 68.7895 21.1761C73.2268 21.1761 76.8535 22.4134 79.6695 24.8881C83.3815 28.1734 85.3655 32.6108 85.6215 38.2001ZM82.2935 40.6961C82.3362 39.6721 82.3575 38.9894 82.3575 38.6481C82.0162 33.6988 80.5442 30.0081 77.9415 27.5761C75.3388 25.1441 71.9042 24.0561 67.6375 24.3121C64.9068 24.3548 61.5362 24.5894 57.5255 25.0161V39.2241C57.5255 39.4801 57.5255 39.6294 57.5255 39.6721V41.4641C57.5255 41.6774 57.5255 41.8481 57.5255 41.9761V56.1841C63.0295 56.6108 66.4002 56.8241 67.6375 56.8241C71.0508 57.0374 74.2508 55.8428 77.2375 53.2401C79.6695 51.1068 81.3122 47.5014 82.1655 42.4241C82.2508 41.7841 82.2935 41.2081 82.2935 40.6961ZM123.501 40.5041H94.6365V40.8241C94.6365 41.3361 94.7005 41.9121 94.8285 42.5521C95.6392 47.5868 97.2605 51.1708 99.6925 53.3041C102.423 55.6934 105.623 56.8881 109.293 56.8881C111.895 57.0161 114.242 56.8028 116.333 56.2481C117.101 56.0774 118.871 55.6081 121.645 54.8401C121.645 55.7788 121.645 56.5681 121.645 57.2081C121.645 57.8481 121.645 58.1041 121.645 57.9761C118.914 58.7868 116.141 59.3628 113.325 59.7041C112.173 59.8321 111.063 59.9174 109.997 59.9601C105.09 60.0028 101.058 58.6374 97.9005 55.8641C94.2738 52.6641 92.0978 48.0561 91.3725 42.0401V40.6961C91.3725 40.1414 91.3725 39.6721 91.3725 39.2881C91.3725 38.9894 91.3938 38.7121 91.4365 38.4561C91.8632 33.1654 94.0605 28.7921 98.0285 25.3361C101.015 22.6908 104.407 21.3681 108.205 21.3681C108.93 21.3681 109.677 21.4321 110.445 21.5601C114.626 22.2428 117.954 24.5468 120.429 28.4721C122.647 32.0134 123.671 36.0241 123.501 40.5041ZM108.397 24.6321C105.325 24.6321 102.423 25.8268 99.6925 28.2161C96.9618 30.6054 95.3192 33.6348 94.7645 37.3041H120.109C119.853 34.9574 119.191 32.9094 118.125 31.1601C115.607 26.8081 112.365 24.6321 108.397 24.6321ZM162.72 27.8961C164.256 30.5414 165.024 34.2534 165.024 39.0321V59.0001H161.696V39.0321C161.696 34.9788 161.056 31.8854 159.776 29.7521C158.794 28.0028 157.706 26.7441 156.512 25.9761C155.317 25.2081 153.568 24.6321 151.264 24.2481C150.794 24.1628 150.325 24.1201 149.856 24.1201C146.741 24.1201 143.797 25.3361 141.024 27.7681C137.653 30.7548 135.968 34.4241 135.968 38.7761V59.0001H132.768V22.0081H135.968V28.6001C137.546 26.2961 139.53 24.4401 141.92 23.0321C144.352 21.6241 146.912 20.9201 149.6 20.9201C150.368 20.9201 151.114 20.9628 151.84 21.0481C154.698 21.5174 156.917 22.2641 158.496 23.2881C160.074 24.2694 161.482 25.8054 162.72 27.8961ZM201.387 38.0081C205.313 40.4401 208.022 42.5308 209.515 44.2801C211.009 46.0294 211.755 47.9068 211.755 49.9121C211.755 50.6801 211.67 51.5334 211.499 52.4721C210.987 55.0321 209.75 56.9948 207.787 58.3601C205.995 59.6828 203.798 60.3441 201.195 60.3441C200.257 60.3441 199.318 60.2374 198.379 60.0241C195.691 59.5121 193.515 58.6161 191.851 57.3361L191.979 53.8161C194.795 56.3334 197.889 57.5921 201.259 57.5921C205.099 57.5921 207.403 55.5441 208.171 51.4481C208.257 51.0214 208.299 50.5948 208.299 50.1681C208.299 47.9494 206.87 45.7734 204.011 43.6401C201.366 41.8481 198.699 40.0561 196.011 38.2641C193.153 35.9174 191.723 33.3574 191.723 30.5841C191.723 29.9868 191.787 29.3468 191.915 28.6641C192.854 23.8854 195.883 21.4961 201.003 21.4961C205.313 21.4961 208.705 22.7761 211.179 25.3361L210.859 28.3441C209.537 27.0214 208.363 26.1254 207.339 25.6561C206.529 25.2294 205.334 24.8881 203.755 24.6321C202.987 24.5041 202.283 24.4401 201.643 24.4401C198.059 24.4401 195.926 26.1468 195.243 29.5601C195.115 30.1148 195.051 30.5841 195.051 30.9681C195.051 33.1014 197.163 35.4481 201.387 38.0081ZM227.731 55.6081C228.713 56.4188 230.995 56.7814 234.579 56.6961V59.4481C232.062 59.4481 230.441 59.4054 229.715 59.3201C227.71 59.1068 226.238 58.5948 225.299 57.7841C223.763 56.4614 222.803 54.3068 222.419 51.3201C222.291 50.1254 222.185 46.7974 222.099 41.3361C222.014 35.9601 222.014 30.5841 222.099 25.2081H216.723V22.0081H222.099V15.8001H225.299V22.0081H233.555V25.2081H225.299C225.214 30.4988 225.214 35.8108 225.299 41.1441C225.342 46.0934 225.406 48.9734 225.491 49.7841C225.79 52.6001 226.537 54.5414 227.731 55.6081ZM270.981 40.5041H242.117V40.8241C242.117 41.3361 242.181 41.9121 242.309 42.5521C243.12 47.5868 244.741 51.1708 247.173 53.3041C249.904 55.6934 253.104 56.8881 256.773 56.8881C259.376 57.0161 261.722 56.8028 263.813 56.2481C264.581 56.0774 266.352 55.6081 269.125 54.8401C269.125 55.7788 269.125 56.5681 269.125 57.2081C269.125 57.8481 269.125 58.1041 269.125 57.9761C266.394 58.7868 263.621 59.3628 260.805 59.7041C259.653 59.8321 258.544 59.9174 257.477 59.9601C252.57 60.0028 248.538 58.6374 245.381 55.8641C241.754 52.6641 239.578 48.0561 238.853 42.0401V40.6961C238.853 40.1414 238.853 39.6721 238.853 39.2881C238.853 38.9894 238.874 38.7121 238.917 38.4561C239.344 33.1654 241.541 28.7921 245.509 25.3361C248.496 22.6908 251.888 21.3681 255.685 21.3681C256.41 21.3681 257.157 21.4321 257.925 21.5601C262.106 22.2428 265.434 24.5468 267.909 28.4721C270.128 32.0134 271.152 36.0241 270.981 40.5041ZM255.877 24.6321C252.805 24.6321 249.904 25.8268 247.173 28.2161C244.442 30.6054 242.8 33.6348 242.245 37.3041H267.589C267.333 34.9574 266.672 32.9094 265.605 31.1601C263.088 26.8081 259.845 24.6321 255.877 24.6321ZM308.856 40.5041H279.992V40.8241C279.992 41.3361 280.056 41.9121 280.184 42.5521C280.995 47.5868 282.616 51.1708 285.048 53.3041C287.779 55.6934 290.979 56.8881 294.648 56.8881C297.251 57.0161 299.597 56.8028 301.688 56.2481C302.456 56.0774 304.227 55.6081 307 54.8401C307 55.7788 307 56.5681 307 57.2081C307 57.8481 307 58.1041 307 57.9761C304.269 58.7868 301.496 59.3628 298.68 59.7041C297.528 59.8321 296.419 59.9174 295.352 59.9601C290.445 60.0028 286.413 58.6374 283.256 55.8641C279.629 52.6641 277.453 48.0561 276.728 42.0401V40.6961C276.728 40.1414 276.728 39.6721 276.728 39.2881C276.728 38.9894 276.749 38.7121 276.792 38.4561C277.219 33.1654 279.416 28.7921 283.384 25.3361C286.371 22.6908 289.763 21.3681 293.56 21.3681C294.285 21.3681 295.032 21.4321 295.8 21.5601C299.981 22.2428 303.309 24.5468 305.784 28.4721C308.003 32.0134 309.027 36.0241 308.856 40.5041ZM293.752 24.6321C290.68 24.6321 287.779 25.8268 285.048 28.2161C282.317 30.6054 280.675 33.6348 280.12 37.3041H305.464C305.208 34.9574 304.547 32.9094 303.48 31.1601C300.963 26.8081 297.72 24.6321 293.752 24.6321ZM318.379 59.1281V0.184116H321.579V59.1281H318.379ZM379.761 0.440117H382.897V59.0001H379.761V54.8401V52.6001C378.865 53.8801 377.692 55.1601 376.241 56.4401C373.255 59.0428 369.863 60.3441 366.065 60.3441C361.457 60.3441 357.681 58.4241 354.737 54.5841C352.049 51.0428 350.705 46.8828 350.705 42.1041C350.705 40.8668 350.812 39.6081 351.025 38.3281C351.879 33.0374 354.161 28.7708 357.873 25.5281C360.988 22.7974 365.148 21.4321 370.353 21.4321C372.529 21.4321 375.665 21.6241 379.761 22.0081V0.440117ZM379.761 41.5921C379.847 31.7788 379.847 26.2961 379.761 25.1441C374.215 24.7174 370.844 24.5041 369.649 24.5041C365.98 24.2481 362.652 25.4428 359.665 28.0881C357.873 29.6241 356.465 31.7788 355.441 34.5521C354.503 37.0694 354.033 39.6294 354.033 42.2321C354.033 45.4748 354.737 48.2694 356.145 50.6161C358.663 54.9254 361.905 57.0801 365.873 57.0801C368.945 57.0801 371.868 55.8854 374.641 53.4961C378.012 50.5521 379.719 46.5841 379.761 41.5921ZM422.399 40.5041H393.535V40.8241C393.535 41.3361 393.599 41.9121 393.727 42.5521C394.538 47.5868 396.159 51.1708 398.591 53.3041C401.322 55.6934 404.522 56.8881 408.191 56.8881C410.794 57.0161 413.14 56.8028 415.231 56.2481C415.999 56.0774 417.77 55.6081 420.543 54.8401C420.543 55.7788 420.543 56.5681 420.543 57.2081C420.543 57.8481 420.543 58.1041 420.543 57.9761C417.812 58.7868 415.039 59.3628 412.223 59.7041C411.071 59.8321 409.962 59.9174 408.895 59.9601C403.988 60.0028 399.956 58.6374 396.799 55.8641C393.172 52.6641 390.996 48.0561 390.271 42.0401V40.6961C390.271 40.1414 390.271 39.6721 390.271 39.2881C390.271 38.9894 390.292 38.7121 390.335 38.4561C390.762 33.1654 392.959 28.7921 396.927 25.3361C399.914 22.6908 403.306 21.3681 407.103 21.3681C407.828 21.3681 408.575 21.4321 409.343 21.5601C413.524 22.2428 416.852 24.5468 419.327 28.4721C421.546 32.0134 422.57 36.0241 422.399 40.5041ZM407.295 24.6321C404.223 24.6321 401.322 25.8268 398.591 28.2161C395.86 30.6054 394.218 33.6348 393.663 37.3041H419.007C418.751 34.9574 418.09 32.9094 417.023 31.1601C414.506 26.8081 411.263 24.6321 407.295 24.6321ZM437.618 38.0081C441.543 40.4401 444.253 42.5308 445.746 44.2801C447.239 46.0294 447.986 47.9068 447.986 49.9121C447.986 50.6801 447.901 51.5334 447.73 52.4721C447.218 55.0321 445.981 56.9948 444.018 58.3601C442.226 59.6828 440.029 60.3441 437.426 60.3441C436.487 60.3441 435.549 60.2374 434.61 60.0241C431.922 59.5121 429.746 58.6161 428.082 57.3361L428.21 53.8161C431.026 56.3334 434.119 57.5921 437.49 57.5921C441.33 57.5921 443.634 55.5441 444.402 51.4481C444.487 51.0214 444.53 50.5948 444.53 50.1681C444.53 47.9494 443.101 45.7734 440.242 43.6401C437.597 41.8481 434.93 40.0561 432.242 38.2641C429.383 35.9174 427.954 33.3574 427.954 30.5841C427.954 29.9868 428.018 29.3468 428.146 28.6641C429.085 23.8854 432.114 21.4961 437.234 21.4961C441.543 21.4961 444.935 22.7761 447.41 25.3361L447.09 28.3441C445.767 27.0214 444.594 26.1254 443.57 25.6561C442.759 25.2294 441.565 24.8881 439.986 24.6321C439.218 24.5041 438.514 24.4401 437.874 24.4401C434.29 24.4401 432.157 26.1468 431.474 29.5601C431.346 30.1148 431.282 30.5841 431.282 30.9681C431.282 33.1014 433.394 35.4481 437.618 38.0081ZM456.858 21.9441H460.058V59.0641H456.858V21.9441ZM460.058 12.5361V15.7361H456.858V12.5361H460.058ZM489.187 21.2401C492.6 21.2828 496.803 21.5601 501.795 22.0721V51.7041C501.838 55.2881 501.838 58.5948 501.795 61.6241C501.71 68.4508 499.619 73.6561 495.523 77.2401C493.518 79.0321 490.766 80.1841 487.267 80.6961C486.158 80.8241 484.942 80.8881 483.619 80.8881C481.528 80.8881 478.883 80.6321 475.683 80.1201L476.259 76.9841C479.459 77.4961 482.104 77.7521 484.195 77.7521C488.035 77.7521 491.278 76.6001 493.923 74.2961C496.91 71.6934 498.467 67.4268 498.595 61.4961C498.595 60.9841 498.595 60.3014 498.595 59.4481V54.7761V52.5361C497.699 53.8161 496.526 55.0961 495.075 56.3761C492.088 58.9788 488.696 60.2801 484.899 60.2801C480.248 60.2801 476.451 58.3601 473.507 54.5201C470.819 50.9788 469.475 46.7974 469.475 41.9761C469.475 40.7388 469.56 39.4801 469.731 38.2001C470.584 32.8668 472.888 28.5788 476.643 25.3361C480.142 22.2641 484.323 20.8988 489.187 21.2401ZM498.595 41.4641C498.68 31.6081 498.68 26.0828 498.595 24.8881C493.048 24.5041 489.678 24.3121 488.483 24.3121C484.771 24.0988 481.422 25.2934 478.435 27.8961C476.643 29.4748 475.235 31.6294 474.211 34.3601C473.272 36.9201 472.803 39.5014 472.803 42.1041C472.803 45.3468 473.486 48.1414 474.851 50.4881C477.411 54.8828 480.675 57.0801 484.643 57.0801C487.758 57.0801 490.702 55.8641 493.475 53.4321C496.846 50.4454 498.552 46.4561 498.595 41.4641ZM543.43 27.8961C544.966 30.5414 545.734 34.2534 545.734 39.0321V59.0001H542.406V39.0321C542.406 34.9788 541.766 31.8854 540.486 29.7521C539.505 28.0028 538.417 26.7441 537.222 25.9761C536.028 25.2081 534.278 24.6321 531.974 24.2481C531.505 24.1628 531.036 24.1201 530.566 24.1201C527.452 24.1201 524.508 25.3361 521.734 27.7681C518.364 30.7548 516.678 34.4241 516.678 38.7761V59.0001H513.478V22.0081H516.678V28.6001C518.257 26.2961 520.241 24.4401 522.63 23.0321C525.062 21.6241 527.622 20.9201 530.31 20.9201C531.078 20.9201 531.825 20.9628 532.55 21.0481C535.409 21.5174 537.628 22.2641 539.206 23.2881C540.785 24.2694 542.193 25.8054 543.43 27.8961ZM592.85 21.4321C596.221 21.4748 600.402 21.7734 605.394 22.3281V59.0001H602.194V54.8401V52.6001C601.341 53.8801 600.189 55.1601 598.738 56.4401C595.752 59.0428 592.36 60.3441 588.562 60.3441C583.954 60.3441 580.178 58.4241 577.234 54.5841C574.546 51.0428 573.202 46.8828 573.202 42.1041C573.202 40.8668 573.309 39.6081 573.522 38.3281C574.376 33.0374 576.658 28.7708 580.37 25.5281C583.826 22.4561 587.986 21.0908 592.85 21.4321ZM602.194 41.5921C602.194 41.5921 602.194 36.1094 602.194 25.1441C596.69 24.7174 593.341 24.5041 592.146 24.5041C588.434 24.2481 585.085 25.4428 582.098 28.0881C580.349 29.6241 578.962 31.7788 577.938 34.5521C577 37.0694 576.53 39.6294 576.53 42.2321C576.53 45.4748 577.213 48.2694 578.578 50.6161C581.138 54.9254 584.381 57.0801 588.306 57.0801C591.421 57.0801 594.365 55.8854 597.138 53.4961C600.466 50.5521 602.152 46.5841 602.194 41.5921ZM645.911 27.8961C647.447 30.5414 648.215 34.2534 648.215 39.0321V59.0001H644.887V39.0321C644.887 34.9788 644.247 31.8854 642.967 29.7521C641.986 28.0028 640.898 26.7441 639.703 25.9761C638.508 25.2081 636.759 24.6321 634.455 24.2481C633.986 24.1628 633.516 24.1201 633.047 24.1201C629.932 24.1201 626.988 25.3361 624.215 27.7681C620.844 30.7548 619.159 34.4241 619.159 38.7761V59.0001H615.959V22.0081H619.159V28.6001C620.738 26.2961 622.722 24.4401 625.111 23.0321C627.543 21.6241 630.103 20.9201 632.791 20.9201C633.559 20.9201 634.306 20.9628 635.031 21.0481C637.89 21.5174 640.108 22.2641 641.687 23.2881C643.266 24.2694 644.674 25.8054 645.911 27.8961ZM684.429 0.440117H687.565V59.0001H684.429V54.8401V52.6001C683.533 53.8801 682.36 55.1601 680.909 56.4401C677.923 59.0428 674.531 60.3441 670.733 60.3441C666.125 60.3441 662.349 58.4241 659.405 54.5841C656.717 51.0428 655.373 46.8828 655.373 42.1041C655.373 40.8668 655.48 39.6081 655.693 38.3281C656.547 33.0374 658.829 28.7708 662.541 25.5281C665.656 22.7974 669.816 21.4321 675.021 21.4321C677.197 21.4321 680.333 21.6241 684.429 22.0081V0.440117ZM684.429 41.5921C684.515 31.7788 684.515 26.2961 684.429 25.1441C678.883 24.7174 675.512 24.5041 674.317 24.5041C670.648 24.2481 667.32 25.4428 664.333 28.0881C662.541 29.6241 661.133 31.7788 660.109 34.5521C659.171 37.0694 658.701 39.6294 658.701 42.2321C658.701 45.4748 659.405 48.2694 660.813 50.6161C663.331 54.9254 666.573 57.0801 670.541 57.0801C673.613 57.0801 676.536 55.8854 679.309 53.4961C682.68 50.5521 684.387 46.5841 684.429 41.5921ZM734.96 21.2401C738.374 21.2828 742.576 21.5601 747.568 22.0721V51.7041C747.611 55.2881 747.611 58.5948 747.568 61.6241C747.483 68.4508 745.392 73.6561 741.296 77.2401C739.291 79.0321 736.539 80.1841 733.04 80.6961C731.931 80.8241 730.715 80.8881 729.392 80.8881C727.302 80.8881 724.656 80.6321 721.456 80.1201L722.032 76.9841C725.232 77.4961 727.878 77.7521 729.968 77.7521C733.808 77.7521 737.051 76.6001 739.696 74.2961C742.683 71.6934 744.24 67.4268 744.368 61.4961C744.368 60.9841 744.368 60.3014 744.368 59.4481V54.7761V52.5361C743.472 53.8161 742.299 55.0961 740.848 56.3761C737.862 58.9788 734.47 60.2801 730.672 60.2801C726.022 60.2801 722.224 58.3601 719.28 54.5201C716.592 50.9788 715.248 46.7974 715.248 41.9761C715.248 40.7388 715.334 39.4801 715.504 38.2001C716.358 32.8668 718.662 28.5788 722.416 25.3361C725.915 22.2641 730.096 20.8988 734.96 21.2401ZM744.368 41.4641C744.454 31.6081 744.454 26.0828 744.368 24.8881C738.822 24.5041 735.451 24.3121 734.256 24.3121C730.544 24.0988 727.195 25.2934 724.208 27.8961C722.416 29.4748 721.008 31.6294 719.984 34.3601C719.046 36.9201 718.576 39.5014 718.576 42.1041C718.576 45.3468 719.259 48.1414 720.624 50.4881C723.184 54.8828 726.448 57.0801 730.416 57.0801C733.531 57.0801 736.475 55.8641 739.248 53.4321C742.619 50.4454 744.326 46.4561 744.368 41.4641ZM765.588 25.3361C767.423 23.7574 769.577 22.6268 772.052 21.9441V25.2081C770.345 25.8054 768.788 26.7014 767.38 27.8961C764.564 30.3708 762.772 33.9761 762.004 38.7121C761.748 40.2481 761.62 41.2081 761.62 41.5921V59.0001H758.42V22.0081H761.62V30.2001C762.729 28.3228 764.052 26.7014 765.588 25.3361ZM797.456 21.4321C800.827 21.4748 805.008 21.7734 810 22.3281V59.0001H806.8V54.8401V52.6001C805.947 53.8801 804.795 55.1601 803.344 56.4401C800.357 59.0428 796.965 60.3441 793.168 60.3441C788.56 60.3441 784.784 58.4241 781.84 54.5841C779.152 51.0428 777.808 46.8828 777.808 42.1041C777.808 40.8668 777.915 39.6081 778.128 38.3281C778.981 33.0374 781.264 28.7708 784.976 25.5281C788.432 22.4561 792.592 21.0908 797.456 21.4321ZM806.8 41.5921C806.8 41.5921 806.8 36.1094 806.8 25.1441C801.296 24.7174 797.947 24.5041 796.752 24.5041C793.04 24.2481 789.691 25.4428 786.704 28.0881C784.955 29.6241 783.568 31.7788 782.544 34.5521C781.605 37.0694 781.136 39.6294 781.136 42.2321C781.136 45.4748 781.819 48.2694 783.184 50.6161C785.744 54.9254 788.987 57.0801 792.912 57.0801C796.027 57.0801 798.971 55.8854 801.744 53.4961C805.072 50.5521 806.757 46.5841 806.8 41.5921ZM851.668 38.2001C851.668 38.6694 851.668 39.0321 851.668 39.2881C851.711 39.5441 851.711 39.9708 851.668 40.5681C851.668 41.1654 851.647 41.6348 851.604 41.9761C851.05 47.8641 848.874 52.4721 845.076 55.8001C841.962 58.5308 837.908 59.8961 832.916 59.8961C830.783 59.8961 827.668 59.7041 823.572 59.3201V80.9521H820.372V22.1361C827.242 21.5388 831.423 21.2401 832.916 21.2401C833.556 21.1974 834.196 21.1761 834.836 21.1761C839.274 21.1761 842.9 22.4134 845.716 24.8881C849.428 28.1734 851.412 32.6108 851.668 38.2001ZM848.34 40.6961C848.383 39.6721 848.404 38.9894 848.404 38.6481C848.063 33.6988 846.591 30.0081 843.988 27.5761C841.386 25.1441 837.951 24.0561 833.684 24.3121C830.954 24.3548 827.583 24.5894 823.572 25.0161V39.2241C823.572 39.4801 823.572 39.6294 823.572 39.6721V41.4641C823.572 41.6774 823.572 41.8481 823.572 41.9761V56.1841C829.076 56.6108 832.447 56.8241 833.684 56.8241C837.098 57.0374 840.298 55.8428 843.284 53.2401C845.716 51.1068 847.359 47.5014 848.212 42.4241C848.298 41.7841 848.34 41.2081 848.34 40.6961ZM890.891 27.8961C892.427 30.4561 893.217 34.1681 893.259 39.0321V59.0001H889.931V39.0321C889.931 34.9361 889.291 31.8214 888.011 29.6881C886.987 27.9814 885.878 26.7441 884.683 25.9761C883.531 25.1654 881.803 24.5681 879.499 24.1841C879.03 24.1414 878.539 24.1201 878.027 24.1201C874.955 24.1201 872.033 25.3361 869.259 27.7681C865.846 30.7121 864.139 34.3814 864.139 38.7761V59.0641H860.939V0.120117H864.139V28.6001C865.761 26.2534 867.723 24.3974 870.027 23.0321C872.545 21.5814 875.147 20.8561 877.835 20.8561C878.561 20.8561 879.307 20.9201 880.075 21.0481C882.891 21.4748 885.089 22.2001 886.667 23.2241C888.289 24.2054 889.697 25.7628 890.891 27.8961ZM903.569 21.9441H906.769V59.0641H903.569V21.9441ZM906.769 12.5361V15.7361H903.569V12.5361H906.769ZM945.882 54.8401C945.882 55.7788 945.882 56.5681 945.882 57.2081C945.925 57.8481 945.946 58.1041 945.946 57.9761C943.173 58.7868 940.399 59.3628 937.626 59.7041C936.431 59.8321 935.301 59.9174 934.234 59.9601C929.327 60.0028 925.317 58.6374 922.202 55.8641C918.405 52.5788 916.207 47.9708 915.61 42.0401C915.567 41.4001 915.546 40.9521 915.546 40.6961C915.546 40.0988 915.546 39.6294 915.546 39.2881C915.589 38.8188 915.61 38.4988 915.61 38.3281C915.823 32.7388 917.786 28.3228 921.498 25.0801C924.271 22.6481 928.517 21.4321 934.234 21.4321C936.325 21.4321 939.333 21.6028 943.258 21.9441V25.1441C938.991 24.7174 935.749 24.5041 933.53 24.5041C928.965 24.5041 925.551 25.5708 923.29 27.7041C920.645 30.1788 919.173 33.8481 918.874 38.7121C918.831 39.0961 918.831 39.8001 918.874 40.8241C918.874 41.3361 918.938 41.9121 919.066 42.5521C919.877 47.5868 921.498 51.1708 923.93 53.3041C926.661 55.6934 929.861 56.8881 933.53 56.8881C936.133 57.0161 938.479 56.8028 940.57 56.2481C941.338 56.0774 943.109 55.6081 945.882 54.8401ZM959.954 38.0081C963.879 40.4401 966.589 42.5308 968.082 44.2801C969.575 46.0294 970.322 47.9068 970.322 49.9121C970.322 50.6801 970.237 51.5334 970.066 52.4721C969.554 55.0321 968.317 56.9948 966.354 58.3601C964.562 59.6828 962.365 60.3441 959.762 60.3441C958.823 60.3441 957.885 60.2374 956.946 60.0241C954.258 59.5121 952.082 58.6161 950.418 57.3361L950.546 53.8161C953.362 56.3334 956.455 57.5921 959.826 57.5921C963.666 57.5921 965.97 55.5441 966.738 51.4481C966.823 51.0214 966.866 50.5948 966.866 50.1681C966.866 47.9494 965.437 45.7734 962.578 43.6401C959.933 41.8481 957.266 40.0561 954.578 38.2641C951.719 35.9174 950.29 33.3574 950.29 30.5841C950.29 29.9868 950.354 29.3468 950.482 28.6641C951.421 23.8854 954.45 21.4961 959.57 21.4961C963.879 21.4961 967.271 22.7761 969.746 25.3361L969.426 28.3441C968.103 27.0214 966.93 26.1254 965.906 25.6561C965.095 25.2294 963.901 24.8881 962.322 24.6321C961.554 24.5041 960.85 24.4401 960.21 24.4401C956.626 24.4401 954.493 26.1468 953.81 29.5601C953.682 30.1148 953.618 30.5841 953.618 30.9681C953.618 33.1014 955.73 35.4481 959.954 38.0081Z" fill="white"/>
</g>
<defs>
<clipPath id="clip0_1612_32">
<rect width="971" height="81" fill="white"/>
</clipPath>
</defs>
</svg>
