<svg width="800" height="800" viewBox="0 0 800 800" fill="none" xmlns="http://www.w3.org/2000/svg">
<path d="M386.105 792.302C386.105 792.302 386.105 792.302 386.105 792.304L400.001 800L413.896 792.304C413.896 792.304 413.896 792.304 413.896 792.302L622.218 676.926L755.646 603.027V586.124V181.192V162.777L738.901 155.113L699.164 136.926L400 0L100.836 136.926L61.0992 155.113L44.3542 162.777V181.192V586.124V603.027L177.783 676.926L386.105 792.302ZM494.619 277.09L400 329.493L305.382 277.09L136.632 183.627L400 63.0858L663.368 183.627L494.619 277.09ZM428.681 718.54V379.181L698.283 229.865V569.223L428.681 718.54ZM371.318 379.181V718.541L101.718 569.223V229.864L371.318 379.181Z" fill="white"/>
</svg>
