<svg width="73" height="19" viewBox="0 0 73 19" fill="none" xmlns="http://www.w3.org/2000/svg">
<g clip-path="url(#clip0_1770_12)">
<path d="M73 9.5C73 14.7467 56.6584 19 36.5 19C16.3416 19 0 14.7467 0 9.5C0 4.25329 16.3416 0 36.5 0C56.6584 0 73 4.25329 73 9.5Z" fill="#FAFAFA"/>
<path d="M9.10789 13C8.94217 12.6619 8.76983 12.2974 8.59086 11.9063C8.41851 11.5152 8.24949 11.1009 8.08377 10.6634C7.91806 10.2193 7.75234 9.75863 7.58663 9.28137C7.42754 8.79749 7.27177 8.30034 7.11931 7.78994H8.50137C8.59417 8.16114 8.70354 8.5688 8.82949 9.01291C8.96206 9.45703 9.10126 9.89451 9.24709 10.3254C9.39954 10.7496 9.54206 11.1274 9.67463 11.4589C9.77406 11.2136 9.8768 10.9385 9.98286 10.6336C10.0955 10.3221 10.2049 10.0039 10.311 9.67909C10.417 9.34766 10.5165 9.01954 10.6093 8.69474C10.7087 8.36994 10.7915 8.06834 10.8578 7.78994H12.1902C12.0443 8.30034 11.8886 8.79749 11.7229 9.28137C11.5638 9.75863 11.3981 10.2193 11.2257 10.6634C11.06 11.1009 10.891 11.5152 10.7186 11.9063C10.5529 12.2974 10.3839 12.6619 10.2115 13H9.10789ZM12.9076 13C12.901 12.9403 12.8977 12.8641 12.8977 12.7713C12.8977 12.6719 12.8977 12.5957 12.8977 12.5426C12.8977 12.1184 12.9872 11.7406 13.1661 11.4091C13.3451 11.0777 13.5672 10.7728 13.8323 10.4944C14.1041 10.216 14.3758 9.94423 14.6476 9.67909C14.8664 9.4736 15.0619 9.28137 15.2342 9.1024C15.4132 8.9168 15.5557 8.73451 15.6618 8.55554C15.7678 8.37657 15.8209 8.18434 15.8209 7.97886C15.8209 7.64743 15.7281 7.41543 15.5425 7.28286C15.3569 7.14366 15.1282 7.07406 14.8564 7.07406C14.6112 7.07406 14.3858 7.11714 14.1803 7.20331C13.9814 7.28949 13.8124 7.38891 13.6732 7.5016C13.534 7.61429 13.4346 7.70046 13.3749 7.76011L12.7286 6.85531C12.8944 6.69623 13.0866 6.5504 13.3053 6.41783C13.5307 6.27863 13.776 6.16594 14.0411 6.07977C14.3129 5.9936 14.5979 5.95051 14.8962 5.95051C15.6784 5.95051 16.2484 6.12617 16.6064 6.47749C16.9709 6.82217 17.1532 7.29611 17.1532 7.89931C17.1532 8.23074 17.0704 8.54891 16.9046 8.85383C16.7389 9.15211 16.5268 9.43714 16.2683 9.70891C16.0164 9.97406 15.7579 10.2326 15.4928 10.4845C15.3469 10.6237 15.1878 10.7827 15.0155 10.9617C14.8432 11.1407 14.6907 11.3163 14.5581 11.4887C14.4322 11.6544 14.3593 11.7936 14.3394 11.9063H17.362V13H12.9076ZM20.7371 13.1392C20.2334 13.1392 19.7992 13 19.4346 12.7216C19.0767 12.4432 18.7983 12.0389 18.5994 11.5086C18.4072 10.9717 18.3111 10.3154 18.3111 9.53989C18.3111 8.77097 18.4105 8.12137 18.6094 7.59109C18.8082 7.05417 19.0866 6.64651 19.4446 6.36811C19.8091 6.08971 20.24 5.95051 20.7371 5.95051C21.4994 5.95051 22.0927 6.26206 22.5169 6.88514C22.9478 7.5016 23.1632 8.38651 23.1632 9.53989C23.1632 10.6999 22.9478 11.5914 22.5169 12.2145C22.0927 12.831 21.4994 13.1392 20.7371 13.1392ZM20.7371 12.0157C21.0222 12.0157 21.2409 11.9096 21.3934 11.6975C21.5525 11.4854 21.6651 11.1937 21.7314 10.8225C21.7977 10.4447 21.8309 10.0171 21.8309 9.53989C21.8309 9.06926 21.7977 8.64834 21.7314 8.27714C21.6651 7.90594 21.5525 7.61429 21.3934 7.40217C21.2409 7.18343 21.0222 7.07406 20.7371 7.07406C20.4654 7.07406 20.2466 7.18343 20.0809 7.40217C19.9218 7.61429 19.8091 7.90594 19.7429 8.27714C19.6766 8.64834 19.6434 9.06926 19.6434 9.53989C19.6434 10.0171 19.6766 10.4447 19.7429 10.8225C19.8091 11.1937 19.9218 11.4854 20.0809 11.6975C20.2466 11.9096 20.4654 12.0157 20.7371 12.0157ZM24.1322 13C24.1255 12.9403 24.1222 12.8641 24.1222 12.7713C24.1222 12.6719 24.1222 12.5957 24.1222 12.5426C24.1222 12.1184 24.2117 11.7406 24.3907 11.4091C24.5697 11.0777 24.7917 10.7728 25.0569 10.4944C25.3286 10.216 25.6004 9.94423 25.8722 9.67909C26.0909 9.4736 26.2865 9.28137 26.4588 9.1024C26.6378 8.9168 26.7803 8.73451 26.8863 8.55554C26.9924 8.37657 27.0454 8.18434 27.0454 7.97886C27.0454 7.64743 26.9526 7.41543 26.767 7.28286C26.5814 7.14366 26.3527 7.07406 26.081 7.07406C25.8357 7.07406 25.6103 7.11714 25.4049 7.20331C25.206 7.28949 25.037 7.38891 24.8978 7.5016C24.7586 7.61429 24.6591 7.70046 24.5995 7.76011L23.9532 6.85531C24.1189 6.69623 24.3111 6.5504 24.5299 6.41783C24.7553 6.27863 25.0005 6.16594 25.2657 6.07977C25.5374 5.9936 25.8225 5.95051 26.1207 5.95051C26.9029 5.95051 27.473 6.12617 27.8309 6.47749C28.1955 6.82217 28.3778 7.29611 28.3778 7.89931C28.3778 8.23074 28.2949 8.54891 28.1292 8.85383C27.9635 9.15211 27.7514 9.43714 27.4929 9.70891C27.241 9.97406 26.9825 10.2326 26.7173 10.4845C26.5715 10.6237 26.4124 10.7827 26.2401 10.9617C26.0677 11.1407 25.9153 11.3163 25.7827 11.4887C25.6567 11.6544 25.5838 11.7936 25.5639 11.9063H28.5866V13H24.1322ZM31.4944 13.1491C31.2491 13.1491 30.9972 13.1259 30.7387 13.0795C30.4802 13.0398 30.2482 12.9934 30.0427 12.9403C29.8439 12.8807 29.6947 12.831 29.5953 12.7912L29.8439 11.7074C29.9897 11.7737 30.1985 11.8466 30.4703 11.9262C30.742 11.9991 31.0668 12.0355 31.4447 12.0355C31.7827 12.0355 32.0512 11.9891 32.25 11.8963C32.4555 11.7969 32.6047 11.6677 32.6975 11.5086C32.7903 11.3495 32.8367 11.1805 32.8367 11.0015C32.8367 10.7165 32.7538 10.4778 32.5881 10.2856C32.429 10.0934 32.1473 9.94754 31.743 9.84811C31.3386 9.74206 30.7686 9.68903 30.0328 9.68903C30.0726 9.37086 30.1057 9.05931 30.1322 8.7544C30.1654 8.44286 30.1919 8.13794 30.2118 7.83966C30.2383 7.54137 30.2582 7.2464 30.2714 6.95474C30.2847 6.66309 30.2979 6.38137 30.3112 6.1096H33.9006V7.20331H31.4049C31.3983 7.32263 31.3916 7.44857 31.385 7.58114C31.3784 7.71371 31.3684 7.84629 31.3552 7.97886C31.3419 8.11143 31.3287 8.23737 31.3154 8.35669C31.3088 8.476 31.2988 8.58206 31.2856 8.67486C32.2666 8.72789 32.9891 8.94994 33.4531 9.34103C33.9171 9.73211 34.1491 10.269 34.1491 10.9518C34.1491 11.3694 34.053 11.7439 33.8608 12.0753C33.6686 12.4067 33.3736 12.6686 32.9759 12.8608C32.5848 13.053 32.091 13.1491 31.4944 13.1491ZM35.9931 13.1293C35.7677 13.1293 35.5721 13.0563 35.4064 12.9105C35.2407 12.7581 35.1579 12.5526 35.1579 12.2941C35.1579 12.0355 35.2407 11.8334 35.4064 11.6875C35.5721 11.5351 35.7677 11.4589 35.9931 11.4589C36.2184 11.4589 36.414 11.5351 36.5797 11.6875C36.752 11.8334 36.8382 12.0355 36.8382 12.2941C36.8382 12.5526 36.752 12.7581 36.5797 12.9105C36.414 13.0563 36.2184 13.1293 35.9931 13.1293ZM40.0209 13.1392C39.5171 13.1392 39.0829 13 38.7183 12.7216C38.3604 12.4432 38.082 12.0389 37.8831 11.5086C37.6909 10.9717 37.5948 10.3154 37.5948 9.53989C37.5948 8.77097 37.6942 8.12137 37.8931 7.59109C38.0919 7.05417 38.3703 6.64651 38.7283 6.36811C39.0929 6.08971 39.5237 5.95051 40.0209 5.95051C40.7831 5.95051 41.3764 6.26206 41.8006 6.88514C42.2315 7.5016 42.4469 8.38651 42.4469 9.53989C42.4469 10.6999 42.2315 11.5914 41.8006 12.2145C41.3764 12.831 40.7831 13.1392 40.0209 13.1392ZM40.0209 12.0157C40.3059 12.0157 40.5246 11.9096 40.6771 11.6975C40.8362 11.4854 40.9489 11.1937 41.0151 10.8225C41.0814 10.4447 41.1146 10.0171 41.1146 9.53989C41.1146 9.06926 41.0814 8.64834 41.0151 8.27714C40.9489 7.90594 40.8362 7.61429 40.6771 7.40217C40.5246 7.18343 40.3059 7.07406 40.0209 7.07406C39.7491 7.07406 39.5303 7.18343 39.3646 7.40217C39.2055 7.61429 39.0929 7.90594 39.0266 8.27714C38.9603 8.64834 38.9271 9.06926 38.9271 9.53989C38.9271 10.0171 38.9603 10.4447 39.0266 10.8225C39.0929 11.1937 39.2055 11.4854 39.3646 11.6975C39.5303 11.9096 39.7491 12.0157 40.0209 12.0157ZM45.4144 13V7.82971C45.2951 7.91589 45.1526 8.00537 44.9868 8.09817C44.8278 8.18434 44.662 8.2672 44.4897 8.34674C44.324 8.41966 44.155 8.48263 43.9826 8.53566L43.5948 7.53143C43.9859 7.37897 44.3803 7.18343 44.778 6.9448C45.1758 6.70617 45.5171 6.42777 45.8022 6.1096H46.7169V13H45.4144ZM49.6645 13.1293C49.4391 13.1293 49.2436 13.0563 49.0779 12.9105C48.9121 12.7581 48.8293 12.5526 48.8293 12.2941C48.8293 12.0355 48.9121 11.8334 49.0779 11.6875C49.2436 11.5351 49.4391 11.4589 49.6645 11.4589C49.8899 11.4589 50.0854 11.5351 50.2511 11.6875C50.4235 11.8334 50.5096 12.0355 50.5096 12.2941C50.5096 12.5526 50.4235 12.7581 50.2511 12.9105C50.0854 13.0563 49.8899 13.1293 49.6645 13.1293ZM53.2007 13.1094C52.7699 13.1094 52.392 13.0563 52.0672 12.9503C51.7424 12.8376 51.4872 12.6586 51.3016 12.4134C51.1227 12.1615 51.0332 11.8267 51.0332 11.4091C51.0332 11.0114 51.1326 10.6933 51.3315 10.4546C51.537 10.216 51.8087 10.047 52.1468 9.94754C52.4848 9.84149 52.8461 9.78846 53.2306 9.78846C53.4228 9.78846 53.5984 9.7984 53.7575 9.81829C53.9232 9.83817 54.0459 9.86137 54.1254 9.88789V9.70891C54.1254 9.52331 54.0923 9.3576 54.026 9.21177C53.9663 9.06594 53.857 8.95326 53.6979 8.87371C53.5454 8.78754 53.3333 8.74446 53.0615 8.74446C52.7765 8.74446 52.518 8.76434 52.286 8.80411C52.054 8.84389 51.8618 8.8936 51.7093 8.95326L51.5403 7.89931C51.6994 7.84629 51.928 7.79326 52.2263 7.74023C52.5312 7.68057 52.856 7.65074 53.2007 7.65074C53.7509 7.65074 54.1851 7.73691 54.5032 7.90926C54.8214 8.0816 55.0468 8.32354 55.1794 8.63509C55.3119 8.94663 55.3782 9.31451 55.3782 9.73874V12.8608C55.186 12.9006 54.901 12.9503 54.5231 13.0099C54.1519 13.0762 53.7111 13.1094 53.2007 13.1094ZM53.3002 12.0952C53.4725 12.0952 53.6316 12.0919 53.7774 12.0853C53.9232 12.072 54.0392 12.0554 54.1254 12.0355V10.7629C54.0658 10.743 53.9696 10.7264 53.8371 10.7131C53.7111 10.6933 53.5786 10.6833 53.4394 10.6833C53.2471 10.6833 53.0648 10.7032 52.8925 10.743C52.7268 10.7761 52.5909 10.8424 52.4848 10.9418C52.3788 11.0413 52.3258 11.1871 52.3258 11.3793C52.3258 11.6445 52.4119 11.8301 52.5843 11.9361C52.7632 12.0422 53.0019 12.0952 53.3002 12.0952ZM57.277 13.1293C57.0516 13.1293 56.8561 13.0563 56.6904 12.9105C56.5246 12.7581 56.4418 12.5526 56.4418 12.2941C56.4418 12.0355 56.5246 11.8334 56.6904 11.6875C56.8561 11.5351 57.0516 11.4589 57.277 11.4589C57.5024 11.4589 57.6979 11.5351 57.8636 11.6875C58.036 11.8334 58.1221 12.0355 58.1221 12.2941C58.1221 12.5526 58.036 12.7581 57.8636 12.9105C57.6979 13.0563 57.5024 13.1293 57.277 13.1293ZM59.0875 13C59.0809 12.9403 59.0776 12.8641 59.0776 12.7713C59.0776 12.6719 59.0776 12.5957 59.0776 12.5426C59.0776 12.1184 59.1671 11.7406 59.346 11.4091C59.525 11.0777 59.7471 10.7728 60.0122 10.4944C60.284 10.216 60.5558 9.94423 60.8275 9.67909C61.0463 9.4736 61.2418 9.28137 61.4142 9.1024C61.5931 8.9168 61.7356 8.73451 61.8417 8.55554C61.9478 8.37657 62.0008 8.18434 62.0008 7.97886C62.0008 7.64743 61.908 7.41543 61.7224 7.28286C61.5368 7.14366 61.3081 7.07406 61.0363 7.07406C60.7911 7.07406 60.5657 7.11714 60.3602 7.20331C60.1614 7.28949 59.9923 7.38891 59.8531 7.5016C59.7139 7.61429 59.6145 7.70046 59.5548 7.76011L58.9086 6.85531C59.0743 6.69623 59.2665 6.5504 59.4852 6.41783C59.7106 6.27863 59.9559 6.16594 60.221 6.07977C60.4928 5.9936 60.7778 5.95051 61.0761 5.95051C61.8583 5.95051 62.4283 6.12617 62.7863 6.47749C63.1508 6.82217 63.3331 7.29611 63.3331 7.89931C63.3331 8.23074 63.2503 8.54891 63.0846 8.85383C62.9188 9.15211 62.7067 9.43714 62.4482 9.70891C62.1963 9.97406 61.9378 10.2326 61.6727 10.4845C61.5268 10.6237 61.3678 10.7827 61.1954 10.9617C61.0231 11.1407 60.8706 11.3163 60.738 11.4887C60.6121 11.6544 60.5392 11.7936 60.5193 11.9063H63.5419V13H59.0875Z" fill="black"/>
</g>
<defs>
<clipPath id="clip0_1770_12">
<rect width="73" height="19" fill="white"/>
</clipPath>
</defs>
</svg>
